<svg width="320" height="86" viewBox="0 0 320 86" fill="none" xmlns="http://www.w3.org/2000/svg">
<g filter="url(#filter0_i_8_21)">
<path d="M311.634 0H8.36601C3.74559 0 0 3.58172 0 8V78C0 82.4183 3.74559 86 8.36601 86H311.634C316.254 86 320 82.4183 320 78V8C320 3.58172 316.254 0 311.634 0Z" fill="#2C2C2C"/>
</g>
<path d="M104.549 63.9999L106.409 58.4406H114.886L116.757 63.9999H121.117L113.169 41.4544H108.127L100.19 63.9999H104.549ZM107.51 55.1601L110.56 46.078H110.736L113.785 55.1601H107.51ZM123.91 70.3408H127.895V61.3358H128.06C128.688 62.5688 129.998 64.2971 132.904 64.2971C136.889 64.2971 139.873 61.1377 139.873 55.5674C139.873 49.931 136.801 46.8706 132.893 46.8706C129.91 46.8706 128.666 48.665 128.06 49.887H127.829V47.0908H123.91V70.3408ZM127.818 55.5454C127.818 52.2648 129.227 50.1402 131.792 50.1402C134.445 50.1402 135.81 52.3969 135.81 55.5454C135.81 58.7158 134.423 61.0276 131.792 61.0276C129.249 61.0276 127.818 58.8259 127.818 55.5454ZM143.285 70.3408H147.27V61.3358H147.435C148.063 62.5688 149.373 64.2971 152.279 64.2971C156.264 64.2971 159.248 61.1377 159.248 55.5674C159.248 49.931 156.176 46.8706 152.268 46.8706C149.285 46.8706 148.041 48.665 147.435 49.887H147.204V47.0908H143.285V70.3408ZM147.193 55.5454C147.193 52.2648 148.602 50.1402 151.167 50.1402C153.82 50.1402 155.185 52.3969 155.185 55.5454C155.185 58.7158 153.798 61.0276 151.167 61.0276C148.624 61.0276 147.193 58.8259 147.193 55.5454ZM182.778 47.6522H186.708C186.631 43.8433 183.384 41.1462 178.584 41.1462C173.85 41.1462 170.295 43.8103 170.306 47.7954C170.306 51.0319 172.606 52.8923 176.316 53.85L178.881 54.5106C181.314 55.127 182.921 55.8866 182.932 57.637C182.921 59.5635 181.094 60.8515 178.43 60.8515C175.876 60.8515 173.894 59.7066 173.729 57.3397H169.711C169.876 61.8202 173.212 64.3412 178.463 64.3412C183.868 64.3412 187.006 61.6441 187.017 57.67C187.006 53.762 183.78 51.9786 180.389 51.175L178.276 50.6466C176.426 50.2062 174.423 49.4246 174.445 47.5422C174.456 45.8468 175.975 44.6029 178.529 44.6029C180.962 44.6029 182.569 45.7368 182.778 47.6522ZM198.925 47.0908H195.589V43.0397H191.604V47.0908H189.205V50.1732H191.604V59.5745C191.582 62.7559 193.894 64.3191 196.888 64.2311C198.022 64.1981 198.804 63.9779 199.233 63.8348L198.562 60.7194C198.342 60.7744 197.89 60.8735 197.395 60.8735C196.393 60.8735 195.589 60.5212 195.589 58.914V50.1732H198.925V47.0908ZM209.452 64.3302C214.406 64.3302 217.554 60.8405 217.554 55.6114C217.554 50.3713 214.406 46.8706 209.452 46.8706C204.498 46.8706 201.35 50.3713 201.35 55.6114C201.35 60.8405 204.498 64.3302 209.452 64.3302ZM209.474 61.1377C206.733 61.1377 205.39 58.6938 205.39 55.6004C205.39 52.507 206.733 50.0301 209.474 50.0301C212.171 50.0301 213.514 52.507 213.514 55.6004C213.514 58.6938 212.171 61.1377 209.474 61.1377ZM220.937 63.9999H224.922V54.0592C224.922 51.9125 226.54 50.3934 228.731 50.3934C229.402 50.3934 230.239 50.5145 230.58 50.6245V46.9587C230.217 46.8927 229.589 46.8486 229.149 46.8486C227.211 46.8486 225.593 47.9495 224.977 49.909H224.801V47.0908H220.937V63.9999ZM240.017 64.3302C243.958 64.3302 246.666 62.4037 247.371 59.4644L243.65 59.0461C243.11 60.4772 241.789 61.2258 240.072 61.2258C237.496 61.2258 235.79 59.5304 235.757 56.6352H247.536V55.4133C247.536 49.4797 243.969 46.8706 239.808 46.8706C234.964 46.8706 231.805 50.4264 231.805 55.6444C231.805 60.9505 234.92 64.3302 240.017 64.3302ZM235.768 53.9491C235.889 51.7914 237.485 49.975 239.863 49.975C242.153 49.975 243.694 51.6483 243.716 53.9491H235.768Z" fill="white"/>
<path d="M104.118 27.9999C107.441 27.9999 109.316 25.9331 109.316 22.524C109.316 19.1363 107.441 17.0908 104.267 17.0908H100.751V27.9999H104.118ZM102.072 26.828V18.2627H104.181C106.738 18.2627 108.038 19.882 108.038 22.524C108.038 25.1874 106.738 26.828 104.032 26.828H102.072ZM114.686 28.1704C116.902 28.1704 118.393 26.4871 118.393 23.9516C118.393 21.3948 116.902 19.7115 114.686 19.7115C112.47 19.7115 110.978 21.3948 110.978 23.9516C110.978 26.4871 112.47 28.1704 114.686 28.1704ZM114.686 27.0411C113.002 27.0411 112.235 25.5922 112.235 23.9516C112.235 22.311 113.002 20.8408 114.686 20.8408C116.369 20.8408 117.136 22.311 117.136 23.9516C117.136 25.5922 116.369 27.0411 114.686 27.0411ZM121.887 27.9999H123.123L124.913 21.7144H125.041L126.831 27.9999H128.066L130.559 19.8181H129.238L127.47 26.061H127.385L125.659 19.8181H124.316L122.569 26.0823H122.484L120.716 19.8181H119.394L121.887 27.9999ZM133.478 23.078C133.478 21.6505 134.363 20.8408 135.566 20.8408C136.733 20.8408 137.441 21.6025 137.441 22.8863V27.9999H138.698V22.801C138.698 20.713 137.585 19.7115 135.929 19.7115C134.693 19.7115 133.926 20.2655 133.542 21.0965H133.436V19.8181H132.221V27.9999H133.478V23.078ZM142.253 17.0908H140.996V27.9999H142.253V17.0908ZM147.879 28.1704C150.095 28.1704 151.586 26.4871 151.586 23.9516C151.586 21.3948 150.095 19.7115 147.879 19.7115C145.663 19.7115 144.172 21.3948 144.172 23.9516C144.172 26.4871 145.663 28.1704 147.879 28.1704ZM147.879 27.0411C146.196 27.0411 145.429 25.5922 145.429 23.9516C145.429 22.311 146.196 20.8408 147.879 20.8408C149.562 20.8408 150.329 22.311 150.329 23.9516C150.329 25.5922 149.562 27.0411 147.879 27.0411ZM155.913 28.1917C157.341 28.1917 158.086 27.4246 158.342 26.8919H158.406V27.9999H159.663V22.6093C159.663 20.0098 157.682 19.7115 156.637 19.7115C155.402 19.7115 153.995 20.1377 153.356 21.6292L154.549 22.0553C154.826 21.4587 155.482 20.8195 156.68 20.8195C157.836 20.8195 158.406 21.4321 158.406 22.4814V22.524C158.406 23.1313 157.788 23.078 156.297 23.2698C154.778 23.4669 153.122 23.8025 153.122 25.6775C153.122 27.2755 154.358 28.1917 155.913 28.1917ZM156.105 27.0624C155.103 27.0624 154.379 26.615 154.379 25.7414C154.379 24.7826 155.253 24.4843 156.233 24.3564C156.765 24.2925 158.193 24.1434 158.406 23.8877V25.0383C158.406 26.061 157.596 27.0624 156.105 27.0624ZM165.047 28.1704C166.624 28.1704 167.156 27.1902 167.433 26.7428H167.583V27.9999H168.797V17.0908H167.54V21.1178H167.433C167.156 20.6917 166.666 19.7115 165.068 19.7115C163.002 19.7115 161.574 21.3522 161.574 23.9303C161.574 26.5297 163.002 28.1704 165.047 28.1704ZM165.217 27.0411C163.641 27.0411 162.831 25.6561 162.831 23.909C162.831 22.1831 163.619 20.8408 165.217 20.8408C166.752 20.8408 167.561 22.0766 167.561 23.909C167.561 25.7627 166.73 27.0411 165.217 27.0411ZM178.817 28.1704C181.032 28.1704 182.524 26.4871 182.524 23.9516C182.524 21.3948 181.032 19.7115 178.817 19.7115C176.601 19.7115 175.109 21.3948 175.109 23.9516C175.109 26.4871 176.601 28.1704 178.817 28.1704ZM178.817 27.0411C177.133 27.0411 176.366 25.5922 176.366 23.9516C176.366 22.311 177.133 20.8408 178.817 20.8408C180.5 20.8408 181.267 22.311 181.267 23.9516C181.267 25.5922 180.5 27.0411 178.817 27.0411ZM185.7 23.078C185.7 21.6505 186.584 20.8408 187.788 20.8408C188.955 20.8408 189.663 21.6025 189.663 22.8863V27.9999H190.92V22.801C190.92 20.713 189.807 19.7115 188.15 19.7115C186.914 19.7115 186.147 20.2655 185.764 21.0965H185.657V19.8181H184.443V27.9999H185.7V23.078ZM200.994 19.8181H199.247V17.8579H197.99V19.8181H196.754V20.8834H197.99V25.9971C197.99 27.4246 199.141 28.1064 200.206 28.1064C200.675 28.1064 200.973 28.0212 201.143 27.9573L200.888 26.828C200.781 26.8493 200.611 26.8919 200.334 26.8919C199.78 26.8919 199.247 26.7215 199.247 25.6561V20.8834H200.994V19.8181ZM204.318 23.078C204.318 21.6505 205.229 20.8408 206.47 20.8408C207.653 20.8408 208.366 21.5865 208.366 22.8863V27.9999H209.624V22.801C209.624 20.697 208.505 19.7115 206.832 19.7115C205.543 19.7115 204.808 20.2495 204.425 21.0965H204.318V17.0908H203.061V27.9999H204.318V23.078ZM215.354 28.1704C217.016 28.1704 218.23 27.3394 218.614 26.1036L217.399 25.7627C217.08 26.615 216.339 27.0411 215.354 27.0411C213.878 27.0411 212.861 26.0876 212.802 24.3351H218.742V23.8025C218.742 20.7556 216.93 19.7115 215.226 19.7115C213.01 19.7115 211.54 21.4587 211.54 23.9729C211.54 26.4871 212.989 28.1704 215.354 28.1704ZM212.802 23.2485C212.887 21.9754 213.788 20.8408 215.226 20.8408C216.59 20.8408 217.463 21.8635 217.463 23.2485H212.802Z" fill="white"/>
<path d="M37.1087 34.3799C32.8816 41.7151 35.5689 52.8468 40.2433 59.5963C42.5766 62.9707 44.9389 65.9997 48.1744 65.9997C48.2354 65.9997 48.2966 65.9986 48.3592 65.9961C49.8793 65.9355 50.9779 65.4674 52.04 65.0151C53.2325 64.5069 54.4657 63.9815 56.4002 63.9815C58.2405 63.9815 59.4149 64.4899 60.5502 64.9814C61.6702 65.4656 62.8232 65.9666 64.5262 65.9346C68.1712 65.8668 70.4092 62.5982 72.3832 59.7148C74.4432 56.7042 75.4772 53.781 75.8252 52.664L75.8392 52.6196C75.9062 52.421 75.8122 52.2043 75.6222 52.1169C75.6162 52.1145 75.5972 52.1064 75.5922 52.1042C74.9502 51.8417 69.3202 49.3442 69.2612 42.5369C69.2062 37.0065 73.4842 34.0778 74.3422 33.5469L74.3822 33.522C74.4752 33.4622 74.5402 33.3673 74.5622 33.2587C74.5842 33.1504 74.5612 33.0376 74.4992 32.9465C71.5462 28.6248 67.0192 27.9735 65.1972 27.8951C64.9332 27.8687 64.6602 27.8555 64.3862 27.8555C62.2452 27.8555 60.1951 28.6638 58.5479 29.3133C57.4108 29.7617 56.4287 30.1489 55.7513 30.1489C54.9902 30.1489 54.0025 29.7569 52.8587 29.3032C51.3292 28.6961 49.5956 28.0083 47.7603 28.0083C47.7166 28.0083 47.6734 28.0087 47.631 28.0096C43.3638 28.0724 39.3316 30.5137 37.1087 34.3799Z" fill="white"/>
<path d="M65.2012 16.0003C62.6172 16.1056 59.5172 17.6962 57.6644 19.8664C56.0898 21.6905 54.5516 24.7318 54.9569 27.7974C54.9823 27.9892 55.1383 28.1372 55.3313 28.1521C55.5057 28.1657 55.6837 28.1726 55.8611 28.1728C58.3878 28.1728 61.1132 26.7749 62.9752 24.5241C64.9342 22.1474 65.9252 19.0972 65.6252 16.3651C65.6012 16.151 65.4132 15.992 65.2012 16.0003Z" fill="white"/>
<defs>
<filter id="filter0_i_8_21" x="0" y="0" width="320" height="93" filterUnits="userSpaceOnUse" color-interpolation-filters="sRGB">
<feFlood flood-opacity="0" result="BackgroundImageFix"/>
<feBlend mode="normal" in="SourceGraphic" in2="BackgroundImageFix" result="shape"/>
<feColorMatrix in="SourceAlpha" type="matrix" values="0 0 0 0 0 0 0 0 0 0 0 0 0 0 0 0 0 0 127 0" result="hardAlpha"/>
<feOffset dy="7"/>
<feGaussianBlur stdDeviation="16"/>
<feComposite in2="hardAlpha" operator="arithmetic" k2="-1" k3="1"/>
<feColorMatrix type="matrix" values="0 0 0 0 0 0 0 0 0 0 0 0 0 0 0 0 0 0 0.08 0"/>
<feBlend mode="normal" in2="shape" result="effect1_innerShadow_8_21"/>
</filter>
</defs>
</svg>
