<svg width="38" height="38" viewBox="0 0 38 38" fill="none" xmlns="http://www.w3.org/2000/svg">
<rect width="38" height="38" rx="7" fill="#026BE3"/>
<g clip-path="url(#clip0_1091_2621)">
<path d="M29.2299 11.1977L27.6914 9.73242C27.1791 9.24414 26.5073 9 25.8354 9C25.1636 9 24.4918 9.24414 23.9791 9.73203L9.52599 23.4969L9.00509 27.9586C8.93947 28.5203 9.40418 29 9.98127 29C10.0178 29 10.0543 28.998 10.0916 28.9941L14.7731 28.5016L29.2303 14.7328C30.2553 13.7566 30.2553 12.1738 29.2299 11.1977V11.1977ZM14.1706 27.3078L10.3549 27.7105L10.7798 24.0711L21.6035 13.7629L24.9983 16.9961L14.1706 27.3078V27.3078ZM28.3021 13.8492L25.9261 16.1121L22.5312 12.8789L24.9073 10.616C25.155 10.3801 25.4848 10.25 25.8354 10.25C26.1861 10.25 26.5155 10.3801 26.7636 10.616L28.3021 12.0812C28.8136 12.5687 28.8136 13.3617 28.3021 13.8492Z" fill="white"/>
</g>
<defs>
<clipPath id="clip0_1091_2621">
<rect width="21" height="20" fill="white" transform="translate(9 9)"/>
</clipPath>
</defs>
</svg>
