<svg width="38" height="38" viewBox="0 0 38 38" fill="none" xmlns="http://www.w3.org/2000/svg">
<path d="M31 0H7C3.13401 0 0 3.13401 0 7V31C0 34.866 3.13401 38 7 38H31C34.866 38 38 34.866 38 31V7C38 3.13401 34.866 0 31 0Z" fill="#026BE3"/>
<path d="M28.2676 11.1977L26.8024 9.73242C26.3145 9.24414 25.6747 9 25.0348 9C24.395 9 23.7551 9.24414 23.2669 9.73203L9.50199 23.4969L9.0059 27.9586C8.9434 28.5203 9.38598 29 9.93559 29C9.97035 29 10.0051 28.998 10.0407 28.9941L14.4993 28.5016L28.268 14.7328C29.2442 13.7566 29.2442 12.1738 28.2676 11.1977ZM13.9254 27.3078L10.2914 27.7105L10.6961 24.0711L21.0044 13.7629L24.2376 16.9961L13.9254 27.3078ZM27.384 13.8492L25.1212 16.1121L21.888 12.8789L24.1508 10.616C24.3868 10.3801 24.7008 10.25 25.0348 10.25C25.3688 10.25 25.6825 10.3801 25.9188 10.616L27.384 12.0812C27.8712 12.5687 27.8712 13.3617 27.384 13.8492Z" fill="white"/>
</svg>
