<svg width="38" height="38" viewBox="0 0 38 38" fill="none" xmlns="http://www.w3.org/2000/svg">
<rect width="38" height="38" rx="7" fill="#026BE3"/>
<g clip-path="url(#clip0_1091_2625)">
<path d="M24.7709 19.9376H13.2709C11.9951 19.9376 11.3482 21.4874 12.2557 22.3903L18.0057 28.1403C18.5672 28.7019 19.4791 28.7019 20.0406 28.1403L25.7906 22.3903C26.6891 21.4874 26.0467 19.9376 24.7709 19.9376ZM19.0209 27.1251L13.2709 21.3751H24.7709L19.0209 27.1251ZM13.2709 17.0626H24.7709C26.0467 17.0626 26.6936 15.5128 25.7861 14.6099L20.0361 8.85986C19.4746 8.29834 18.5627 8.29834 18.0012 8.85986L12.2512 14.6099C11.3527 15.5128 11.9951 17.0626 13.2709 17.0626ZM19.0209 9.8751L24.7709 15.6251H13.2709L19.0209 9.8751Z" fill="white"/>
</g>
<defs>
<clipPath id="clip0_1091_2625">
<rect width="14.375" height="23" fill="white" transform="translate(11.8334 7)"/>
</clipPath>
</defs>
</svg>
