<svg width="38" height="38" viewBox="0 0 38 38" fill="none" xmlns="http://www.w3.org/2000/svg">
<rect width="38" height="38" rx="7" fill="#026BE3"/>
<g clip-path="url(#clip0_1091_2624)">
<path d="M29.2961 16.2864L22.6613 9.4589C21.7304 8.50088 20.0635 9.13902 20.0635 10.485V13.7563C13.8262 13.83 8 14.9413 8 21.2903C8 24.8149 10.1051 26.8652 11.3601 27.7685C12.2736 28.4261 13.5474 27.5832 13.2329 26.4878C11.8052 21.5017 14.2419 20.9482 20.0635 20.8809V24.1406C20.0635 25.4854 21.7294 26.1258 22.6613 25.1667L29.2961 18.3386C29.8537 17.7645 29.8537 16.8605 29.2961 16.2864V16.2864ZM28.4242 17.5177L21.7893 24.3458C21.6034 24.5373 21.2698 24.41 21.2698 24.1406V19.6875C14.8085 19.6875 10.137 20.0477 12.0722 26.8014C10.7143 25.8239 9.20635 24.0512 9.20635 21.2903C9.20635 15.3524 15.3469 14.9375 21.2698 14.9375V10.4844C21.2698 10.2149 21.6035 10.0877 21.7893 10.2792L28.4242 17.1073C28.4781 17.1624 28.5082 17.236 28.5082 17.3125C28.5082 17.389 28.4781 17.4626 28.4242 17.5177V17.5177Z" fill="white"/>
</g>
<defs>
<clipPath id="clip0_1091_2624">
<rect width="21.7143" height="19" fill="white" transform="translate(8 9)"/>
</clipPath>
</defs>
</svg>
