<svg width="139" height="99" viewBox="0 0 139 99" fill="none" xmlns="http://www.w3.org/2000/svg">
<path d="M27.3194 35.0568C29.0081 33.3943 31.9979 31.8988 34.9324 34.118C36.0298 34.924 36.7844 36.1587 37.0339 37.5566C37.2833 38.9544 37.0077 40.4036 36.2663 41.5924C24.9423 59.3974 18.4516 71.1244 14.7496 78.5472C16.8407 77.5814 18.9282 76.604 20.9937 75.6346C31.3246 70.7882 42.0208 65.7803 52.4679 62.7331C53.1085 62.5463 53.7768 62.4955 54.4345 62.584C55.0921 62.6724 55.7263 62.8984 56.3009 63.2487C56.8754 63.599 57.379 64.067 57.7828 64.6258C58.1867 65.1845 58.483 65.8232 58.6547 66.5053C59.3766 69.3733 57.2131 71.4207 54.6568 72.6291C44.9114 77.228 35.4425 81.2976 25.4619 85.9888C19.4757 88.7978 12.5848 92.043 6.83429 93.6611C5.05345 94.1601 3.18735 94.0168 1.78829 92.7623C1.10145 92.1458 0.582351 91.3441 0.284617 90.44C-0.0131165 89.536 -0.0786965 88.5624 0.0946535 87.6198C0.314165 86.4279 1.60431 75.2596 26.5721 36.0074C26.7864 35.6613 27.0371 35.3423 27.3194 35.0568Z" fill="#6ED930"/>
<path d="M131.969 6C131.969 6 63.0337 20.3234 20 76.037" stroke="#6FDC31" stroke-width="10.72" stroke-linecap="round" stroke-linejoin="round"/>
</svg>
