<svg width="131" height="75" viewBox="0 0 131 75" fill="none" xmlns="http://www.w3.org/2000/svg">
<g clip-path="url(#clip0_2_12)">
<path d="M129.378 43.6254C131.578 55.9845 131.357 66.7552 130.22 70.534C129.95 71.4332 129.474 72.2478 128.835 72.9057C128.195 73.5637 127.412 74.0445 126.555 74.3055C119.271 76.5229 96.286 63.5119 78.2584 52.2265C77.0414 51.4392 76.1661 50.1772 75.8218 48.7135C75.4775 47.2498 75.6918 45.7021 76.4185 44.405C77.1452 43.108 78.3257 42.1658 79.7049 41.7824C81.084 41.3989 82.5509 41.605 83.7882 42.356C102.786 54.2712 113.39 59.3232 118.942 61.4646C119.402 61.6307 119.84 61.808 120.242 61.9476C120.242 53.8131 118.641 38.2378 112.311 24.9783C111.701 23.6244 111.616 22.0721 112.074 20.6536C112.533 19.2351 113.498 18.0631 114.764 17.3883C116.03 16.7135 117.495 16.5895 118.847 17.0428C120.199 17.4962 121.33 18.4909 121.998 19.8141C125.66 27.4891 127.997 35.8681 129.378 43.6254Z" fill="white"/>
<path d="M2.16319 7.91547C2.97279 7.61251 22.4266 -2.25544 46.6592 0.478032C69.2373 3.02393 101.764 14.9069 122.065 56.5994C123.434 59.4114 121.033 62.7895 118.359 64.2256C115.685 65.6617 111.064 64.4767 109.693 61.6662C95.2364 31.9738 74.4877 16.6731 45.8734 11.9159C24.1447 8.30321 6.1918 14.3996 6.00244 14.4292C2.78814 15.1156 1.52449 14.6889 0.379556 12.6456C0.160272 12.2194 0.0325758 11.7474 0.0054579 11.263C-0.0216533 10.7786 0.0524707 10.2936 0.222638 9.84228C0.392805 9.39101 0.654843 8.9845 0.990179 8.65154C1.32552 8.31857 1.72596 8.06729 2.16319 7.91547Z" fill="white"/>
</g>
<defs>
<clipPath id="clip0_2_12">
<rect width="131" height="75" fill="white"/>
</clipPath>
</defs>
</svg>
