<svg width="203" height="66" viewBox="0 0 203 66" fill="none" xmlns="http://www.w3.org/2000/svg">
<path d="M3.84726 22.72C3.56726 22.72 3.28726 22.636 3.00726 22.468C2.72726 22.2813 2.53126 22.0387 2.41926 21.74V20.872C2.41926 20.368 2.50326 19.8733 2.67126 19.388C2.83926 18.9027 2.9326 18.408 2.95126 17.904C2.55926 17.904 2.15793 17.8947 1.74726 17.876C1.35526 17.8387 1.01926 17.7173 0.73926 17.512C0.477926 17.288 0.34726 16.896 0.34726 16.336C0.34726 15.776 0.48726 15.384 0.76726 15.16C1.06593 14.936 1.42993 14.796 1.85926 14.74C2.2886 14.684 2.7086 14.6373 3.11926 14.6C3.52993 14.5627 3.8566 14.4413 4.09926 14.236L4.51926 13.816C4.6686 13.5733 4.77126 13.3027 4.82726 13.004C4.88326 12.7053 4.99526 12.4347 5.16326 12.192C5.27526 11.9493 5.4526 11.576 5.69526 11.072C5.9566 10.568 6.22726 10.0267 6.50726 9.448C6.78726 8.86933 7.0486 8.34667 7.29126 7.88C7.53393 7.41333 7.70193 7.096 7.79526 6.928C7.98193 6.61067 8.21526 6.228 8.49526 5.78C8.79393 5.31333 9.12992 4.90267 9.50325 4.548C9.89525 4.19333 10.2966 4.016 10.7073 4.016C11.3233 4.016 11.8179 4.20267 12.1913 4.576C12.5833 4.93067 12.9006 5.36933 13.1433 5.892C13.3859 6.396 13.6099 6.872 13.8153 7.32C14.7113 9.31733 15.5139 11.3987 16.2233 13.564C16.9513 15.7293 17.5299 17.8947 17.9593 20.06V20.48C17.9593 20.8347 17.8286 21.208 17.5673 21.6C17.3246 21.9733 17.0259 22.16 16.6713 22.16C16.1486 22.16 15.7473 22.02 15.4673 21.74C15.1873 21.46 14.9819 21.1053 14.8513 20.676C14.7206 20.2467 14.6179 19.7987 14.5433 19.332C14.4873 18.8653 14.4033 18.4453 14.2913 18.072C14.1793 17.68 13.9926 17.3907 13.7313 17.204H11.2673C10.9873 17.204 10.6886 17.204 10.3713 17.204C10.0539 17.1853 9.7366 17.176 9.41926 17.176C9.02726 17.176 8.63526 17.1947 8.24326 17.232C7.86993 17.2693 7.51526 17.3533 7.17926 17.484C6.74993 17.6333 6.44193 17.9133 6.25526 18.324C6.0686 18.716 5.9286 19.164 5.83526 19.668C5.74193 20.1533 5.63926 20.6293 5.52726 21.096C5.41526 21.5627 5.23793 21.9547 4.99526 22.272C4.7526 22.5707 4.36993 22.72 3.84726 22.72ZM8.10326 14.068H8.80326C9.43793 14.068 10.0259 14.068 10.5673 14.068C11.1273 14.0493 11.8646 14.012 12.7793 13.956V13.704C12.7793 13.4987 12.7513 13.3027 12.6953 13.116C12.6579 12.9107 12.5926 12.7053 12.4993 12.5C12.3686 12.0893 12.1913 11.604 11.9673 11.044C11.7433 10.4653 11.5286 9.93333 11.3233 9.448C11.1179 8.944 10.9686 8.59867 10.8753 8.412C10.8566 8.39333 10.8006 8.384 10.7073 8.384H10.6233C10.4926 8.57067 10.3806 8.776 10.2873 9C10.2126 9.20533 10.1006 9.40133 9.95125 9.588C9.87659 9.77467 9.74593 10.0547 9.55926 10.428C9.39126 10.7827 9.2046 11.1747 8.99926 11.604C8.79393 12.0147 8.59792 12.416 8.41125 12.808C8.24325 13.1813 8.1126 13.48 8.01926 13.704V13.844C8.01926 13.9933 8.04726 14.068 8.10326 14.068ZM25.0649 23.42C24.1316 23.1773 23.3476 22.7667 22.7129 22.188C22.0969 21.5907 21.6303 20.8907 21.3129 20.088C21.0143 19.2853 20.8649 18.4453 20.8649 17.568C20.8649 16.3547 21.1263 15.188 21.6489 14.068C22.1716 12.9293 22.8716 11.9213 23.7489 11.044C24.6449 10.148 25.6529 9.43867 26.7729 8.916C27.9116 8.39333 29.0876 8.132 30.3009 8.132C30.7303 8.132 31.1409 8.19733 31.5329 8.328C31.9436 8.44 32.3543 8.50533 32.7649 8.524L32.8769 8.16C32.8956 7.824 32.9236 7.404 32.9609 6.9C32.9983 6.396 33.0449 5.87333 33.1009 5.332C33.1756 4.772 33.2503 4.24 33.3249 3.736C33.4183 3.232 33.5209 2.83067 33.6329 2.532C33.7823 2.10267 33.9969 1.73867 34.2769 1.44C34.5569 1.12267 34.9303 0.963997 35.3969 0.963997C35.8636 0.963997 36.1623 1.11333 36.2929 1.412C36.4423 1.71067 36.5169 2.084 36.5169 2.532V3.232C36.2556 5.37867 36.0503 7.49733 35.9009 9.588C35.7703 11.66 35.7049 13.732 35.7049 15.804C35.7049 16.756 35.7516 17.6893 35.8449 18.604C35.9383 19.5 35.9849 20.4427 35.9849 21.432C35.9849 21.7867 35.9289 22.1413 35.8169 22.496C35.7236 22.832 35.4436 23 34.9769 23C34.4916 23 34.1183 22.8693 33.8569 22.608C33.5956 22.328 33.4089 21.9827 33.2969 21.572C33.1849 21.1613 33.0916 20.7693 33.0169 20.396C32.9796 20.116 32.9423 19.976 32.9049 19.976H32.7929C31.8223 21.04 30.8236 21.88 29.7969 22.496C28.7889 23.112 27.6223 23.42 26.2969 23.42H25.0649ZM26.1289 20.564C26.8569 20.564 27.5569 20.368 28.2289 19.976C28.9009 19.584 29.4983 19.0707 30.0209 18.436C30.5623 17.8013 30.9823 17.12 31.2809 16.392C31.5983 15.6453 31.7569 14.936 31.7569 14.264C31.7569 14.096 31.7196 13.844 31.6449 13.508C31.5703 13.172 31.4769 12.8173 31.3649 12.444C31.2529 12.0707 31.1316 11.7627 31.0009 11.52C30.8889 11.2587 30.7863 11.128 30.6929 11.128C29.7969 11.128 28.9476 11.3147 28.1449 11.688C27.3423 12.0427 26.6236 12.528 25.9889 13.144C25.3729 13.76 24.8783 14.46 24.5049 15.244C24.1503 16.028 23.9729 16.8493 23.9729 17.708V18.828C24.1223 19.3693 24.3743 19.7987 24.7289 20.116C25.0836 20.4147 25.5503 20.564 26.1289 20.564ZM43.8085 23.42C42.8752 23.1773 42.0912 22.7667 41.4565 22.188C40.8405 21.5907 40.3738 20.8907 40.0565 20.088C39.7578 19.2853 39.6085 18.4453 39.6085 17.568C39.6085 16.3547 39.8698 15.188 40.3925 14.068C40.9152 12.9293 41.6152 11.9213 42.4925 11.044C43.3885 10.148 44.3965 9.43867 45.5165 8.916C46.6552 8.39333 47.8312 8.132 49.0445 8.132C49.4738 8.132 49.8845 8.19733 50.2765 8.328C50.6872 8.44 51.0978 8.50533 51.5085 8.524L51.6205 8.16C51.6392 7.824 51.6672 7.404 51.7045 6.9C51.7418 6.396 51.7885 5.87333 51.8445 5.332C51.9192 4.772 51.9938 4.24 52.0685 3.736C52.1618 3.232 52.2645 2.83067 52.3765 2.532C52.5258 2.10267 52.7405 1.73867 53.0205 1.44C53.3005 1.12267 53.6738 0.963997 54.1405 0.963997C54.6072 0.963997 54.9058 1.11333 55.0365 1.412C55.1858 1.71067 55.2605 2.084 55.2605 2.532V3.232C54.9992 5.37867 54.7938 7.49733 54.6445 9.588C54.5138 11.66 54.4485 13.732 54.4485 15.804C54.4485 16.756 54.4952 17.6893 54.5885 18.604C54.6818 19.5 54.7285 20.4427 54.7285 21.432C54.7285 21.7867 54.6725 22.1413 54.5605 22.496C54.4672 22.832 54.1872 23 53.7205 23C53.2352 23 52.8618 22.8693 52.6005 22.608C52.3392 22.328 52.1525 21.9827 52.0405 21.572C51.9285 21.1613 51.8352 20.7693 51.7605 20.396C51.7232 20.116 51.6858 19.976 51.6485 19.976H51.5365C50.5658 21.04 49.5672 21.88 48.5405 22.496C47.5325 23.112 46.3658 23.42 45.0405 23.42H43.8085ZM44.8725 20.564C45.6005 20.564 46.3005 20.368 46.9725 19.976C47.6445 19.584 48.2418 19.0707 48.7645 18.436C49.3058 17.8013 49.7258 17.12 50.0245 16.392C50.3418 15.6453 50.5005 14.936 50.5005 14.264C50.5005 14.096 50.4632 13.844 50.3885 13.508C50.3138 13.172 50.2205 12.8173 50.1085 12.444C49.9965 12.0707 49.8752 11.7627 49.7445 11.52C49.6325 11.2587 49.5298 11.128 49.4365 11.128C48.5405 11.128 47.6912 11.3147 46.8885 11.688C46.0858 12.0427 45.3672 12.528 44.7325 13.144C44.1165 13.76 43.6218 14.46 43.2485 15.244C42.8938 16.028 42.7165 16.8493 42.7165 17.708V18.828C42.8658 19.3693 43.1178 19.7987 43.4725 20.116C43.8272 20.4147 44.2938 20.564 44.8725 20.564ZM76.7936 23.28C75.6363 23.28 74.5069 23.0747 73.4056 22.664C72.3043 22.2533 71.4456 21.5347 70.8296 20.508C70.7549 20.3587 70.6429 20.1253 70.4936 19.808C70.3443 19.4907 70.2696 19.248 70.2696 19.08V16.588C70.2696 15.972 70.4749 15.3653 70.8856 14.768C71.2963 14.1707 71.7816 13.62 72.3416 13.116C72.9203 12.5933 73.4336 12.1547 73.8816 11.8C74.0869 11.6507 74.2829 11.5013 74.4696 11.352C74.6749 11.184 74.8709 11.0067 75.0576 10.82C75.1696 10.7453 75.2256 10.6053 75.2256 10.4C75.2256 9.98933 75.1976 9.57867 75.1416 9.168C75.1043 8.73867 75.0856 8.31867 75.0856 7.908C75.0856 7.03067 75.2536 6.16267 75.5896 5.304C75.9256 4.44533 76.4296 3.736 77.1016 3.176C77.7736 2.616 78.5949 2.336 79.5656 2.336C80.6109 2.336 81.4696 2.69067 82.1416 3.4C82.8323 4.09067 83.1776 4.996 83.1776 6.116C83.1776 6.956 83.0096 7.684 82.6736 8.3C82.3376 8.916 81.8989 9.46667 81.3576 9.952C80.8349 10.4373 80.2936 10.9227 79.7336 11.408C79.5656 11.4827 79.4816 11.604 79.4816 11.772C79.4816 11.884 79.5656 12.0987 79.7336 12.416C79.9016 12.7333 80.1163 13.0973 80.3776 13.508C80.6389 13.9187 80.9096 14.32 81.1896 14.712C81.4696 15.0853 81.7216 15.4027 81.9456 15.664C82.1883 15.9067 82.3563 16.028 82.4496 16.028H82.5616L84.0736 12.864C84.2229 12.584 84.4003 12.3973 84.6056 12.304C84.8109 12.192 85.0629 12.136 85.3616 12.136C85.8469 12.136 86.2016 12.2667 86.4256 12.528C86.6496 12.7893 86.7616 13.1347 86.7616 13.564C86.7616 14.124 86.6216 14.6467 86.3416 15.132C86.0803 15.6173 85.8096 16.1027 85.5296 16.588C85.2683 17.0547 85.1376 17.568 85.1376 18.128C85.1376 18.464 85.2776 18.7347 85.5576 18.94C85.8563 19.1453 86.1923 19.3413 86.5656 19.528C86.9576 19.7147 87.2936 19.9573 87.5736 20.256C87.8723 20.536 88.0216 20.928 88.0216 21.432C88.0216 21.7307 87.9936 21.964 87.9376 22.132C87.9003 22.2813 87.7976 22.4773 87.6296 22.72H87.0136C86.5283 22.72 86.0989 22.6267 85.7256 22.44C85.3523 22.2347 84.9976 22.0107 84.6616 21.768C84.3443 21.5067 84.0363 21.2827 83.7376 21.096C83.4576 20.8907 83.1589 20.788 82.8416 20.788H82.6176C81.7216 21.572 80.7976 22.188 79.8456 22.636C78.8936 23.0653 77.8763 23.28 76.7936 23.28ZM78.4456 9.112H78.5576C79.0429 8.70133 79.4816 8.244 79.8736 7.74C80.2656 7.236 80.4616 6.69467 80.4616 6.116C80.4616 5.836 80.3869 5.57467 80.2376 5.332C80.1069 5.07067 79.8829 4.94 79.5656 4.94C79.3043 4.94 79.0616 5.08 78.8376 5.36C78.6136 5.64 78.4269 5.976 78.2776 6.368C78.1469 6.76 78.0816 7.14267 78.0816 7.516C78.0816 7.60933 78.0723 7.78667 78.0536 8.048C78.0536 8.30933 78.0816 8.552 78.1376 8.776C78.1936 9 78.2963 9.112 78.4456 9.112ZM76.5416 20.284C77.2136 20.284 77.8856 20.1347 78.5576 19.836C79.2296 19.5373 79.8083 19.0987 80.2936 18.52C80.1069 18.1467 79.8829 17.82 79.6216 17.54C79.3603 17.26 79.0989 16.952 78.8376 16.616C78.5576 16.1493 78.2403 15.7013 77.8856 15.272C77.5309 14.8427 77.2136 14.3947 76.9336 13.928C76.9149 13.8907 76.8776 13.844 76.8216 13.788C76.7656 13.732 76.7096 13.676 76.6536 13.62C76.3923 13.6573 76.0749 13.844 75.7016 14.18C75.3283 14.4973 74.9549 14.8893 74.5816 15.356C74.2083 15.804 73.8909 16.2427 73.6296 16.672C73.3869 17.1013 73.2656 17.4467 73.2656 17.708C73.2656 18.2867 73.4243 18.772 73.7416 19.164C74.0776 19.5373 74.4976 19.8173 75.0016 20.004C75.5056 20.1907 76.0189 20.284 76.5416 20.284ZM104.213 23.28C103.877 23.28 103.625 23.168 103.457 22.944C103.289 22.72 103.177 22.4587 103.121 22.16C103.065 21.8427 103.009 21.5627 102.953 21.32V19.248C102.953 18.2027 103 17.148 103.093 16.084C103.187 15.0013 103.233 13.9467 103.233 12.92C103.233 12.4347 103.187 11.968 103.093 11.52C103 11.072 102.953 10.6147 102.953 10.148V9.392C103.103 9.112 103.299 8.90667 103.541 8.776C103.803 8.64533 104.073 8.58 104.353 8.58C104.764 8.58 105.072 8.70133 105.277 8.944C105.483 9.168 105.623 9.43867 105.697 9.756C105.791 10.0733 105.875 10.3627 105.949 10.624C106.024 10.8667 106.145 11.0067 106.313 11.044C106.855 10.6893 107.368 10.344 107.853 10.008C108.357 9.672 108.88 9.40133 109.421 9.196C109.981 8.972 110.597 8.86 111.269 8.86C111.605 8.86 111.96 8.93467 112.333 9.084C112.725 9.23333 113.061 9.448 113.341 9.728C113.621 9.98933 113.761 10.316 113.761 10.708C113.761 11.1933 113.565 11.548 113.173 11.772C112.8 11.996 112.445 12.108 112.109 12.108C111.885 12.108 111.671 12.0613 111.465 11.968C111.26 11.8747 111.045 11.828 110.821 11.828C110.168 11.828 109.552 11.996 108.973 12.332C108.413 12.6493 107.919 13.032 107.489 13.48C107.06 13.928 106.715 14.348 106.453 14.74C106.379 14.908 106.323 15.188 106.285 15.58C106.248 15.972 106.22 16.42 106.201 16.924C106.183 17.4093 106.164 17.8853 106.145 18.352C106.145 18.8187 106.136 19.22 106.117 19.556C106.099 20.172 106.033 20.7693 105.921 21.348C105.828 21.908 105.651 22.3747 105.389 22.748C105.128 23.1027 104.736 23.28 104.213 23.28ZM122.085 23.42C120.741 23.42 119.5 23.2147 118.361 22.804C117.241 22.3747 116.336 21.7027 115.645 20.788C114.954 19.8547 114.609 18.6507 114.609 17.176C114.609 16.056 114.786 14.964 115.141 13.9C115.514 12.836 116.046 11.8747 116.737 11.016C117.428 10.1387 118.258 9.448 119.229 8.944C120.2 8.42133 121.292 8.16 122.505 8.16C123.326 8.16 124.092 8.328 124.801 8.664C125.529 8.98133 126.108 9.45733 126.537 10.092C126.985 10.708 127.209 11.464 127.209 12.36C127.209 13.2187 127.032 14.04 126.677 14.824C126.322 15.608 125.837 16.308 125.221 16.924C124.605 17.54 123.905 18.0253 123.121 18.38C122.356 18.716 121.553 18.884 120.713 18.884C120.582 18.884 120.293 18.856 119.845 18.8C119.397 18.7253 119.042 18.6507 118.781 18.576C118.594 18.5387 118.445 18.464 118.333 18.352C118.296 18.3333 118.23 18.3053 118.137 18.268C118.044 18.212 117.978 18.184 117.941 18.184C118.072 18.7253 118.342 19.1827 118.753 19.556C119.182 19.9107 119.668 20.172 120.209 20.34C120.769 20.508 121.301 20.592 121.805 20.592C122.16 20.592 122.514 20.5733 122.869 20.536C123.242 20.48 123.634 20.452 124.045 20.452C124.456 20.452 124.81 20.564 125.109 20.788C125.408 21.012 125.557 21.376 125.557 21.88C125.557 22.2907 125.426 22.608 125.165 22.832C124.922 23.056 124.605 23.2053 124.213 23.28C123.84 23.3547 123.457 23.392 123.065 23.392C122.692 23.4107 122.365 23.42 122.085 23.42ZM120.713 15.636C121.273 15.636 121.824 15.5333 122.365 15.328C122.925 15.104 123.382 14.7773 123.737 14.348C124.11 13.9187 124.297 13.3867 124.297 12.752C124.297 12.2107 124.129 11.7813 123.793 11.464C123.476 11.1467 123.046 10.988 122.505 10.988C122.02 10.988 121.506 11.1187 120.965 11.38C120.424 11.6413 119.91 11.9773 119.425 12.388C118.958 12.7987 118.576 13.2467 118.277 13.732C117.978 14.1987 117.829 14.656 117.829 15.104V15.216C118.314 15.2907 118.8 15.384 119.285 15.496C119.77 15.5893 120.246 15.636 120.713 15.636ZM133.025 22.72C132.614 22.72 132.25 22.5893 131.933 22.328C131.634 22.048 131.485 21.7027 131.485 21.292C131.485 20.676 131.504 20.0787 131.541 19.5C131.597 18.9213 131.625 18.3333 131.625 17.736V15.888C131.625 15.1227 131.597 14.3667 131.541 13.62C131.504 12.8547 131.382 12.0987 131.177 11.352C131.102 11.128 131.037 10.8947 130.981 10.652C130.944 10.3907 130.925 10.1293 130.925 9.868C130.925 9.49467 131.018 9.12133 131.205 8.748C131.392 8.356 131.728 8.16 132.213 8.16C132.605 8.16 132.922 8.30933 133.165 8.608C133.408 8.888 133.594 9.24267 133.725 9.672C133.856 10.0827 133.949 10.5027 134.005 10.932C134.08 11.3427 134.145 11.688 134.201 11.968C134.238 12.2107 134.294 12.472 134.369 12.752C134.444 13.032 134.481 13.3027 134.481 13.564C134.481 13.5827 134.5 13.6387 134.537 13.732C134.574 13.8253 134.612 13.9187 134.649 14.012C134.892 13.5827 135.162 13.116 135.461 12.612C135.778 12.0893 136.124 11.604 136.497 11.156C136.889 10.6893 137.318 10.3067 137.785 10.008C138.27 9.70933 138.802 9.56 139.381 9.56C139.978 9.56 140.426 9.70933 140.725 10.008C141.042 10.288 141.294 10.6427 141.481 11.072C141.668 11.4827 141.854 11.8933 142.041 12.304C142.116 12.4907 142.162 12.6867 142.181 12.892C142.2 13.0787 142.246 13.2747 142.321 13.48L142.629 13.032C143.002 12.5093 143.422 11.94 143.889 11.324C144.374 10.6893 144.916 10.148 145.513 9.7C146.11 9.23333 146.782 9 147.529 9C148.126 9 148.63 9.17733 149.041 9.532C149.47 9.868 149.816 10.3067 150.077 10.848C150.357 11.3893 150.562 11.9493 150.693 12.528C150.824 13.1067 150.889 13.6387 150.889 14.124V20.06C150.889 20.34 150.842 20.648 150.749 20.984C150.674 21.3013 150.534 21.5813 150.329 21.824C150.124 22.048 149.834 22.16 149.461 22.16C149.032 22.16 148.686 22.0107 148.425 21.712C148.164 21.4133 148.033 21.096 148.033 20.76V15.664C148.033 15.608 148.024 15.4867 148.005 15.3C147.986 15.1133 147.958 14.9173 147.921 14.712C147.902 14.5067 147.893 14.3573 147.893 14.264C147.893 14.1147 147.874 13.8813 147.837 13.564C147.8 13.2467 147.725 12.948 147.613 12.668C147.501 12.388 147.333 12.248 147.109 12.248H146.857C146.297 12.7333 145.877 13.2 145.597 13.648C145.317 14.0773 145.102 14.5067 144.953 14.936C144.804 15.3653 144.664 15.8227 144.533 16.308C144.402 16.7747 144.216 17.288 143.973 17.848C143.842 18.3333 143.628 18.7907 143.329 19.22C143.049 19.6307 142.657 19.836 142.153 19.836C141.668 19.836 141.294 19.7053 141.033 19.444C140.79 19.164 140.604 18.828 140.473 18.436C140.361 18.044 140.268 17.6707 140.193 17.316C140.156 17.148 140.09 16.868 139.997 16.476C139.904 16.084 139.801 15.6547 139.689 15.188C139.596 14.7213 139.502 14.2827 139.409 13.872C139.316 13.4427 139.25 13.1253 139.213 12.92C139.101 12.752 138.989 12.668 138.877 12.668C138.709 12.668 138.532 12.7893 138.345 13.032C138.158 13.2747 138.018 13.508 137.925 13.732C137.813 13.9 137.654 14.1987 137.449 14.628C137.244 15.0387 137.048 15.44 136.861 15.832C136.693 16.224 136.581 16.4853 136.525 16.616C136.488 16.728 136.376 16.9987 136.189 17.428C136.021 17.8573 135.825 18.352 135.601 18.912C135.377 19.4533 135.172 19.948 134.985 20.396C134.798 20.844 134.677 21.1427 134.621 21.292C134.434 21.6467 134.238 21.9733 134.033 22.272C133.846 22.5707 133.51 22.72 133.025 22.72ZM162.146 23C160.802 23 159.551 22.7107 158.394 22.132C157.237 21.5533 156.303 20.732 155.594 19.668C154.885 18.604 154.53 17.3627 154.53 15.944C154.53 14.9733 154.726 14.0773 155.118 13.256C155.529 12.416 156.042 11.632 156.658 10.904C157.293 10.176 157.927 9.49467 158.562 8.86C158.898 8.524 159.299 8.28133 159.766 8.132C160.233 7.964 160.709 7.88 161.194 7.88C162.407 7.88 163.574 8.01067 164.694 8.272C165.814 8.53333 166.813 8.96267 167.69 9.56C168.586 10.1387 169.295 10.9133 169.818 11.884C170.341 12.836 170.602 14.0027 170.602 15.384C170.602 16.5227 170.359 17.5587 169.874 18.492C169.389 19.4253 168.735 20.228 167.914 20.9C167.111 21.572 166.206 22.0947 165.198 22.468C164.209 22.8227 163.191 23 162.146 23ZM161.586 19.892C162.613 19.892 163.583 19.7147 164.498 19.36C165.413 18.9867 166.159 18.436 166.738 17.708C167.335 16.9613 167.634 16.0467 167.634 14.964C167.634 14.012 167.354 13.2187 166.794 12.584C166.253 11.9493 165.562 11.4827 164.722 11.184C163.882 10.8667 163.023 10.708 162.146 10.708C161.698 10.708 161.334 10.7733 161.054 10.904C160.774 11.0347 160.522 11.212 160.298 11.436C160.074 11.66 159.813 11.9213 159.514 12.22C158.991 12.7613 158.525 13.3587 158.114 14.012C157.703 14.6467 157.498 15.3747 157.498 16.196C157.498 17.5027 157.89 18.4453 158.674 19.024C159.458 19.6027 160.429 19.892 161.586 19.892ZM180.31 22.16C179.62 22.16 179.022 21.9733 178.518 21.6C178.014 21.208 177.576 20.7133 177.202 20.116C176.848 19.5187 176.54 18.8933 176.278 18.24C176.017 17.5867 175.784 16.9987 175.578 16.476C175.224 15.5987 174.878 14.656 174.542 13.648C174.225 12.64 174.066 11.6507 174.066 10.68C174.066 10.5493 174.057 10.4093 174.038 10.26C174.038 10.1107 174.038 9.96133 174.038 9.812C174.038 9.40133 174.104 9.028 174.234 8.692C174.365 8.33733 174.692 8.16 175.214 8.16C175.644 8.16 175.98 8.3 176.222 8.58C176.484 8.86 176.68 9.196 176.81 9.588C176.96 9.98 177.081 10.3347 177.174 10.652C177.212 10.932 177.268 11.2587 177.342 11.632C177.436 12.0053 177.52 12.3693 177.594 12.724C177.688 13.06 177.734 13.34 177.734 13.564C177.734 13.7507 177.772 13.9373 177.846 14.124C177.94 14.3107 177.986 14.4973 177.986 14.684C177.986 14.74 178.042 14.9173 178.154 15.216C178.266 15.496 178.397 15.8227 178.546 16.196C178.696 16.5507 178.826 16.8773 178.938 17.176C179.069 17.4747 179.153 17.6707 179.19 17.764C179.34 18.0627 179.48 18.3333 179.61 18.576C179.76 18.8 179.9 18.912 180.03 18.912C180.217 18.912 180.385 18.8093 180.534 18.604C180.702 18.38 180.842 18.1373 180.954 17.876C181.085 17.6147 181.178 17.4187 181.234 17.288L183.866 10.792C184.072 10.4187 184.305 10.1013 184.566 9.84C184.846 9.56 185.22 9.42 185.686 9.42C186.134 9.42 186.461 9.63467 186.666 10.064V10.96C186.666 11.576 186.601 12.192 186.47 12.808C186.34 13.424 186.134 14.012 185.854 14.572L183.11 20.088C182.83 20.6293 182.448 21.1147 181.962 21.544C181.477 21.9547 180.926 22.16 180.31 22.16ZM197.005 23.42C195.661 23.42 194.419 23.2147 193.281 22.804C192.161 22.3747 191.255 21.7027 190.565 20.788C189.874 19.8547 189.529 18.6507 189.529 17.176C189.529 16.056 189.706 14.964 190.061 13.9C190.434 12.836 190.966 11.8747 191.657 11.016C192.347 10.1387 193.178 9.448 194.149 8.944C195.119 8.42133 196.211 8.16 197.425 8.16C198.246 8.16 199.011 8.328 199.721 8.664C200.449 8.98133 201.027 9.45733 201.457 10.092C201.905 10.708 202.129 11.464 202.129 12.36C202.129 13.2187 201.951 14.04 201.597 14.824C201.242 15.608 200.757 16.308 200.141 16.924C199.525 17.54 198.825 18.0253 198.041 18.38C197.275 18.716 196.473 18.884 195.633 18.884C195.502 18.884 195.213 18.856 194.765 18.8C194.317 18.7253 193.962 18.6507 193.701 18.576C193.514 18.5387 193.365 18.464 193.253 18.352C193.215 18.3333 193.15 18.3053 193.057 18.268C192.963 18.212 192.898 18.184 192.861 18.184C192.991 18.7253 193.262 19.1827 193.673 19.556C194.102 19.9107 194.587 20.172 195.129 20.34C195.689 20.508 196.221 20.592 196.725 20.592C197.079 20.592 197.434 20.5733 197.789 20.536C198.162 20.48 198.554 20.452 198.965 20.452C199.375 20.452 199.73 20.564 200.029 20.788C200.327 21.012 200.477 21.376 200.477 21.88C200.477 22.2907 200.346 22.608 200.085 22.832C199.842 23.056 199.525 23.2053 199.133 23.28C198.759 23.3547 198.377 23.392 197.985 23.392C197.611 23.4107 197.285 23.42 197.005 23.42ZM195.633 15.636C196.193 15.636 196.743 15.5333 197.285 15.328C197.845 15.104 198.302 14.7773 198.657 14.348C199.03 13.9187 199.217 13.3867 199.217 12.752C199.217 12.2107 199.049 11.7813 198.713 11.464C198.395 11.1467 197.966 10.988 197.425 10.988C196.939 10.988 196.426 11.1187 195.885 11.38C195.343 11.6413 194.83 11.9773 194.345 12.388C193.878 12.7987 193.495 13.2467 193.197 13.732C192.898 14.1987 192.749 14.656 192.749 15.104V15.216C193.234 15.2907 193.719 15.384 194.205 15.496C194.69 15.5893 195.166 15.636 195.633 15.636ZM37.4826 58.28C36.6239 58.28 35.8213 58.084 35.0746 57.692C34.3279 57.3 33.7026 56.7773 33.1986 56.124C32.6946 55.452 32.3679 54.696 32.2186 53.856V52.428C32.2186 51.3827 32.4053 50.328 32.7786 49.264C33.1519 48.2 33.6839 47.22 34.3746 46.324C35.0653 45.4093 35.8866 44.6813 36.8386 44.14C37.7906 43.58 38.8359 43.3 39.9746 43.3C40.4413 43.3 40.8426 43.384 41.1786 43.552C41.5333 43.72 41.8506 43.8973 42.1306 44.084C42.4293 44.252 42.7186 44.3547 42.9986 44.392C43.1479 43.6267 43.3533 43.1227 43.6146 42.88C43.8759 42.6187 44.2306 42.488 44.6786 42.488C45.2199 42.488 45.5839 42.6653 45.7706 43.02C45.9759 43.356 46.0786 43.7853 46.0786 44.308C46.0786 45.3347 46.0506 46.3427 45.9946 47.332C45.9573 48.3213 45.9386 49.3387 45.9386 50.384C45.9386 51.2053 45.9853 52.0547 46.0786 52.932C46.1719 53.8093 46.2186 54.6587 46.2186 55.48V56.068C46.2186 56.4787 46.1346 56.8613 45.9666 57.216C45.8173 57.552 45.4719 57.72 44.9306 57.72C44.4266 57.72 44.0626 57.5707 43.8386 57.272C43.6333 56.9547 43.4933 56.5813 43.4186 56.152C43.3626 55.704 43.3066 55.3027 43.2506 54.948L43.1386 54.836C42.5039 55.4707 41.9346 56.0493 41.4306 56.572C40.9453 57.0947 40.4039 57.5147 39.8066 57.832C39.2093 58.1307 38.4346 58.28 37.4826 58.28ZM37.2026 55.452C37.8559 55.452 38.4719 55.256 39.0506 54.864C39.6479 54.4533 40.1799 53.9307 40.6466 53.296C41.1133 52.6427 41.4773 51.9613 41.7386 51.252C41.9999 50.5427 42.1306 49.88 42.1306 49.264C42.1306 48.7973 42.0653 48.3307 41.9346 47.864C41.8039 47.3787 41.5799 46.968 41.2626 46.632C40.9639 46.296 40.5346 46.128 39.9746 46.128C39.3586 46.128 38.7519 46.3427 38.1546 46.772C37.5759 47.2013 37.0533 47.752 36.5866 48.424C36.1199 49.0773 35.7466 49.768 35.4666 50.496C35.1866 51.2053 35.0466 51.8493 35.0466 52.428C35.0466 52.8947 35.1119 53.3613 35.2426 53.828C35.3919 54.2947 35.6253 54.6867 35.9426 55.004C36.2599 55.3027 36.6799 55.452 37.2026 55.452ZM52.0531 57.44C51.5864 57.44 51.2411 57.3093 51.0171 57.048C50.7931 56.768 50.6531 56.432 50.5971 56.04C50.5411 55.6293 50.5131 55.2373 50.5131 54.864C50.5131 54.0053 50.5318 53.1467 50.5691 52.288C50.6251 51.4293 50.6531 50.608 50.6531 49.824C50.6531 48.984 50.5598 48.1813 50.3731 47.416C50.1864 46.6507 50.0931 45.8853 50.0931 45.12V44.028C50.2611 43.636 50.4384 43.3747 50.6251 43.244C50.8118 43.0947 51.0638 43.02 51.3811 43.02C51.9598 43.02 52.3798 43.2067 52.6411 43.58C52.9024 43.9347 53.0704 44.364 53.1451 44.868C53.2384 45.3533 53.3038 45.8013 53.3411 46.212C53.3598 46.4173 53.3971 46.8187 53.4531 47.416C53.5278 48.0133 53.5744 48.5733 53.5931 49.096H53.7051L53.8171 48.984C54.1718 48.4613 54.5451 47.9013 54.9371 47.304C55.3291 46.7067 55.7584 46.1467 56.2251 45.624C56.7104 45.1013 57.2424 44.6813 57.8211 44.364C58.3998 44.028 59.0531 43.86 59.7811 43.86C60.7144 43.86 61.5078 44.1307 62.1611 44.672C62.8144 45.1947 63.3651 45.8853 63.8131 46.744C64.2611 47.584 64.6251 48.4987 64.9051 49.488C65.1851 50.4773 65.4091 51.4387 65.5771 52.372C65.7451 53.3053 65.8944 54.108 66.0251 54.78V55.48C66.0251 55.8907 65.9131 56.3013 65.6891 56.712C65.4651 57.104 65.1104 57.3 64.6251 57.3C64.1211 57.3 63.7478 57.1693 63.5051 56.908C63.2811 56.6467 63.1318 56.3107 63.0571 55.9C63.0198 55.732 62.9731 55.4613 62.9171 55.088C62.8611 54.696 62.7958 54.276 62.7211 53.828C62.6464 53.3613 62.5811 52.932 62.5251 52.54C62.4691 52.1293 62.4224 51.8307 62.3851 51.644C62.3291 51.2707 62.1984 50.832 61.9931 50.328C61.8064 49.8053 61.6291 49.3573 61.4611 48.984C61.2931 48.592 61.0784 48.1813 60.8171 47.752C60.5558 47.3227 60.1731 47.108 59.6691 47.108C59.2211 47.108 58.8104 47.2667 58.4371 47.584C58.0824 47.9013 57.7651 48.2747 57.4851 48.704C57.2238 49.1333 56.9904 49.516 56.7851 49.852C56.3184 50.5987 55.8984 51.3453 55.5251 52.092C55.1518 52.8387 54.7504 53.6507 54.3211 54.528C54.1531 54.8827 53.9944 55.2933 53.8451 55.76C53.6958 56.208 53.4904 56.6 53.2291 56.936C52.9678 57.272 52.5758 57.44 52.0531 57.44ZM73.5803 65.336C73.2443 65.336 72.9923 65.168 72.8243 64.832C72.6563 64.5147 72.5723 64.1973 72.5723 63.88C72.5723 63.2827 72.703 62.7133 72.9643 62.172C73.2256 61.6493 73.459 61.1173 73.6643 60.576C73.7576 60.3333 73.8696 60.016 74.0003 59.624C74.1496 59.2507 74.2896 58.868 74.4203 58.476C74.5696 58.084 74.691 57.748 74.7843 57.468C74.8776 57.188 74.9243 57.0293 74.9243 56.992V56.908C73.8976 56.8333 73.039 56.5627 72.3483 56.096C71.6576 55.6293 71.107 55.0413 70.6963 54.332C70.2856 53.6227 69.9776 52.848 69.7723 52.008C69.567 51.1493 69.427 50.2813 69.3523 49.404C69.2963 48.5267 69.2683 47.7053 69.2683 46.94C69.2683 46.6973 69.2776 46.38 69.2963 45.988C69.315 45.5773 69.3616 45.1667 69.4363 44.756C69.5296 44.3453 69.6696 44 69.8563 43.72C70.0616 43.44 70.3416 43.3 70.6963 43.3C71.387 43.3 71.835 43.552 72.0403 44.056C72.2643 44.56 72.3763 45.1107 72.3763 45.708C72.3763 46.1187 72.3483 46.5013 72.2923 46.856C72.255 47.2107 72.2363 47.6027 72.2363 48.032V48.312C72.2363 48.4427 72.2643 48.7227 72.3203 49.152C72.3763 49.5813 72.4323 50.02 72.4883 50.468C72.563 50.916 72.619 51.252 72.6563 51.476C72.7496 52.092 72.9363 52.6333 73.2163 53.1C73.4963 53.548 73.8883 53.772 74.3923 53.772C74.9896 53.772 75.5123 53.5387 75.9603 53.072C76.427 52.6053 76.8376 51.9987 77.1923 51.252C77.5656 50.5053 77.9203 49.7213 78.2563 48.9C78.5923 48.06 78.9283 47.2667 79.2643 46.52C79.6003 45.7733 79.9643 45.1667 80.3563 44.7C80.767 44.2333 81.2243 44 81.7283 44C82.5683 44 82.9883 44.4667 82.9883 45.4C82.9883 46.0347 82.8856 46.6413 82.6803 47.22C82.4936 47.7987 82.251 48.3587 81.9523 48.9C81.6723 49.4413 81.3736 49.9733 81.0563 50.496C80.739 51.0187 80.459 51.5507 80.2163 52.092C79.4696 53.6787 78.779 55.312 78.1443 56.992C77.5283 58.6533 76.931 60.324 76.3523 62.004C76.203 62.4333 76.0163 62.9093 75.7923 63.432C75.5683 63.9547 75.279 64.4027 74.9243 64.776C74.5883 65.1493 74.1403 65.336 73.5803 65.336ZM100.761 40.752C100.201 40.752 99.7153 40.5747 99.3046 40.22C98.894 39.8653 98.6886 39.3427 98.6886 38.652C98.6886 37.9613 98.9313 37.476 99.4166 37.196C99.902 36.916 100.397 36.776 100.901 36.776C101.479 36.776 101.965 36.9533 102.357 37.308C102.767 37.6627 102.973 38.1947 102.973 38.904C102.973 39.576 102.73 40.052 102.245 40.332C101.778 40.612 101.283 40.752 100.761 40.752ZM99.6406 57.58C99.286 57.58 99.0153 57.3933 98.8286 57.02C98.642 56.6467 98.502 56.2733 98.4086 55.9V52.288C98.4086 52.1947 98.4273 51.952 98.4646 51.56C98.5206 51.1493 98.5766 50.6733 98.6326 50.132C98.7073 49.572 98.7726 49.04 98.8286 48.536C98.9033 48.0133 98.9593 47.6027 98.9966 47.304C99.0526 46.9307 99.118 46.52 99.1926 46.072C99.286 45.624 99.4446 45.232 99.6686 44.896C99.8926 44.56 100.21 44.392 100.621 44.392C101.069 44.392 101.386 44.504 101.573 44.728C101.778 44.9333 101.899 45.1947 101.937 45.512C101.974 45.8293 101.993 46.156 101.993 46.492V47.472C101.993 47.5093 101.983 47.5933 101.965 47.724C101.946 47.836 101.918 47.9667 101.881 48.116C101.75 48.7693 101.647 49.2547 101.573 49.572C101.517 49.8707 101.47 50.132 101.433 50.356C101.414 50.5613 101.405 50.8507 101.405 51.224C101.405 51.448 101.405 51.728 101.405 52.064C101.423 52.4 101.433 52.8387 101.433 53.38C101.433 53.6227 101.442 53.8653 101.461 54.108C101.479 54.332 101.489 54.5747 101.489 54.836C101.489 55.116 101.461 55.4147 101.405 55.732C101.33 56.1987 101.162 56.628 100.901 57.02C100.639 57.3933 100.219 57.58 99.6406 57.58ZM110.273 58.56C109.694 58.56 109.265 58.3827 108.985 58.028C108.705 57.6733 108.518 57.244 108.425 56.74C108.35 56.2173 108.313 55.7413 108.313 55.312V54.248C108.313 53.072 108.331 51.8867 108.369 50.692C108.425 49.4973 108.462 48.2093 108.481 46.828C108.014 46.8467 107.613 46.8747 107.277 46.912C106.959 46.9493 106.633 46.968 106.297 46.968C105.438 46.968 105.009 46.548 105.009 45.708C105.009 45.3907 105.065 45.092 105.177 44.812C105.289 44.5133 105.522 44.3267 105.877 44.252L108.341 43.692C108.658 43.6173 108.863 43.4213 108.957 43.104C109.069 42.768 109.125 42.3853 109.125 41.956C109.143 41.508 109.171 41.0693 109.209 40.64C109.265 40.2107 109.405 39.856 109.629 39.576C109.871 39.296 110.273 39.156 110.833 39.156C111.225 39.156 111.514 39.268 111.701 39.492C111.906 39.6973 112.046 39.9493 112.121 40.248C112.195 40.5467 112.233 40.836 112.233 41.116C112.233 41.1533 112.223 41.284 112.205 41.508C112.186 41.7133 112.158 41.9187 112.121 42.124C112.102 42.3293 112.093 42.46 112.093 42.516V43.412H115.509C115.919 43.412 116.237 43.608 116.461 44C116.685 44.3733 116.797 44.756 116.797 45.148C116.797 45.2227 116.769 45.3627 116.713 45.568C116.657 45.7733 116.554 45.9693 116.405 46.156C116.255 46.324 116.05 46.408 115.789 46.408H112.205C112.186 46.408 112.149 46.4267 112.093 46.464C112.037 46.4827 111.971 46.5387 111.897 46.632L111.841 46.716C111.747 47.22 111.682 47.6307 111.645 47.948C111.607 48.2467 111.579 48.5267 111.561 48.788C111.561 49.0307 111.561 49.3293 111.561 49.684C111.561 50.7107 111.579 51.7373 111.617 52.764C111.673 53.7907 111.701 54.8733 111.701 56.012C111.701 56.3853 111.673 56.768 111.617 57.16C111.561 57.552 111.43 57.8787 111.225 58.14C111.019 58.42 110.702 58.56 110.273 58.56ZM127.055 58.42C125.711 58.42 124.469 58.2147 123.331 57.804C122.211 57.3747 121.305 56.7027 120.615 55.788C119.924 54.8547 119.579 53.6507 119.579 52.176C119.579 51.056 119.756 49.964 120.111 48.9C120.484 47.836 121.016 46.8747 121.707 46.016C122.397 45.1387 123.228 44.448 124.199 43.944C125.169 43.4213 126.261 43.16 127.475 43.16C128.296 43.16 129.061 43.328 129.771 43.664C130.499 43.9813 131.077 44.4573 131.507 45.092C131.955 45.708 132.179 46.464 132.179 47.36C132.179 48.2187 132.001 49.04 131.647 49.824C131.292 50.608 130.807 51.308 130.191 51.924C129.575 52.54 128.875 53.0253 128.091 53.38C127.325 53.716 126.523 53.884 125.683 53.884C125.552 53.884 125.263 53.856 124.815 53.8C124.367 53.7253 124.012 53.6507 123.751 53.576C123.564 53.5387 123.415 53.464 123.303 53.352C123.265 53.3333 123.2 53.3053 123.107 53.268C123.013 53.212 122.948 53.184 122.911 53.184C123.041 53.7253 123.312 54.1827 123.723 54.556C124.152 54.9107 124.637 55.172 125.179 55.34C125.739 55.508 126.271 55.592 126.775 55.592C127.129 55.592 127.484 55.5733 127.839 55.536C128.212 55.48 128.604 55.452 129.015 55.452C129.425 55.452 129.78 55.564 130.079 55.788C130.377 56.012 130.527 56.376 130.527 56.88C130.527 57.2907 130.396 57.608 130.135 57.832C129.892 58.056 129.575 58.2053 129.183 58.28C128.809 58.3547 128.427 58.392 128.035 58.392C127.661 58.4107 127.335 58.42 127.055 58.42ZM125.683 50.636C126.243 50.636 126.793 50.5333 127.335 50.328C127.895 50.104 128.352 49.7773 128.707 49.348C129.08 48.9187 129.267 48.3867 129.267 47.752C129.267 47.2107 129.099 46.7813 128.763 46.464C128.445 46.1467 128.016 45.988 127.475 45.988C126.989 45.988 126.476 46.1187 125.935 46.38C125.393 46.6413 124.88 46.9773 124.395 47.388C123.928 47.7987 123.545 48.2467 123.247 48.732C122.948 49.1987 122.799 49.656 122.799 50.104V50.216C123.284 50.2907 123.769 50.384 124.255 50.496C124.74 50.5893 125.216 50.636 125.683 50.636ZM137.994 57.72C137.584 57.72 137.22 57.5893 136.902 57.328C136.604 57.048 136.454 56.7027 136.454 56.292C136.454 55.676 136.473 55.0787 136.51 54.5C136.566 53.9213 136.594 53.3333 136.594 52.736V50.888C136.594 50.1227 136.566 49.3667 136.51 48.62C136.473 47.8547 136.352 47.0987 136.146 46.352C136.072 46.128 136.006 45.8947 135.95 45.652C135.913 45.3907 135.894 45.1293 135.894 44.868C135.894 44.4947 135.988 44.1213 136.174 43.748C136.361 43.356 136.697 43.16 137.182 43.16C137.574 43.16 137.892 43.3093 138.134 43.608C138.377 43.888 138.564 44.2427 138.694 44.672C138.825 45.0827 138.918 45.5027 138.974 45.932C139.049 46.3427 139.114 46.688 139.17 46.968C139.208 47.2107 139.264 47.472 139.338 47.752C139.413 48.032 139.45 48.3027 139.45 48.564C139.45 48.5827 139.469 48.6387 139.506 48.732C139.544 48.8253 139.581 48.9187 139.618 49.012C139.861 48.5827 140.132 48.116 140.43 47.612C140.748 47.0893 141.093 46.604 141.466 46.156C141.858 45.6893 142.288 45.3067 142.754 45.008C143.24 44.7093 143.772 44.56 144.35 44.56C144.948 44.56 145.396 44.7093 145.694 45.008C146.012 45.288 146.264 45.6427 146.45 46.072C146.637 46.4827 146.824 46.8933 147.01 47.304C147.085 47.4907 147.132 47.6867 147.15 47.892C147.169 48.0787 147.216 48.2747 147.29 48.48L147.598 48.032C147.972 47.5093 148.392 46.94 148.858 46.324C149.344 45.6893 149.885 45.148 150.482 44.7C151.08 44.2333 151.752 44 152.498 44C153.096 44 153.6 44.1773 154.01 44.532C154.44 44.868 154.785 45.3067 155.046 45.848C155.326 46.3893 155.532 46.9493 155.662 47.528C155.793 48.1067 155.858 48.6387 155.858 49.124V55.06C155.858 55.34 155.812 55.648 155.718 55.984C155.644 56.3013 155.504 56.5813 155.298 56.824C155.093 57.048 154.804 57.16 154.43 57.16C154.001 57.16 153.656 57.0107 153.394 56.712C153.133 56.4133 153.002 56.096 153.002 55.76V50.664C153.002 50.608 152.993 50.4867 152.974 50.3C152.956 50.1133 152.928 49.9173 152.89 49.712C152.872 49.5067 152.862 49.3573 152.862 49.264C152.862 49.1147 152.844 48.8813 152.806 48.564C152.769 48.2467 152.694 47.948 152.582 47.668C152.47 47.388 152.302 47.248 152.078 47.248H151.826C151.266 47.7333 150.846 48.2 150.566 48.648C150.286 49.0773 150.072 49.5067 149.922 49.936C149.773 50.3653 149.633 50.8227 149.502 51.308C149.372 51.7747 149.185 52.288 148.942 52.848C148.812 53.3333 148.597 53.7907 148.298 54.22C148.018 54.6307 147.626 54.836 147.122 54.836C146.637 54.836 146.264 54.7053 146.002 54.444C145.76 54.164 145.573 53.828 145.442 53.436C145.33 53.044 145.237 52.6707 145.162 52.316C145.125 52.148 145.06 51.868 144.966 51.476C144.873 51.084 144.77 50.6547 144.658 50.188C144.565 49.7213 144.472 49.2827 144.378 48.872C144.285 48.4427 144.22 48.1253 144.182 47.92C144.07 47.752 143.958 47.668 143.846 47.668C143.678 47.668 143.501 47.7893 143.314 48.032C143.128 48.2747 142.988 48.508 142.894 48.732C142.782 48.9 142.624 49.1987 142.418 49.628C142.213 50.0387 142.017 50.44 141.83 50.832C141.662 51.224 141.55 51.4853 141.494 51.616C141.457 51.728 141.345 51.9987 141.158 52.428C140.99 52.8573 140.794 53.352 140.57 53.912C140.346 54.4533 140.141 54.948 139.954 55.396C139.768 55.844 139.646 56.1427 139.59 56.292C139.404 56.6467 139.208 56.9733 139.002 57.272C138.816 57.5707 138.48 57.72 137.994 57.72ZM165.071 58.42C164.549 58.42 163.951 58.3733 163.279 58.28C162.607 58.2053 161.954 58.056 161.319 57.832C160.685 57.608 160.153 57.272 159.723 56.824C159.313 56.376 159.107 55.788 159.107 55.06C159.107 54.5747 159.229 54.1547 159.471 53.8C159.714 53.4267 160.106 53.24 160.647 53.24C160.983 53.24 161.245 53.324 161.431 53.492C161.618 53.66 161.777 53.8653 161.907 54.108C162.057 54.3507 162.225 54.6027 162.411 54.864C162.617 55.1067 162.887 55.312 163.223 55.48C163.578 55.648 164.054 55.732 164.651 55.732C165.081 55.732 165.547 55.6853 166.051 55.592C166.574 55.48 167.022 55.284 167.395 55.004C167.769 54.724 167.955 54.3413 167.955 53.856C167.955 53.4267 167.778 53.0907 167.423 52.848C167.069 52.5867 166.611 52.3627 166.051 52.176C165.491 51.9893 164.903 51.8027 164.287 51.616C163.671 51.4107 163.083 51.1587 162.523 50.86C161.963 50.5613 161.506 50.1693 161.151 49.684C160.797 49.18 160.619 48.536 160.619 47.752C160.619 47.024 160.797 46.3987 161.151 45.876C161.506 45.3533 161.963 44.924 162.523 44.588C163.102 44.2333 163.718 43.9813 164.371 43.832C165.043 43.664 165.687 43.58 166.303 43.58C166.658 43.58 167.069 43.6267 167.535 43.72C168.002 43.7947 168.459 43.9253 168.907 44.112C169.355 44.2987 169.729 44.56 170.027 44.896C170.326 45.2133 170.475 45.6147 170.475 46.1C170.475 46.9587 170.046 47.388 169.187 47.388H168.823C168.263 47.0707 167.787 46.828 167.395 46.66C167.003 46.492 166.555 46.408 166.051 46.408C165.827 46.408 165.51 46.436 165.099 46.492C164.707 46.5293 164.353 46.632 164.035 46.8C163.718 46.968 163.559 47.2387 163.559 47.612C163.559 47.9293 163.737 48.1907 164.091 48.396C164.446 48.6013 164.903 48.7973 165.463 48.984C166.023 49.1707 166.611 49.376 167.227 49.6C167.843 49.824 168.431 50.1133 168.991 50.468C169.551 50.804 170.009 51.2333 170.363 51.756C170.718 52.2787 170.895 52.932 170.895 53.716C170.895 54.8547 170.606 55.7693 170.027 56.46C169.467 57.1507 168.739 57.6547 167.843 57.972C166.966 58.2707 166.042 58.42 165.071 58.42Z" fill="#5FC627"/>
</svg>
