<svg width="236" height="59" viewBox="0 0 236 59" fill="none" xmlns="http://www.w3.org/2000/svg">
<path d="M21.6327 22.86C21.2221 22.86 20.9047 22.776 20.6807 22.608C20.4754 22.44 20.3727 22.0947 20.3727 21.572C20.3727 21.0867 20.4567 20.7507 20.6247 20.564C20.8114 20.3587 21.0261 20.2093 21.2687 20.116C21.5114 20.0227 21.7167 19.9013 21.8847 19.752C22.0714 19.6027 22.1647 19.332 22.1647 18.94C22.1647 18.604 22.1367 18.268 22.0807 17.932C22.0434 17.596 22.0247 17.2973 22.0247 17.036V16.476C22.0247 16.2333 22.0341 15.8413 22.0527 15.3C22.0901 14.7587 22.1274 14.1707 22.1647 13.536C22.2021 12.8827 22.2301 12.2667 22.2487 11.688C22.2861 11.1093 22.3047 10.6707 22.3047 10.372C22.4541 9.88667 22.5381 9.504 22.5567 9.224C22.5754 8.944 22.5847 8.552 22.5847 8.048V7.404C22.3981 7.19867 22.1834 7.03067 21.9407 6.9C21.7167 6.75067 21.5114 6.58267 21.3247 6.396C21.1567 6.19067 21.0727 5.91067 21.0727 5.556C21.0727 5.18267 21.1754 4.90267 21.3807 4.716C21.6047 4.52933 21.8661 4.436 22.1647 4.436C22.4447 4.436 22.6967 4.464 22.9207 4.52C23.1447 4.55733 23.3594 4.576 23.5647 4.576H23.8447C24.3487 4.576 24.8527 4.51067 25.3567 4.38C25.8794 4.23067 26.3927 4.156 26.8967 4.156H27.0367C27.4101 4.156 27.7087 4.25867 27.9327 4.464C28.1567 4.66933 28.2687 4.98667 28.2687 5.416C28.2687 5.90133 28.1754 6.228 27.9887 6.396C27.8021 6.564 27.5874 6.68533 27.3447 6.76C27.0647 6.83467 26.8034 6.9 26.5607 6.956C26.3367 7.012 26.1221 7.17067 25.9167 7.432C25.3567 10.4747 25.0767 13.5267 25.0767 16.588C25.0767 17.0733 25.0767 17.4747 25.0767 17.792C25.0954 18.1093 25.1421 18.576 25.2167 19.192C25.2727 19.3227 25.4221 19.416 25.6647 19.472C25.9074 19.5093 26.1781 19.556 26.4767 19.612C26.7754 19.668 27.0274 19.7893 27.2327 19.976C27.4567 20.1627 27.5687 20.4707 27.5687 20.9C27.5687 21.3107 27.4287 21.6187 27.1487 21.824C26.8874 22.0293 26.5514 22.1693 26.1407 22.244C25.7487 22.3187 25.3474 22.3653 24.9367 22.384C24.5447 22.4027 24.2181 22.44 23.9567 22.496C23.6767 22.552 23.3781 22.6267 23.0607 22.72C22.7434 22.8133 22.4447 22.86 22.1647 22.86H21.6327ZM36.5775 23.56C35.9988 23.56 35.5695 23.3827 35.2895 23.028C35.0095 22.6733 34.8228 22.244 34.7295 21.74C34.6548 21.2173 34.6175 20.7413 34.6175 20.312V19.248C34.6175 18.072 34.6362 16.8867 34.6735 15.692C34.7295 14.4973 34.7668 13.2093 34.7855 11.828C34.3188 11.8467 33.9175 11.8747 33.5815 11.912C33.2642 11.9493 32.9375 11.968 32.6015 11.968C31.7428 11.968 31.3135 11.548 31.3135 10.708C31.3135 10.3907 31.3695 10.092 31.4815 9.812C31.5935 9.51333 31.8268 9.32667 32.1815 9.252L34.6455 8.692C34.9628 8.61733 35.1682 8.42133 35.2615 8.104C35.3735 7.768 35.4295 7.38533 35.4295 6.956C35.4482 6.508 35.4762 6.06933 35.5135 5.64C35.5695 5.21067 35.7095 4.856 35.9335 4.576C36.1762 4.296 36.5775 4.156 37.1375 4.156C37.5295 4.156 37.8188 4.268 38.0055 4.492C38.2108 4.69733 38.3508 4.94933 38.4255 5.248C38.5002 5.54667 38.5375 5.836 38.5375 6.116C38.5375 6.15333 38.5282 6.284 38.5095 6.508C38.4908 6.71333 38.4628 6.91867 38.4255 7.124C38.4068 7.32933 38.3975 7.46 38.3975 7.516V8.412H41.8135C42.2242 8.412 42.5415 8.608 42.7655 9C42.9895 9.37333 43.1015 9.756 43.1015 10.148C43.1015 10.2227 43.0735 10.3627 43.0175 10.568C42.9615 10.7733 42.8588 10.9693 42.7095 11.156C42.5602 11.324 42.3548 11.408 42.0935 11.408H38.5095C38.4908 11.408 38.4535 11.4267 38.3975 11.464C38.3415 11.4827 38.2762 11.5387 38.2015 11.632L38.1455 11.716C38.0522 12.22 37.9868 12.6307 37.9495 12.948C37.9122 13.2467 37.8842 13.5267 37.8655 13.788C37.8655 14.0307 37.8655 14.3293 37.8655 14.684C37.8655 15.7107 37.8842 16.7373 37.9215 17.764C37.9775 18.7907 38.0055 19.8733 38.0055 21.012C38.0055 21.3853 37.9775 21.768 37.9215 22.16C37.8655 22.552 37.7348 22.8787 37.5295 23.14C37.3242 23.42 37.0068 23.56 36.5775 23.56ZM53.3594 23.42C52.0154 23.42 50.774 23.2147 49.6354 22.804C48.5154 22.3747 47.61 21.7027 46.9194 20.788C46.2287 19.8547 45.8834 18.6507 45.8834 17.176C45.8834 16.056 46.0607 14.964 46.4154 13.9C46.7887 12.836 47.3207 11.8747 48.0114 11.016C48.702 10.1387 49.5327 9.448 50.5034 8.944C51.474 8.42133 52.566 8.16 53.7794 8.16C54.6007 8.16 55.366 8.328 56.0754 8.664C56.8034 8.98133 57.382 9.45733 57.8114 10.092C58.2594 10.708 58.4834 11.464 58.4834 12.36C58.4834 13.2187 58.306 14.04 57.9514 14.824C57.5967 15.608 57.1114 16.308 56.4954 16.924C55.8794 17.54 55.1794 18.0253 54.3954 18.38C53.63 18.716 52.8274 18.884 51.9874 18.884C51.8567 18.884 51.5674 18.856 51.1194 18.8C50.6714 18.7253 50.3167 18.6507 50.0554 18.576C49.8687 18.5387 49.7194 18.464 49.6074 18.352C49.57 18.3333 49.5047 18.3053 49.4114 18.268C49.318 18.212 49.2527 18.184 49.2154 18.184C49.346 18.7253 49.6167 19.1827 50.0274 19.556C50.4567 19.9107 50.942 20.172 51.4834 20.34C52.0434 20.508 52.5754 20.592 53.0794 20.592C53.434 20.592 53.7887 20.5733 54.1434 20.536C54.5167 20.48 54.9087 20.452 55.3194 20.452C55.73 20.452 56.0847 20.564 56.3834 20.788C56.682 21.012 56.8314 21.376 56.8314 21.88C56.8314 22.2907 56.7007 22.608 56.4394 22.832C56.1967 23.056 55.8794 23.2053 55.4874 23.28C55.114 23.3547 54.7314 23.392 54.3394 23.392C53.966 23.4107 53.6394 23.42 53.3594 23.42ZM51.9874 15.636C52.5474 15.636 53.098 15.5333 53.6394 15.328C54.1994 15.104 54.6567 14.7773 55.0114 14.348C55.3847 13.9187 55.5714 13.3867 55.5714 12.752C55.5714 12.2107 55.4034 11.7813 55.0674 11.464C54.75 11.1467 54.3207 10.988 53.7794 10.988C53.294 10.988 52.7807 11.1187 52.2394 11.38C51.698 11.6413 51.1847 11.9773 50.6994 12.388C50.2327 12.7987 49.85 13.2467 49.5514 13.732C49.2527 14.1987 49.1034 14.656 49.1034 15.104V15.216C49.5887 15.2907 50.074 15.384 50.5594 15.496C51.0447 15.5893 51.5207 15.636 51.9874 15.636ZM64.2993 22.72C63.8886 22.72 63.5246 22.5893 63.2073 22.328C62.9086 22.048 62.7593 21.7027 62.7593 21.292C62.7593 20.676 62.7779 20.0787 62.8153 19.5C62.8713 18.9213 62.8993 18.3333 62.8993 17.736V15.888C62.8993 15.1227 62.8713 14.3667 62.8153 13.62C62.7779 12.8547 62.6566 12.0987 62.4513 11.352C62.3766 11.128 62.3113 10.8947 62.2553 10.652C62.2179 10.3907 62.1993 10.1293 62.1993 9.868C62.1993 9.49467 62.2926 9.12133 62.4793 8.748C62.6659 8.356 63.0019 8.16 63.4873 8.16C63.8793 8.16 64.1966 8.30933 64.4393 8.608C64.6819 8.888 64.8686 9.24267 64.9993 9.672C65.1299 10.0827 65.2233 10.5027 65.2793 10.932C65.3539 11.3427 65.4193 11.688 65.4753 11.968C65.5126 12.2107 65.5686 12.472 65.6433 12.752C65.7179 13.032 65.7553 13.3027 65.7553 13.564C65.7553 13.5827 65.7739 13.6387 65.8113 13.732C65.8486 13.8253 65.8859 13.9187 65.9233 14.012C66.1659 13.5827 66.4366 13.116 66.7353 12.612C67.0526 12.0893 67.3979 11.604 67.7713 11.156C68.1633 10.6893 68.5926 10.3067 69.0593 10.008C69.5446 9.70933 70.0766 9.56 70.6553 9.56C71.2526 9.56 71.7006 9.70933 71.9993 10.008C72.3166 10.288 72.5686 10.6427 72.7553 11.072C72.9419 11.4827 73.1286 11.8933 73.3153 12.304C73.3899 12.4907 73.4366 12.6867 73.4553 12.892C73.4739 13.0787 73.5206 13.2747 73.5953 13.48L73.9033 13.032C74.2766 12.5093 74.6966 11.94 75.1633 11.324C75.6486 10.6893 76.1899 10.148 76.7873 9.7C77.3846 9.23333 78.0566 9 78.8033 9C79.4006 9 79.9046 9.17733 80.3153 9.532C80.7446 9.868 81.0899 10.3067 81.3513 10.848C81.6313 11.3893 81.8366 11.9493 81.9673 12.528C82.0979 13.1067 82.1633 13.6387 82.1633 14.124V20.06C82.1633 20.34 82.1166 20.648 82.0233 20.984C81.9486 21.3013 81.8086 21.5813 81.6033 21.824C81.3979 22.048 81.1086 22.16 80.7353 22.16C80.3059 22.16 79.9606 22.0107 79.6993 21.712C79.4379 21.4133 79.3073 21.096 79.3073 20.76V15.664C79.3073 15.608 79.2979 15.4867 79.2793 15.3C79.2606 15.1133 79.2326 14.9173 79.1953 14.712C79.1766 14.5067 79.1673 14.3573 79.1673 14.264C79.1673 14.1147 79.1486 13.8813 79.1113 13.564C79.0739 13.2467 78.9993 12.948 78.8873 12.668C78.7753 12.388 78.6073 12.248 78.3833 12.248H78.1313C77.5713 12.7333 77.1513 13.2 76.8713 13.648C76.5913 14.0773 76.3766 14.5067 76.2273 14.936C76.0779 15.3653 75.9379 15.8227 75.8073 16.308C75.6766 16.7747 75.4899 17.288 75.2473 17.848C75.1166 18.3333 74.9019 18.7907 74.6033 19.22C74.3233 19.6307 73.9313 19.836 73.4273 19.836C72.9419 19.836 72.5686 19.7053 72.3073 19.444C72.0646 19.164 71.8779 18.828 71.7473 18.436C71.6353 18.044 71.5419 17.6707 71.4673 17.316C71.4299 17.148 71.3646 16.868 71.2713 16.476C71.1779 16.084 71.0753 15.6547 70.9633 15.188C70.8699 14.7213 70.7766 14.2827 70.6833 13.872C70.5899 13.4427 70.5246 13.1253 70.4873 12.92C70.3753 12.752 70.2633 12.668 70.1513 12.668C69.9833 12.668 69.8059 12.7893 69.6193 13.032C69.4326 13.2747 69.2926 13.508 69.1993 13.732C69.0873 13.9 68.9286 14.1987 68.7233 14.628C68.5179 15.0387 68.3219 15.44 68.1353 15.832C67.9673 16.224 67.8553 16.4853 67.7993 16.616C67.7619 16.728 67.6499 16.9987 67.4633 17.428C67.2953 17.8573 67.0993 18.352 66.8753 18.912C66.6513 19.4533 66.4459 19.948 66.2593 20.396C66.0726 20.844 65.9513 21.1427 65.8953 21.292C65.7086 21.6467 65.5126 21.9733 65.3073 22.272C65.1206 22.5707 64.7846 22.72 64.2993 22.72ZM91.3761 23.42C90.8535 23.42 90.2561 23.3733 89.5841 23.28C88.9121 23.2053 88.2588 23.056 87.6241 22.832C86.9895 22.608 86.4575 22.272 86.0281 21.824C85.6175 21.376 85.4121 20.788 85.4121 20.06C85.4121 19.5747 85.5335 19.1547 85.7761 18.8C86.0188 18.4267 86.4108 18.24 86.9521 18.24C87.2881 18.24 87.5495 18.324 87.7361 18.492C87.9228 18.66 88.0815 18.8653 88.2121 19.108C88.3615 19.3507 88.5295 19.6027 88.7161 19.864C88.9215 20.1067 89.1921 20.312 89.5281 20.48C89.8828 20.648 90.3588 20.732 90.9561 20.732C91.3855 20.732 91.8521 20.6853 92.3561 20.592C92.8788 20.48 93.3268 20.284 93.7001 20.004C94.0735 19.724 94.2601 19.3413 94.2601 18.856C94.2601 18.4267 94.0828 18.0907 93.7281 17.848C93.3735 17.5867 92.9161 17.3627 92.3561 17.176C91.7961 16.9893 91.2081 16.8027 90.5921 16.616C89.9761 16.4107 89.3881 16.1587 88.8281 15.86C88.2681 15.5613 87.8108 15.1693 87.4561 14.684C87.1015 14.18 86.9241 13.536 86.9241 12.752C86.9241 12.024 87.1015 11.3987 87.4561 10.876C87.8108 10.3533 88.2681 9.924 88.8281 9.588C89.4068 9.23333 90.0228 8.98133 90.6761 8.832C91.3481 8.664 91.9921 8.58 92.6081 8.58C92.9628 8.58 93.3735 8.62667 93.8401 8.72C94.3068 8.79467 94.7641 8.92533 95.2121 9.112C95.6601 9.29867 96.0335 9.56 96.3321 9.896C96.6308 10.2133 96.7801 10.6147 96.7801 11.1C96.7801 11.9587 96.3508 12.388 95.4921 12.388H95.1281C94.5681 12.0707 94.0921 11.828 93.7001 11.66C93.3081 11.492 92.8601 11.408 92.3561 11.408C92.1321 11.408 91.8148 11.436 91.4041 11.492C91.0121 11.5293 90.6575 11.632 90.3401 11.8C90.0228 11.968 89.8641 12.2387 89.8641 12.612C89.8641 12.9293 90.0415 13.1907 90.3961 13.396C90.7508 13.6013 91.2081 13.7973 91.7681 13.984C92.3281 14.1707 92.9161 14.376 93.5321 14.6C94.1481 14.824 94.7361 15.1133 95.2961 15.468C95.8561 15.804 96.3135 16.2333 96.6681 16.756C97.0228 17.2787 97.2001 17.932 97.2001 18.716C97.2001 19.8547 96.9108 20.7693 96.3321 21.46C95.7721 22.1507 95.0441 22.6547 94.1481 22.972C93.2708 23.2707 92.3468 23.42 91.3761 23.42ZM117.516 23.42C116.993 23.42 116.396 23.3733 115.724 23.28C115.052 23.2053 114.398 23.056 113.764 22.832C113.129 22.608 112.597 22.272 112.168 21.824C111.757 21.376 111.552 20.788 111.552 20.06C111.552 19.5747 111.673 19.1547 111.916 18.8C112.158 18.4267 112.55 18.24 113.092 18.24C113.428 18.24 113.689 18.324 113.876 18.492C114.062 18.66 114.221 18.8653 114.352 19.108C114.501 19.3507 114.669 19.6027 114.856 19.864C115.061 20.1067 115.332 20.312 115.668 20.48C116.022 20.648 116.498 20.732 117.096 20.732C117.525 20.732 117.992 20.6853 118.496 20.592C119.018 20.48 119.466 20.284 119.84 20.004C120.213 19.724 120.4 19.3413 120.4 18.856C120.4 18.4267 120.222 18.0907 119.868 17.848C119.513 17.5867 119.056 17.3627 118.496 17.176C117.936 16.9893 117.348 16.8027 116.732 16.616C116.116 16.4107 115.528 16.1587 114.968 15.86C114.408 15.5613 113.95 15.1693 113.596 14.684C113.241 14.18 113.064 13.536 113.064 12.752C113.064 12.024 113.241 11.3987 113.596 10.876C113.95 10.3533 114.408 9.924 114.968 9.588C115.546 9.23333 116.162 8.98133 116.816 8.832C117.488 8.664 118.132 8.58 118.748 8.58C119.102 8.58 119.513 8.62667 119.98 8.72C120.446 8.79467 120.904 8.92533 121.352 9.112C121.8 9.29867 122.173 9.56 122.472 9.896C122.77 10.2133 122.92 10.6147 122.92 11.1C122.92 11.9587 122.49 12.388 121.632 12.388H121.268C120.708 12.0707 120.232 11.828 119.84 11.66C119.448 11.492 119 11.408 118.496 11.408C118.272 11.408 117.954 11.436 117.544 11.492C117.152 11.5293 116.797 11.632 116.48 11.8C116.162 11.968 116.004 12.2387 116.004 12.612C116.004 12.9293 116.181 13.1907 116.536 13.396C116.89 13.6013 117.348 13.7973 117.908 13.984C118.468 14.1707 119.056 14.376 119.672 14.6C120.288 14.824 120.876 15.1133 121.436 15.468C121.996 15.804 122.453 16.2333 122.808 16.756C123.162 17.2787 123.34 17.932 123.34 18.716C123.34 19.8547 123.05 20.7693 122.472 21.46C121.912 22.1507 121.184 22.6547 120.288 22.972C119.41 23.2707 118.486 23.42 117.516 23.42ZM134.202 23C132.858 23 131.607 22.7107 130.45 22.132C129.292 21.5533 128.359 20.732 127.65 19.668C126.94 18.604 126.586 17.3627 126.586 15.944C126.586 14.9733 126.782 14.0773 127.174 13.256C127.584 12.416 128.098 11.632 128.714 10.904C129.348 10.176 129.983 9.49467 130.618 8.86C130.954 8.524 131.355 8.28133 131.822 8.132C132.288 7.964 132.764 7.88 133.25 7.88C134.463 7.88 135.63 8.01067 136.75 8.272C137.87 8.53333 138.868 8.96267 139.746 9.56C140.642 10.1387 141.351 10.9133 141.874 11.884C142.396 12.836 142.658 14.0027 142.658 15.384C142.658 16.5227 142.415 17.5587 141.93 18.492C141.444 19.4253 140.791 20.228 139.97 20.9C139.167 21.572 138.262 22.0947 137.254 22.468C136.264 22.8227 135.247 23 134.202 23ZM133.642 19.892C134.668 19.892 135.639 19.7147 136.554 19.36C137.468 18.9867 138.215 18.436 138.794 17.708C139.391 16.9613 139.69 16.0467 139.69 14.964C139.69 14.012 139.41 13.2187 138.85 12.584C138.308 11.9493 137.618 11.4827 136.778 11.184C135.938 10.8667 135.079 10.708 134.202 10.708C133.754 10.708 133.39 10.7733 133.11 10.904C132.83 11.0347 132.578 11.212 132.354 11.436C132.13 11.66 131.868 11.9213 131.57 12.22C131.047 12.7613 130.58 13.3587 130.17 14.012C129.759 14.6467 129.554 15.3747 129.554 16.196C129.554 17.5027 129.946 18.4453 130.73 19.024C131.514 19.6027 132.484 19.892 133.642 19.892ZM147.634 23.28C147.298 23.28 147.046 23.168 146.878 22.944C146.71 22.72 146.598 22.4587 146.542 22.16C146.486 21.8427 146.43 21.5627 146.374 21.32V19.248C146.374 18.2027 146.421 17.148 146.514 16.084C146.608 15.0013 146.654 13.9467 146.654 12.92C146.654 12.4347 146.608 11.968 146.514 11.52C146.421 11.072 146.374 10.6147 146.374 10.148V9.392C146.524 9.112 146.72 8.90667 146.962 8.776C147.224 8.64533 147.494 8.58 147.774 8.58C148.185 8.58 148.493 8.70133 148.698 8.944C148.904 9.168 149.044 9.43867 149.118 9.756C149.212 10.0733 149.296 10.3627 149.37 10.624C149.445 10.8667 149.566 11.0067 149.734 11.044C150.276 10.6893 150.789 10.344 151.274 10.008C151.778 9.672 152.301 9.40133 152.842 9.196C153.402 8.972 154.018 8.86 154.69 8.86C155.026 8.86 155.381 8.93467 155.754 9.084C156.146 9.23333 156.482 9.448 156.762 9.728C157.042 9.98933 157.182 10.316 157.182 10.708C157.182 11.1933 156.986 11.548 156.594 11.772C156.221 11.996 155.866 12.108 155.53 12.108C155.306 12.108 155.092 12.0613 154.886 11.968C154.681 11.8747 154.466 11.828 154.242 11.828C153.589 11.828 152.973 11.996 152.394 12.332C151.834 12.6493 151.34 13.032 150.91 13.48C150.481 13.928 150.136 14.348 149.874 14.74C149.8 14.908 149.744 15.188 149.706 15.58C149.669 15.972 149.641 16.42 149.622 16.924C149.604 17.4093 149.585 17.8853 149.566 18.352C149.566 18.8187 149.557 19.22 149.538 19.556C149.52 20.172 149.454 20.7693 149.342 21.348C149.249 21.908 149.072 22.3747 148.81 22.748C148.549 23.1027 148.157 23.28 147.634 23.28ZM162.874 23.56C162.295 23.56 161.866 23.3827 161.586 23.028C161.306 22.6733 161.119 22.244 161.026 21.74C160.951 21.2173 160.914 20.7413 160.914 20.312V19.248C160.914 18.072 160.933 16.8867 160.97 15.692C161.026 14.4973 161.063 13.2093 161.082 11.828C160.615 11.8467 160.214 11.8747 159.878 11.912C159.561 11.9493 159.234 11.968 158.898 11.968C158.039 11.968 157.61 11.548 157.61 10.708C157.61 10.3907 157.666 10.092 157.778 9.812C157.89 9.51333 158.123 9.32667 158.478 9.252L160.942 8.692C161.259 8.61733 161.465 8.42133 161.558 8.104C161.67 7.768 161.726 7.38533 161.726 6.956C161.745 6.508 161.773 6.06933 161.81 5.64C161.866 5.21067 162.006 4.856 162.23 4.576C162.473 4.296 162.874 4.156 163.434 4.156C163.826 4.156 164.115 4.268 164.302 4.492C164.507 4.69733 164.647 4.94933 164.722 5.248C164.797 5.54667 164.834 5.836 164.834 6.116C164.834 6.15333 164.825 6.284 164.806 6.508C164.787 6.71333 164.759 6.91867 164.722 7.124C164.703 7.32933 164.694 7.46 164.694 7.516V8.412H168.11C168.521 8.412 168.838 8.608 169.062 9C169.286 9.37333 169.398 9.756 169.398 10.148C169.398 10.2227 169.37 10.3627 169.314 10.568C169.258 10.7733 169.155 10.9693 169.006 11.156C168.857 11.324 168.651 11.408 168.39 11.408H164.806C164.787 11.408 164.75 11.4267 164.694 11.464C164.638 11.4827 164.573 11.5387 164.498 11.632L164.442 11.716C164.349 12.22 164.283 12.6307 164.246 12.948C164.209 13.2467 164.181 13.5267 164.162 13.788C164.162 14.0307 164.162 14.3293 164.162 14.684C164.162 15.7107 164.181 16.7373 164.218 17.764C164.274 18.7907 164.302 19.8733 164.302 21.012C164.302 21.3853 164.274 21.768 164.218 22.16C164.162 22.552 164.031 22.8787 163.826 23.14C163.621 23.42 163.303 23.56 162.874 23.56ZM179.656 23.42C178.312 23.42 177.07 23.2147 175.932 22.804C174.812 22.3747 173.906 21.7027 173.216 20.788C172.525 19.8547 172.18 18.6507 172.18 17.176C172.18 16.056 172.357 14.964 172.712 13.9C173.085 12.836 173.617 11.8747 174.308 11.016C174.998 10.1387 175.829 9.448 176.8 8.944C177.77 8.42133 178.862 8.16 180.076 8.16C180.897 8.16 181.662 8.328 182.372 8.664C183.1 8.98133 183.678 9.45733 184.108 10.092C184.556 10.708 184.78 11.464 184.78 12.36C184.78 13.2187 184.602 14.04 184.248 14.824C183.893 15.608 183.408 16.308 182.792 16.924C182.176 17.54 181.476 18.0253 180.692 18.38C179.926 18.716 179.124 18.884 178.284 18.884C178.153 18.884 177.864 18.856 177.416 18.8C176.968 18.7253 176.613 18.6507 176.352 18.576C176.165 18.5387 176.016 18.464 175.904 18.352C175.866 18.3333 175.801 18.3053 175.708 18.268C175.614 18.212 175.549 18.184 175.512 18.184C175.642 18.7253 175.913 19.1827 176.324 19.556C176.753 19.9107 177.238 20.172 177.78 20.34C178.34 20.508 178.872 20.592 179.376 20.592C179.73 20.592 180.085 20.5733 180.44 20.536C180.813 20.48 181.205 20.452 181.616 20.452C182.026 20.452 182.381 20.564 182.68 20.788C182.978 21.012 183.128 21.376 183.128 21.88C183.128 22.2907 182.997 22.608 182.736 22.832C182.493 23.056 182.176 23.2053 181.784 23.28C181.41 23.3547 181.028 23.392 180.636 23.392C180.262 23.4107 179.936 23.42 179.656 23.42ZM178.284 15.636C178.844 15.636 179.394 15.5333 179.936 15.328C180.496 15.104 180.953 14.7773 181.308 14.348C181.681 13.9187 181.868 13.3867 181.868 12.752C181.868 12.2107 181.7 11.7813 181.364 11.464C181.046 11.1467 180.617 10.988 180.076 10.988C179.59 10.988 179.077 11.1187 178.536 11.38C177.994 11.6413 177.481 11.9773 176.996 12.388C176.529 12.7987 176.146 13.2467 175.848 13.732C175.549 14.1987 175.4 14.656 175.4 15.104V15.216C175.885 15.2907 176.37 15.384 176.856 15.496C177.341 15.5893 177.817 15.636 178.284 15.636ZM191.884 23.42C190.95 23.1773 190.166 22.7667 189.532 22.188C188.916 21.5907 188.449 20.8907 188.132 20.088C187.833 19.2853 187.684 18.4453 187.684 17.568C187.684 16.3547 187.945 15.188 188.468 14.068C188.99 12.9293 189.69 11.9213 190.568 11.044C191.464 10.148 192.472 9.43867 193.592 8.916C194.73 8.39333 195.906 8.132 197.12 8.132C197.549 8.132 197.96 8.19733 198.352 8.328C198.762 8.44 199.173 8.50533 199.584 8.524L199.696 8.16C199.714 7.824 199.742 7.404 199.78 6.9C199.817 6.396 199.864 5.87333 199.92 5.332C199.994 4.772 200.069 4.24 200.144 3.736C200.237 3.232 200.34 2.83067 200.452 2.532C200.601 2.10267 200.816 1.73867 201.096 1.44C201.376 1.12267 201.749 0.963997 202.216 0.963997C202.682 0.963997 202.981 1.11333 203.112 1.412C203.261 1.71067 203.336 2.084 203.336 2.532V3.232C203.074 5.37867 202.869 7.49733 202.72 9.588C202.589 11.66 202.524 13.732 202.524 15.804C202.524 16.756 202.57 17.6893 202.664 18.604C202.757 19.5 202.804 20.4427 202.804 21.432C202.804 21.7867 202.748 22.1413 202.636 22.496C202.542 22.832 202.262 23 201.796 23C201.31 23 200.937 22.8693 200.676 22.608C200.414 22.328 200.228 21.9827 200.116 21.572C200.004 21.1613 199.91 20.7693 199.836 20.396C199.798 20.116 199.761 19.976 199.724 19.976H199.612C198.641 21.04 197.642 21.88 196.616 22.496C195.608 23.112 194.441 23.42 193.116 23.42H191.884ZM192.948 20.564C193.676 20.564 194.376 20.368 195.048 19.976C195.72 19.584 196.317 19.0707 196.84 18.436C197.381 17.8013 197.801 17.12 198.1 16.392C198.417 15.6453 198.576 14.936 198.576 14.264C198.576 14.096 198.538 13.844 198.464 13.508C198.389 13.172 198.296 12.8173 198.184 12.444C198.072 12.0707 197.95 11.7627 197.82 11.52C197.708 11.2587 197.605 11.128 197.512 11.128C196.616 11.128 195.766 11.3147 194.964 11.688C194.161 12.0427 193.442 12.528 192.808 13.144C192.192 13.76 191.697 14.46 191.324 15.244C190.969 16.028 190.792 16.8493 190.792 17.708V18.828C190.941 19.3693 191.193 19.7987 191.548 20.116C191.902 20.4147 192.369 20.564 192.948 20.564ZM3.1407 40.752C2.5807 40.752 2.09537 40.5747 1.6847 40.22C1.27403 39.8653 1.0687 39.3427 1.0687 38.652C1.0687 37.9613 1.31137 37.476 1.7967 37.196C2.28203 36.916 2.7767 36.776 3.2807 36.776C3.85937 36.776 4.3447 36.9533 4.7367 37.308C5.14737 37.6627 5.3527 38.1947 5.3527 38.904C5.3527 39.576 5.11004 40.052 4.6247 40.332C4.15803 40.612 3.66337 40.752 3.1407 40.752ZM2.0207 57.58C1.66603 57.58 1.39537 57.3933 1.2087 57.02C1.02203 56.6467 0.882034 56.2733 0.7887 55.9V52.288C0.7887 52.1947 0.807367 51.952 0.844701 51.56C0.900701 51.1493 0.9567 50.6733 1.0127 50.132C1.08737 49.572 1.1527 49.04 1.2087 48.536C1.28337 48.0133 1.33937 47.6027 1.3767 47.304C1.4327 46.9307 1.49803 46.52 1.5727 46.072C1.66603 45.624 1.8247 45.232 2.0487 44.896C2.2727 44.56 2.59004 44.392 3.0007 44.392C3.4487 44.392 3.76604 44.504 3.9527 44.728C4.15804 44.9333 4.27937 45.1947 4.3167 45.512C4.35404 45.8293 4.3727 46.156 4.3727 46.492V47.472C4.3727 47.5093 4.36337 47.5933 4.3447 47.724C4.32604 47.836 4.29804 47.9667 4.2607 48.116C4.13004 48.7693 4.02737 49.2547 3.9527 49.572C3.8967 49.8707 3.85004 50.132 3.8127 50.356C3.79403 50.5613 3.7847 50.8507 3.7847 51.224C3.7847 51.448 3.7847 51.728 3.7847 52.064C3.80337 52.4 3.8127 52.8387 3.8127 53.38C3.8127 53.6227 3.82204 53.8653 3.8407 54.108C3.85937 54.332 3.8687 54.5747 3.8687 54.836C3.8687 55.116 3.8407 55.4147 3.7847 55.732C3.71004 56.1987 3.54204 56.628 3.2807 57.02C3.01937 57.3933 2.59937 57.58 2.0207 57.58ZM10.0208 57.44C9.55416 57.44 9.20883 57.3093 8.98483 57.048C8.76083 56.768 8.62083 56.432 8.56483 56.04C8.50883 55.6293 8.48083 55.2373 8.48083 54.864C8.48083 54.0053 8.49949 53.1467 8.53683 52.288C8.59283 51.4293 8.62083 50.608 8.62083 49.824C8.62083 48.984 8.52749 48.1813 8.34083 47.416C8.15416 46.6507 8.06083 45.8853 8.06083 45.12V44.028C8.22883 43.636 8.40616 43.3747 8.59283 43.244C8.77949 43.0947 9.03149 43.02 9.34883 43.02C9.92749 43.02 10.3475 43.2067 10.6088 43.58C10.8702 43.9347 11.0382 44.364 11.1128 44.868C11.2062 45.3533 11.2715 45.8013 11.3088 46.212C11.3275 46.4173 11.3648 46.8187 11.4208 47.416C11.4955 48.0133 11.5422 48.5733 11.5608 49.096H11.6728L11.7848 48.984C12.1395 48.4613 12.5128 47.9013 12.9048 47.304C13.2968 46.7067 13.7262 46.1467 14.1928 45.624C14.6782 45.1013 15.2102 44.6813 15.7888 44.364C16.3675 44.028 17.0208 43.86 17.7488 43.86C18.6822 43.86 19.4755 44.1307 20.1288 44.672C20.7822 45.1947 21.3328 45.8853 21.7808 46.744C22.2288 47.584 22.5928 48.4987 22.8728 49.488C23.1528 50.4773 23.3768 51.4387 23.5448 52.372C23.7128 53.3053 23.8622 54.108 23.9928 54.78V55.48C23.9928 55.8907 23.8808 56.3013 23.6568 56.712C23.4328 57.104 23.0782 57.3 22.5928 57.3C22.0888 57.3 21.7155 57.1693 21.4728 56.908C21.2488 56.6467 21.0995 56.3107 21.0248 55.9C20.9875 55.732 20.9408 55.4613 20.8848 55.088C20.8288 54.696 20.7635 54.276 20.6888 53.828C20.6142 53.3613 20.5488 52.932 20.4928 52.54C20.4368 52.1293 20.3902 51.8307 20.3528 51.644C20.2968 51.2707 20.1662 50.832 19.9608 50.328C19.7742 49.8053 19.5968 49.3573 19.4288 48.984C19.2608 48.592 19.0462 48.1813 18.7848 47.752C18.5235 47.3227 18.1408 47.108 17.6368 47.108C17.1888 47.108 16.7782 47.2667 16.4048 47.584C16.0502 47.9013 15.7328 48.2747 15.4528 48.704C15.1915 49.1333 14.9582 49.516 14.7528 49.852C14.2862 50.5987 13.8662 51.3453 13.4928 52.092C13.1195 52.8387 12.7182 53.6507 12.2888 54.528C12.1208 54.8827 11.9622 55.2933 11.8128 55.76C11.6635 56.208 11.4582 56.6 11.1968 56.936C10.9355 57.272 10.5435 57.44 10.0208 57.44ZM32.08 58.56C31.5013 58.56 31.072 58.3827 30.792 58.028C30.512 57.6733 30.3253 57.244 30.232 56.74C30.1573 56.2173 30.12 55.7413 30.12 55.312V54.248C30.12 53.072 30.1387 51.8867 30.176 50.692C30.232 49.4973 30.2693 48.2093 30.288 46.828C29.8213 46.8467 29.42 46.8747 29.084 46.912C28.7667 46.9493 28.44 46.968 28.104 46.968C27.2453 46.968 26.816 46.548 26.816 45.708C26.816 45.3907 26.872 45.092 26.984 44.812C27.096 44.5133 27.3293 44.3267 27.684 44.252L30.148 43.692C30.4653 43.6173 30.6707 43.4213 30.764 43.104C30.876 42.768 30.932 42.3853 30.932 41.956C30.9507 41.508 30.9787 41.0693 31.016 40.64C31.072 40.2107 31.212 39.856 31.436 39.576C31.6787 39.296 32.08 39.156 32.64 39.156C33.032 39.156 33.3213 39.268 33.508 39.492C33.7133 39.6973 33.8533 39.9493 33.928 40.248C34.0027 40.5467 34.04 40.836 34.04 41.116C34.04 41.1533 34.0307 41.284 34.012 41.508C33.9933 41.7133 33.9653 41.9187 33.928 42.124C33.9093 42.3293 33.9 42.46 33.9 42.516V43.412H37.316C37.7267 43.412 38.044 43.608 38.268 44C38.492 44.3733 38.604 44.756 38.604 45.148C38.604 45.2227 38.576 45.3627 38.52 45.568C38.464 45.7733 38.3613 45.9693 38.212 46.156C38.0627 46.324 37.8573 46.408 37.596 46.408H34.012C33.9933 46.408 33.956 46.4267 33.9 46.464C33.844 46.4827 33.7787 46.5387 33.704 46.632L33.648 46.716C33.5547 47.22 33.4893 47.6307 33.452 47.948C33.4147 48.2467 33.3867 48.5267 33.368 48.788C33.368 49.0307 33.368 49.3293 33.368 49.684C33.368 50.7107 33.3867 51.7373 33.424 52.764C33.48 53.7907 33.508 54.8733 33.508 56.012C33.508 56.3853 33.48 56.768 33.424 57.16C33.368 57.552 33.2373 57.8787 33.032 58.14C32.8267 58.42 32.5093 58.56 32.08 58.56ZM49.0019 58C47.6579 58 46.4072 57.7107 45.2499 57.132C44.0925 56.5533 43.1592 55.732 42.4499 54.668C41.7405 53.604 41.3859 52.3627 41.3859 50.944C41.3859 49.9733 41.5819 49.0773 41.9739 48.256C42.3845 47.416 42.8979 46.632 43.5139 45.904C44.1485 45.176 44.7832 44.4947 45.4179 43.86C45.7539 43.524 46.1552 43.2813 46.6219 43.132C47.0885 42.964 47.5645 42.88 48.0499 42.88C49.2632 42.88 50.4299 43.0107 51.5499 43.272C52.6699 43.5333 53.6685 43.9627 54.5459 44.56C55.4419 45.1387 56.1512 45.9133 56.6739 46.884C57.1965 47.836 57.4579 49.0027 57.4579 50.384C57.4579 51.5227 57.2152 52.5587 56.7299 53.492C56.2445 54.4253 55.5912 55.228 54.7699 55.9C53.9672 56.572 53.0619 57.0947 52.0539 57.468C51.0645 57.8227 50.0472 58 49.0019 58ZM48.4419 54.892C49.4685 54.892 50.4392 54.7147 51.3539 54.36C52.2685 53.9867 53.0152 53.436 53.5939 52.708C54.1912 51.9613 54.4899 51.0467 54.4899 49.964C54.4899 49.012 54.2099 48.2187 53.6499 47.584C53.1085 46.9493 52.4179 46.4827 51.5779 46.184C50.7379 45.8667 49.8792 45.708 49.0019 45.708C48.5539 45.708 48.1899 45.7733 47.9099 45.904C47.6299 46.0347 47.3779 46.212 47.1539 46.436C46.9299 46.66 46.6685 46.9213 46.3699 47.22C45.8472 47.7613 45.3805 48.3587 44.9699 49.012C44.5592 49.6467 44.3539 50.3747 44.3539 51.196C44.3539 52.5027 44.7459 53.4453 45.5299 54.024C46.3139 54.6027 47.2845 54.892 48.4419 54.892ZM77.9919 58.42C77.4693 58.42 76.8719 58.3733 76.1999 58.28C75.5279 58.2053 74.8746 58.056 74.2399 57.832C73.6053 57.608 73.0733 57.272 72.6439 56.824C72.2333 56.376 72.0279 55.788 72.0279 55.06C72.0279 54.5747 72.1493 54.1547 72.3919 53.8C72.6346 53.4267 73.0266 53.24 73.5679 53.24C73.9039 53.24 74.1653 53.324 74.3519 53.492C74.5386 53.66 74.6973 53.8653 74.8279 54.108C74.9773 54.3507 75.1453 54.6027 75.3319 54.864C75.5373 55.1067 75.8079 55.312 76.1439 55.48C76.4986 55.648 76.9746 55.732 77.5719 55.732C78.0013 55.732 78.4679 55.6853 78.9719 55.592C79.4946 55.48 79.9426 55.284 80.3159 55.004C80.6893 54.724 80.8759 54.3413 80.8759 53.856C80.8759 53.4267 80.6986 53.0907 80.3439 52.848C79.9893 52.5867 79.5319 52.3627 78.9719 52.176C78.4119 51.9893 77.8239 51.8027 77.2079 51.616C76.5919 51.4107 76.0039 51.1587 75.4439 50.86C74.8839 50.5613 74.4266 50.1693 74.0719 49.684C73.7173 49.18 73.5399 48.536 73.5399 47.752C73.5399 47.024 73.7173 46.3987 74.0719 45.876C74.4266 45.3533 74.8839 44.924 75.4439 44.588C76.0226 44.2333 76.6386 43.9813 77.2919 43.832C77.9639 43.664 78.6079 43.58 79.2239 43.58C79.5786 43.58 79.9893 43.6267 80.4559 43.72C80.9226 43.7947 81.3799 43.9253 81.8279 44.112C82.2759 44.2987 82.6493 44.56 82.9479 44.896C83.2466 45.2133 83.3959 45.6147 83.3959 46.1C83.3959 46.9587 82.9666 47.388 82.1079 47.388H81.7439C81.1839 47.0707 80.7079 46.828 80.3159 46.66C79.9239 46.492 79.4759 46.408 78.9719 46.408C78.7479 46.408 78.4306 46.436 78.0199 46.492C77.6279 46.5293 77.2733 46.632 76.9559 46.8C76.6386 46.968 76.4799 47.2387 76.4799 47.612C76.4799 47.9293 76.6573 48.1907 77.0119 48.396C77.3666 48.6013 77.8239 48.7973 78.3839 48.984C78.9439 49.1707 79.5319 49.376 80.1479 49.6C80.7639 49.824 81.3519 50.1133 81.9119 50.468C82.4719 50.804 82.9293 51.2333 83.2839 51.756C83.6386 52.2787 83.8159 52.932 83.8159 53.716C83.8159 54.8547 83.5266 55.7693 82.9479 56.46C82.3879 57.1507 81.6599 57.6547 80.7639 57.972C79.8866 58.2707 78.9626 58.42 77.9919 58.42ZM91.9059 58.56C91.3273 58.56 90.8979 58.3827 90.6179 58.028C90.3379 57.6733 90.1513 57.244 90.0579 56.74C89.9833 56.2173 89.9459 55.7413 89.9459 55.312V54.248C89.9459 53.072 89.9646 51.8867 90.0019 50.692C90.0579 49.4973 90.0953 48.2093 90.1139 46.828C89.6473 46.8467 89.2459 46.8747 88.9099 46.912C88.5926 46.9493 88.2659 46.968 87.9299 46.968C87.0713 46.968 86.6419 46.548 86.6419 45.708C86.6419 45.3907 86.6979 45.092 86.8099 44.812C86.9219 44.5133 87.1553 44.3267 87.5099 44.252L89.9739 43.692C90.2913 43.6173 90.4966 43.4213 90.5899 43.104C90.7019 42.768 90.7579 42.3853 90.7579 41.956C90.7766 41.508 90.8046 41.0693 90.8419 40.64C90.8979 40.2107 91.0379 39.856 91.2619 39.576C91.5046 39.296 91.9059 39.156 92.4659 39.156C92.8579 39.156 93.1473 39.268 93.3339 39.492C93.5393 39.6973 93.6793 39.9493 93.7539 40.248C93.8286 40.5467 93.8659 40.836 93.8659 41.116C93.8659 41.1533 93.8566 41.284 93.8379 41.508C93.8193 41.7133 93.7913 41.9187 93.7539 42.124C93.7353 42.3293 93.7259 42.46 93.7259 42.516V43.412H97.1419C97.5526 43.412 97.8699 43.608 98.094 44C98.318 44.3733 98.4299 44.756 98.4299 45.148C98.4299 45.2227 98.4019 45.3627 98.3459 45.568C98.2899 45.7733 98.1873 45.9693 98.038 46.156C97.8886 46.324 97.6833 46.408 97.4219 46.408H93.8379C93.8193 46.408 93.7819 46.4267 93.7259 46.464C93.6699 46.4827 93.6046 46.5387 93.5299 46.632L93.4739 46.716C93.3806 47.22 93.3153 47.6307 93.2779 47.948C93.2406 48.2467 93.2126 48.5267 93.1939 48.788C93.1939 49.0307 93.1939 49.3293 93.1939 49.684C93.1939 50.7107 93.2126 51.7373 93.2499 52.764C93.3059 53.7907 93.3339 54.8733 93.3339 56.012C93.3339 56.3853 93.3059 56.768 93.2499 57.16C93.1939 57.552 93.0633 57.8787 92.8579 58.14C92.6526 58.42 92.3353 58.56 91.9059 58.56ZM108.828 58C107.484 58 106.233 57.7107 105.076 57.132C103.918 56.5533 102.985 55.732 102.276 54.668C101.566 53.604 101.212 52.3627 101.212 50.944C101.212 49.9733 101.408 49.0773 101.8 48.256C102.21 47.416 102.724 46.632 103.34 45.904C103.974 45.176 104.609 44.4947 105.244 43.86C105.58 43.524 105.981 43.2813 106.448 43.132C106.914 42.964 107.39 42.88 107.876 42.88C109.089 42.88 110.256 43.0107 111.376 43.272C112.496 43.5333 113.494 43.9627 114.372 44.56C115.268 45.1387 115.977 45.9133 116.5 46.884C117.022 47.836 117.284 49.0027 117.284 50.384C117.284 51.5227 117.041 52.5587 116.556 53.492C116.07 54.4253 115.417 55.228 114.596 55.9C113.793 56.572 112.888 57.0947 111.88 57.468C110.89 57.8227 109.873 58 108.828 58ZM108.268 54.892C109.294 54.892 110.265 54.7147 111.18 54.36C112.094 53.9867 112.841 53.436 113.42 52.708C114.017 51.9613 114.316 51.0467 114.316 49.964C114.316 49.012 114.036 48.2187 113.476 47.584C112.934 46.9493 112.244 46.4827 111.404 46.184C110.564 45.8667 109.705 45.708 108.828 45.708C108.38 45.708 108.016 45.7733 107.736 45.904C107.456 46.0347 107.204 46.212 106.98 46.436C106.756 46.66 106.494 46.9213 106.196 47.22C105.673 47.7613 105.206 48.3587 104.796 49.012C104.385 49.6467 104.18 50.3747 104.18 51.196C104.18 52.5027 104.572 53.4453 105.356 54.024C106.14 54.6027 107.11 54.892 108.268 54.892ZM122.26 58.28C121.924 58.28 121.672 58.168 121.504 57.944C121.336 57.72 121.224 57.4587 121.168 57.16C121.112 56.8427 121.056 56.5627 121 56.32V54.248C121 53.2027 121.047 52.148 121.14 51.084C121.234 50.0013 121.28 48.9467 121.28 47.92C121.28 47.4347 121.234 46.968 121.14 46.52C121.047 46.072 121 45.6147 121 45.148V44.392C121.15 44.112 121.346 43.9067 121.588 43.776C121.85 43.6453 122.12 43.58 122.4 43.58C122.811 43.58 123.119 43.7013 123.324 43.944C123.53 44.168 123.67 44.4387 123.744 44.756C123.838 45.0733 123.922 45.3627 123.996 45.624C124.071 45.8667 124.192 46.0067 124.36 46.044C124.902 45.6893 125.415 45.344 125.9 45.008C126.404 44.672 126.927 44.4013 127.468 44.196C128.028 43.972 128.644 43.86 129.316 43.86C129.652 43.86 130.007 43.9347 130.38 44.084C130.772 44.2333 131.108 44.448 131.388 44.728C131.668 44.9893 131.808 45.316 131.808 45.708C131.808 46.1933 131.612 46.548 131.22 46.772C130.847 46.996 130.492 47.108 130.156 47.108C129.932 47.108 129.718 47.0613 129.512 46.968C129.307 46.8747 129.092 46.828 128.868 46.828C128.215 46.828 127.599 46.996 127.02 47.332C126.46 47.6493 125.966 48.032 125.536 48.48C125.107 48.928 124.762 49.348 124.5 49.74C124.426 49.908 124.37 50.188 124.332 50.58C124.295 50.972 124.267 51.42 124.248 51.924C124.23 52.4093 124.211 52.8853 124.192 53.352C124.192 53.8187 124.183 54.22 124.164 54.556C124.146 55.172 124.08 55.7693 123.968 56.348C123.875 56.908 123.698 57.3747 123.436 57.748C123.175 58.1027 122.783 58.28 122.26 58.28ZM140.132 58.42C138.788 58.42 137.547 58.2147 136.408 57.804C135.288 57.3747 134.383 56.7027 133.692 55.788C133.001 54.8547 132.656 53.6507 132.656 52.176C132.656 51.056 132.833 49.964 133.188 48.9C133.561 47.836 134.093 46.8747 134.784 46.016C135.475 45.1387 136.305 44.448 137.276 43.944C138.247 43.4213 139.339 43.16 140.552 43.16C141.373 43.16 142.139 43.328 142.848 43.664C143.576 43.9813 144.155 44.4573 144.584 45.092C145.032 45.708 145.256 46.464 145.256 47.36C145.256 48.2187 145.079 49.04 144.724 49.824C144.369 50.608 143.884 51.308 143.268 51.924C142.652 52.54 141.952 53.0253 141.168 53.38C140.403 53.716 139.6 53.884 138.76 53.884C138.629 53.884 138.34 53.856 137.892 53.8C137.444 53.7253 137.089 53.6507 136.828 53.576C136.641 53.5387 136.492 53.464 136.38 53.352C136.343 53.3333 136.277 53.3053 136.184 53.268C136.091 53.212 136.025 53.184 135.988 53.184C136.119 53.7253 136.389 54.1827 136.8 54.556C137.229 54.9107 137.715 55.172 138.256 55.34C138.816 55.508 139.348 55.592 139.852 55.592C140.207 55.592 140.561 55.5733 140.916 55.536C141.289 55.48 141.681 55.452 142.092 55.452C142.503 55.452 142.857 55.564 143.156 55.788C143.455 56.012 143.604 56.376 143.604 56.88C143.604 57.2907 143.473 57.608 143.212 57.832C142.969 58.056 142.652 58.2053 142.26 58.28C141.887 58.3547 141.504 58.392 141.112 58.392C140.739 58.4107 140.412 58.42 140.132 58.42ZM138.76 50.636C139.32 50.636 139.871 50.5333 140.412 50.328C140.972 50.104 141.429 49.7773 141.784 49.348C142.157 48.9187 142.344 48.3867 142.344 47.752C142.344 47.2107 142.176 46.7813 141.84 46.464C141.523 46.1467 141.093 45.988 140.552 45.988C140.067 45.988 139.553 46.1187 139.012 46.38C138.471 46.6413 137.957 46.9773 137.472 47.388C137.005 47.7987 136.623 48.2467 136.324 48.732C136.025 49.1987 135.876 49.656 135.876 50.104V50.216C136.361 50.2907 136.847 50.384 137.332 50.496C137.817 50.5893 138.293 50.636 138.76 50.636ZM165.481 58.28C164.623 58.28 163.82 58.084 163.073 57.692C162.327 57.3 161.701 56.7773 161.197 56.124C160.693 55.452 160.367 54.696 160.217 53.856V52.428C160.217 51.3827 160.404 50.328 160.777 49.264C161.151 48.2 161.683 47.22 162.373 46.324C163.064 45.4093 163.885 44.6813 164.837 44.14C165.789 43.58 166.835 43.3 167.973 43.3C168.44 43.3 168.841 43.384 169.177 43.552C169.532 43.72 169.849 43.8973 170.129 44.084C170.428 44.252 170.717 44.3547 170.997 44.392C171.147 43.6267 171.352 43.1227 171.613 42.88C171.875 42.6187 172.229 42.488 172.677 42.488C173.219 42.488 173.583 42.6653 173.769 43.02C173.975 43.356 174.077 43.7853 174.077 44.308C174.077 45.3347 174.049 46.3427 173.993 47.332C173.956 48.3213 173.937 49.3387 173.937 50.384C173.937 51.2053 173.984 52.0547 174.077 52.932C174.171 53.8093 174.217 54.6587 174.217 55.48V56.068C174.217 56.4787 174.133 56.8613 173.965 57.216C173.816 57.552 173.471 57.72 172.929 57.72C172.425 57.72 172.061 57.5707 171.837 57.272C171.632 56.9547 171.492 56.5813 171.417 56.152C171.361 55.704 171.305 55.3027 171.249 54.948L171.137 54.836C170.503 55.4707 169.933 56.0493 169.429 56.572C168.944 57.0947 168.403 57.5147 167.805 57.832C167.208 58.1307 166.433 58.28 165.481 58.28ZM165.201 55.452C165.855 55.452 166.471 55.256 167.049 54.864C167.647 54.4533 168.179 53.9307 168.645 53.296C169.112 52.6427 169.476 51.9613 169.737 51.252C169.999 50.5427 170.129 49.88 170.129 49.264C170.129 48.7973 170.064 48.3307 169.933 47.864C169.803 47.3787 169.579 46.968 169.261 46.632C168.963 46.296 168.533 46.128 167.973 46.128C167.357 46.128 166.751 46.3427 166.153 46.772C165.575 47.2013 165.052 47.752 164.585 48.424C164.119 49.0773 163.745 49.768 163.465 50.496C163.185 51.2053 163.045 51.8493 163.045 52.428C163.045 52.8947 163.111 53.3613 163.241 53.828C163.391 54.2947 163.624 54.6867 163.941 55.004C164.259 55.3027 164.679 55.452 165.201 55.452ZM181.06 40.752C180.5 40.752 180.015 40.5747 179.604 40.22C179.193 39.8653 178.988 39.3427 178.988 38.652C178.988 37.9613 179.231 37.476 179.716 37.196C180.201 36.916 180.696 36.776 181.2 36.776C181.779 36.776 182.264 36.9533 182.656 37.308C183.067 37.6627 183.272 38.1947 183.272 38.904C183.272 39.576 183.029 40.052 182.544 40.332C182.077 40.612 181.583 40.752 181.06 40.752ZM179.94 57.58C179.585 57.58 179.315 57.3933 179.128 57.02C178.941 56.6467 178.801 56.2733 178.708 55.9V52.288C178.708 52.1947 178.727 51.952 178.764 51.56C178.82 51.1493 178.876 50.6733 178.932 50.132C179.007 49.572 179.072 49.04 179.128 48.536C179.203 48.0133 179.259 47.6027 179.296 47.304C179.352 46.9307 179.417 46.52 179.492 46.072C179.585 45.624 179.744 45.232 179.968 44.896C180.192 44.56 180.509 44.392 180.92 44.392C181.368 44.392 181.685 44.504 181.872 44.728C182.077 44.9333 182.199 45.1947 182.236 45.512C182.273 45.8293 182.292 46.156 182.292 46.492V47.472C182.292 47.5093 182.283 47.5933 182.264 47.724C182.245 47.836 182.217 47.9667 182.18 48.116C182.049 48.7693 181.947 49.2547 181.872 49.572C181.816 49.8707 181.769 50.132 181.732 50.356C181.713 50.5613 181.704 50.8507 181.704 51.224C181.704 51.448 181.704 51.728 181.704 52.064C181.723 52.4 181.732 52.8387 181.732 53.38C181.732 53.6227 181.741 53.8653 181.76 54.108C181.779 54.332 181.788 54.5747 181.788 54.836C181.788 55.116 181.76 55.4147 181.704 55.732C181.629 56.1987 181.461 56.628 181.2 57.02C180.939 57.3933 180.519 57.58 179.94 57.58ZM191.3 58.42C190.777 58.42 190.18 58.3733 189.508 58.28C188.836 58.2053 188.183 58.056 187.548 57.832C186.913 57.608 186.381 57.272 185.952 56.824C185.541 56.376 185.336 55.788 185.336 55.06C185.336 54.5747 185.457 54.1547 185.7 53.8C185.943 53.4267 186.335 53.24 186.876 53.24C187.212 53.24 187.473 53.324 187.66 53.492C187.847 53.66 188.005 53.8653 188.136 54.108C188.285 54.3507 188.453 54.6027 188.64 54.864C188.845 55.1067 189.116 55.312 189.452 55.48C189.807 55.648 190.283 55.732 190.88 55.732C191.309 55.732 191.776 55.6853 192.28 55.592C192.803 55.48 193.251 55.284 193.624 55.004C193.997 54.724 194.184 54.3413 194.184 53.856C194.184 53.4267 194.007 53.0907 193.652 52.848C193.297 52.5867 192.84 52.3627 192.28 52.176C191.72 51.9893 191.132 51.8027 190.516 51.616C189.9 51.4107 189.312 51.1587 188.752 50.86C188.192 50.5613 187.735 50.1693 187.38 49.684C187.025 49.18 186.848 48.536 186.848 47.752C186.848 47.024 187.025 46.3987 187.38 45.876C187.735 45.3533 188.192 44.924 188.752 44.588C189.331 44.2333 189.947 43.9813 190.6 43.832C191.272 43.664 191.916 43.58 192.532 43.58C192.887 43.58 193.297 43.6267 193.764 43.72C194.231 43.7947 194.688 43.9253 195.136 44.112C195.584 44.2987 195.957 44.56 196.256 44.896C196.555 45.2133 196.704 45.6147 196.704 46.1C196.704 46.9587 196.275 47.388 195.416 47.388H195.052C194.492 47.0707 194.016 46.828 193.624 46.66C193.232 46.492 192.784 46.408 192.28 46.408C192.056 46.408 191.739 46.436 191.328 46.492C190.936 46.5293 190.581 46.632 190.264 46.8C189.947 46.968 189.788 47.2387 189.788 47.612C189.788 47.9293 189.965 48.1907 190.32 48.396C190.675 48.6013 191.132 48.7973 191.692 48.984C192.252 49.1707 192.84 49.376 193.456 49.6C194.072 49.824 194.66 50.1133 195.22 50.468C195.78 50.804 196.237 51.2333 196.592 51.756C196.947 52.2787 197.124 52.932 197.124 53.716C197.124 54.8547 196.835 55.7693 196.256 56.46C195.696 57.1507 194.968 57.6547 194.072 57.972C193.195 58.2707 192.271 58.42 191.3 58.42ZM203.03 58.14C202.601 58.14 202.274 58 202.05 57.72C201.845 57.4213 201.705 57.0573 201.63 56.628C201.574 56.1987 201.546 55.76 201.546 55.312C201.546 55.088 201.546 54.8733 201.546 54.668C201.565 54.444 201.574 54.2387 201.574 54.052C201.574 53.604 201.583 52.9133 201.602 51.98C201.621 51.0467 201.649 49.9827 201.686 48.788C201.723 47.5747 201.77 46.3147 201.826 45.008C201.882 43.7013 201.957 42.4413 202.05 41.228C202.162 40.0147 202.283 38.9507 202.414 38.036C202.545 37.196 202.778 36.524 203.114 36.02C203.469 35.516 203.823 35.264 204.178 35.264C204.495 35.264 204.766 35.516 204.99 36.02C205.214 36.524 205.298 37.3547 205.242 38.512C204.887 40.6587 204.626 42.7307 204.458 44.728C204.29 46.7253 204.206 48.788 204.206 50.916C204.206 51.812 204.253 52.708 204.346 53.604C204.439 54.5 204.486 55.396 204.486 56.292C204.486 56.8707 204.365 57.328 204.122 57.664C203.879 57.9813 203.515 58.14 203.03 58.14ZM215.707 58.42C214.363 58.42 213.122 58.2147 211.983 57.804C210.863 57.3747 209.958 56.7027 209.267 55.788C208.576 54.8547 208.231 53.6507 208.231 52.176C208.231 51.056 208.408 49.964 208.763 48.9C209.136 47.836 209.668 46.8747 210.359 46.016C211.05 45.1387 211.88 44.448 212.851 43.944C213.822 43.4213 214.914 43.16 216.127 43.16C216.948 43.16 217.714 43.328 218.423 43.664C219.151 43.9813 219.73 44.4573 220.159 45.092C220.607 45.708 220.831 46.464 220.831 47.36C220.831 48.2187 220.654 49.04 220.299 49.824C219.944 50.608 219.459 51.308 218.843 51.924C218.227 52.54 217.527 53.0253 216.743 53.38C215.978 53.716 215.175 53.884 214.335 53.884C214.204 53.884 213.915 53.856 213.467 53.8C213.019 53.7253 212.664 53.6507 212.403 53.576C212.216 53.5387 212.067 53.464 211.955 53.352C211.918 53.3333 211.852 53.3053 211.759 53.268C211.666 53.212 211.6 53.184 211.563 53.184C211.694 53.7253 211.964 54.1827 212.375 54.556C212.804 54.9107 213.29 55.172 213.831 55.34C214.391 55.508 214.923 55.592 215.427 55.592C215.782 55.592 216.136 55.5733 216.491 55.536C216.864 55.48 217.256 55.452 217.667 55.452C218.078 55.452 218.432 55.564 218.731 55.788C219.03 56.012 219.179 56.376 219.179 56.88C219.179 57.2907 219.048 57.608 218.787 57.832C218.544 58.056 218.227 58.2053 217.835 58.28C217.462 58.3547 217.079 58.392 216.687 58.392C216.314 58.4107 215.987 58.42 215.707 58.42ZM214.335 50.636C214.895 50.636 215.446 50.5333 215.987 50.328C216.547 50.104 217.004 49.7773 217.359 49.348C217.732 48.9187 217.919 48.3867 217.919 47.752C217.919 47.2107 217.751 46.7813 217.415 46.464C217.098 46.1467 216.668 45.988 216.127 45.988C215.642 45.988 215.128 46.1187 214.587 46.38C214.046 46.6413 213.532 46.9773 213.047 47.388C212.58 47.7987 212.198 48.2467 211.899 48.732C211.6 49.1987 211.451 49.656 211.451 50.104V50.216C211.936 50.2907 212.422 50.384 212.907 50.496C213.392 50.5893 213.868 50.636 214.335 50.636ZM229.867 58.42C229.344 58.42 228.747 58.3733 228.075 58.28C227.403 58.2053 226.749 58.056 226.115 57.832C225.48 57.608 224.948 57.272 224.519 56.824C224.108 56.376 223.903 55.788 223.903 55.06C223.903 54.5747 224.024 54.1547 224.267 53.8C224.509 53.4267 224.901 53.24 225.443 53.24C225.779 53.24 226.04 53.324 226.227 53.492C226.413 53.66 226.572 53.8653 226.703 54.108C226.852 54.3507 227.02 54.6027 227.207 54.864C227.412 55.1067 227.683 55.312 228.019 55.48C228.373 55.648 228.849 55.732 229.447 55.732C229.876 55.732 230.343 55.6853 230.847 55.592C231.369 55.48 231.817 55.284 232.191 55.004C232.564 54.724 232.751 54.3413 232.751 53.856C232.751 53.4267 232.573 53.0907 232.219 52.848C231.864 52.5867 231.407 52.3627 230.847 52.176C230.287 51.9893 229.699 51.8027 229.083 51.616C228.467 51.4107 227.879 51.1587 227.319 50.86C226.759 50.5613 226.301 50.1693 225.947 49.684C225.592 49.18 225.415 48.536 225.415 47.752C225.415 47.024 225.592 46.3987 225.947 45.876C226.301 45.3533 226.759 44.924 227.319 44.588C227.897 44.2333 228.513 43.9813 229.167 43.832C229.839 43.664 230.483 43.58 231.099 43.58C231.453 43.58 231.864 43.6267 232.331 43.72C232.797 43.7947 233.255 43.9253 233.703 44.112C234.151 44.2987 234.524 44.56 234.823 44.896C235.121 45.2133 235.271 45.6147 235.271 46.1C235.271 46.9587 234.841 47.388 233.983 47.388H233.619C233.059 47.0707 232.583 46.828 232.191 46.66C231.799 46.492 231.351 46.408 230.847 46.408C230.623 46.408 230.305 46.436 229.895 46.492C229.503 46.5293 229.148 46.632 228.831 46.8C228.513 46.968 228.355 47.2387 228.355 47.612C228.355 47.9293 228.532 48.1907 228.887 48.396C229.241 48.6013 229.699 48.7973 230.259 48.984C230.819 49.1707 231.407 49.376 232.023 49.6C232.639 49.824 233.227 50.1133 233.787 50.468C234.347 50.804 234.804 51.2333 235.159 51.756C235.513 52.2787 235.691 52.932 235.691 53.716C235.691 54.8547 235.401 55.7693 234.823 56.46C234.263 57.1507 233.535 57.6547 232.639 57.972C231.761 58.2707 230.837 58.42 229.867 58.42Z" fill="white"/>
</svg>
