<svg width="306" height="56" viewBox="0 0 306 56" fill="none" xmlns="http://www.w3.org/2000/svg">
<rect width="306" height="56" rx="12" fill="white"/>
<path d="M92 33C95.5455 33 97.5455 30.7955 97.5455 27.1591C97.5455 23.5455 95.5455 21.3636 92.1591 21.3636H88.4091V33H92ZM89.8182 31.75V22.6136H92.0682C94.7955 22.6136 96.1818 24.3409 96.1818 27.1591C96.1818 30 94.7955 31.75 91.9091 31.75H89.8182ZM103.273 33.1818C105.636 33.1818 107.227 31.3864 107.227 28.6818C107.227 25.9545 105.636 24.1591 103.273 24.1591C100.909 24.1591 99.3182 25.9545 99.3182 28.6818C99.3182 31.3864 100.909 33.1818 103.273 33.1818ZM103.273 31.9773C101.477 31.9773 100.659 30.4318 100.659 28.6818C100.659 26.9318 101.477 25.3636 103.273 25.3636C105.068 25.3636 105.886 26.9318 105.886 28.6818C105.886 30.4318 105.068 31.9773 103.273 31.9773ZM110.955 33H112.273L114.182 26.2955H114.318L116.227 33H117.545L120.205 24.2727H118.795L116.909 30.9318H116.818L114.977 24.2727H113.545L111.682 30.9545H111.591L109.705 24.2727H108.295L110.955 33ZM123.318 27.75C123.318 26.2273 124.261 25.3636 125.545 25.3636C126.79 25.3636 127.545 26.1761 127.545 27.5455V33H128.886V27.4545C128.886 25.2273 127.699 24.1591 125.932 24.1591C124.614 24.1591 123.795 24.75 123.386 25.6364H123.273V24.2727H121.977V33H123.318V27.75ZM132.678 21.3636H131.337V33H132.678V21.3636ZM138.679 33.1818C141.043 33.1818 142.634 31.3864 142.634 28.6818C142.634 25.9545 141.043 24.1591 138.679 24.1591C136.315 24.1591 134.724 25.9545 134.724 28.6818C134.724 31.3864 136.315 33.1818 138.679 33.1818ZM138.679 31.9773C136.884 31.9773 136.065 30.4318 136.065 28.6818C136.065 26.9318 136.884 25.3636 138.679 25.3636C140.474 25.3636 141.293 26.9318 141.293 28.6818C141.293 30.4318 140.474 31.9773 138.679 31.9773ZM147.249 33.2045C148.771 33.2045 149.567 32.3864 149.839 31.8182H149.908V33H151.249V27.25C151.249 24.4773 149.135 24.1591 148.021 24.1591C146.703 24.1591 145.203 24.6136 144.521 26.2045L145.794 26.6591C146.089 26.0227 146.788 25.3409 148.067 25.3409C149.3 25.3409 149.908 25.9943 149.908 27.1136V27.1591C149.908 27.8068 149.249 27.75 147.658 27.9545C146.038 28.1648 144.271 28.5227 144.271 30.5227C144.271 32.2273 145.589 33.2045 147.249 33.2045ZM147.453 32C146.385 32 145.612 31.5227 145.612 30.5909C145.612 29.5682 146.544 29.25 147.589 29.1136C148.158 29.0455 149.68 28.8864 149.908 28.6136V29.8409C149.908 30.9318 149.044 32 147.453 32ZM156.991 33.1818C158.673 33.1818 159.241 32.1364 159.537 31.6591H159.696V33H160.991V21.3636H159.651V25.6591H159.537C159.241 25.2045 158.719 24.1591 157.014 24.1591C154.81 24.1591 153.287 25.9091 153.287 28.6591C153.287 31.4318 154.81 33.1818 156.991 33.1818ZM157.173 31.9773C155.491 31.9773 154.628 30.5 154.628 28.6364C154.628 26.7955 155.469 25.3636 157.173 25.3636C158.81 25.3636 159.673 26.6818 159.673 28.6364C159.673 30.6136 158.787 31.9773 157.173 31.9773ZM170.702 33.2045C172.224 33.2045 173.02 32.3864 173.293 31.8182H173.361V33H174.702V27.25C174.702 24.4773 172.588 24.1591 171.474 24.1591C170.156 24.1591 168.656 24.6136 167.974 26.2045L169.247 26.6591C169.543 26.0227 170.241 25.3409 171.52 25.3409C172.753 25.3409 173.361 25.9943 173.361 27.1136V27.1591C173.361 27.8068 172.702 27.75 171.111 27.9545C169.491 28.1648 167.724 28.5227 167.724 30.5227C167.724 32.2273 169.043 33.2045 170.702 33.2045ZM170.906 32C169.838 32 169.065 31.5227 169.065 30.5909C169.065 29.5682 169.997 29.25 171.043 29.1136C171.611 29.0455 173.134 28.8864 173.361 28.6136V29.8409C173.361 30.9318 172.497 32 170.906 32ZM183.331 26.2273C182.911 24.9886 181.967 24.1591 180.24 24.1591C178.399 24.1591 177.036 25.2045 177.036 26.6818C177.036 27.8864 177.751 28.6932 179.354 29.0682L180.808 29.4091C181.689 29.6136 182.104 30.0341 182.104 30.6364C182.104 31.3864 181.308 32 180.058 32C178.962 32 178.274 31.5284 178.036 30.5909L176.763 30.9091C177.075 32.392 178.297 33.1818 180.081 33.1818C182.109 33.1818 183.49 32.0739 183.49 30.5682C183.49 29.3523 182.729 28.5852 181.172 28.2045L179.876 27.8864C178.842 27.6307 178.376 27.2841 178.376 26.6136C178.376 25.8636 179.172 25.3182 180.24 25.3182C181.411 25.3182 181.893 25.9659 182.126 26.5682L183.331 26.2273ZM190.19 33H191.599V28.75H194.145C196.855 28.75 198.077 27.1023 198.077 25.0455C198.077 22.9886 196.855 21.3636 194.122 21.3636H190.19V33ZM191.599 27.5V22.6136H194.077C195.969 22.6136 196.69 23.6477 196.69 25.0455C196.69 26.4432 195.969 27.5 194.099 27.5H191.599ZM203.938 33C207.483 33 209.483 30.7955 209.483 27.1591C209.483 23.5455 207.483 21.3636 204.097 21.3636H200.347V33H203.938ZM201.756 31.75V22.6136H204.006C206.733 22.6136 208.119 24.3409 208.119 27.1591C208.119 30 206.733 31.75 203.847 31.75H201.756ZM211.847 33H213.256V27.7955H218.301V26.5455H213.256V22.6136H218.824V21.3636H211.847V33Z" fill="#5E5E5E"/>
</svg>
