<svg width="34" height="34" viewBox="0 0 34 34" fill="none" xmlns="http://www.w3.org/2000/svg">
<rect width="34" height="34" rx="5" fill="#026BE3"/>
<g clip-path="url(#clip0_632_3838)">
<path d="M27.1934 8.41742L25.5816 6.80566C25.045 6.26855 24.3411 6 23.6373 6C22.9335 6 22.2297 6.26855 21.6925 6.80523L6.55121 21.9466L6.00551 26.8545C5.93676 27.4723 6.4236 28 7.02817 28C7.06641 28 7.10465 27.9979 7.14375 27.9936L12.0482 27.4517L27.1938 12.3061C28.2676 11.2323 28.2676 9.49121 27.1934 8.41742ZM11.417 26.1386L7.41961 26.5816L7.86477 22.5782L19.2038 11.2392L22.7603 14.7957L11.417 26.1386ZM26.2214 11.3341L23.7323 13.8233L20.1757 10.2668L22.6649 7.77762C22.9245 7.51809 23.2699 7.375 23.6373 7.375C24.0047 7.375 24.3497 7.51809 24.6097 7.77762L26.2214 9.38937C26.7573 9.92562 26.7573 10.7979 26.2214 11.3341Z" fill="white"/>
</g>
<defs>
<clipPath id="clip0_632_3838">
<rect width="22" height="22" fill="white" transform="translate(6 6)"/>
</clipPath>
</defs>
</svg>
