<svg width="72" height="72" viewBox="0 0 72 72" fill="none" xmlns="http://www.w3.org/2000/svg">
<path d="M63 0H9C4.03594 0 0 4.03594 0 9V49.5C0 54.4641 4.03594 58.5 9 58.5H22.5V70.3125C22.5 71.3109 23.3156 72 24.1875 72C24.525 72 24.8766 71.9016 25.1859 71.6625L42.75 58.5H63C67.9641 58.5 72 54.4641 72 49.5V9C72 4.03594 67.9641 0 63 0ZM67.5 49.5C67.5 51.975 65.475 54 63 54H41.2453L40.05 54.9L27 64.6875V54H9C6.525 54 4.5 51.975 4.5 49.5V9C4.5 6.525 6.525 4.5 9 4.5H63C65.475 4.5 67.5 6.525 67.5 9V49.5ZM47.25 14.8219C45.4922 13.0641 42.6375 13.0641 40.8937 14.8219L23.1609 32.5406C22.8797 32.8219 22.6828 33.1734 22.5703 33.5672L20.3203 42.1734C20.1234 42.9469 20.3344 43.7625 20.9109 44.3391C21.3328 44.7609 21.9094 45 22.5 45C22.6828 45 22.8797 44.9719 23.0625 44.9297L31.6687 42.6797C32.0625 42.5812 32.4141 42.3703 32.6953 42.0891L50.4281 24.3562C52.1859 22.5984 52.1859 19.7437 50.4281 18L47.25 14.8219ZM29.9531 38.475L25.65 39.6L26.775 35.2969L37.3219 24.75L40.5 27.9281L29.9531 38.475ZM43.6781 24.75L40.5 21.5719L44.0719 18L47.25 21.1781L43.6781 24.75Z" fill="#026BE3"/>
</svg>
