<svg width="72" height="72" viewBox="0 0 72 72" fill="none" xmlns="http://www.w3.org/2000/svg">
<g clip-path="url(#clip0_518_2066)">
<path d="M41.0625 63H30.9375C30.0094 63 29.25 62.2406 29.25 61.3125V60.1875C29.25 59.2594 30.0094 58.5 30.9375 58.5H41.0625C41.9906 58.5 42.75 59.2594 42.75 60.1875V61.3125C42.75 62.2406 41.9906 63 41.0625 63ZM58.5 6.75V65.25C58.5 68.9766 55.4766 72 51.75 72H20.25C16.5234 72 13.5 68.9766 13.5 65.25V6.75C13.5 3.02344 16.5234 0 20.25 0H51.75C55.4766 0 58.5 3.02344 58.5 6.75ZM54 6.75C54 5.5125 52.9875 4.5 51.75 4.5H20.25C19.0125 4.5 18 5.5125 18 6.75V65.25C18 66.4875 19.0125 67.5 20.25 67.5H51.75C52.9875 67.5 54 66.4875 54 65.25V6.75Z" fill="#026BE3"/>
</g>
<defs>
<clipPath id="clip0_518_2066">
<rect width="45" height="72" fill="white" transform="translate(13.5)"/>
</clipPath>
</defs>
</svg>
