<svg width="306" height="86" viewBox="0 0 306 86" fill="none" xmlns="http://www.w3.org/2000/svg">
<rect width="306" height="86" rx="8" fill="#2C2C2C"/>
<path d="M112.119 66L113.979 60.4407H122.456L124.327 66H128.687L120.739 43.4545H115.697L107.76 66H112.119ZM115.08 57.1602L118.13 48.0781H118.306L121.355 57.1602H115.08ZM131.48 72.3409H135.465V63.3359H135.63C136.258 64.5689 137.568 66.2972 140.474 66.2972C144.459 66.2972 147.443 63.1378 147.443 57.5675C147.443 51.9311 144.371 48.8707 140.463 48.8707C137.48 48.8707 136.236 50.6651 135.63 51.8871H135.399V49.0909H131.48V72.3409ZM135.388 57.5455C135.388 54.2649 136.797 52.1403 139.362 52.1403C142.015 52.1403 143.38 54.397 143.38 57.5455C143.38 60.7159 141.993 63.0277 139.362 63.0277C136.819 63.0277 135.388 60.826 135.388 57.5455ZM150.855 72.3409H154.84V63.3359H155.005C155.633 64.5689 156.943 66.2972 159.849 66.2972C163.834 66.2972 166.818 63.1378 166.818 57.5675C166.818 51.9311 163.746 48.8707 159.838 48.8707C156.855 48.8707 155.611 50.6651 155.005 51.8871H154.774V49.0909H150.855V72.3409ZM154.763 57.5455C154.763 54.2649 156.172 52.1403 158.737 52.1403C161.39 52.1403 162.755 54.397 162.755 57.5455C162.755 60.7159 161.368 63.0277 158.737 63.0277C156.194 63.0277 154.763 60.826 154.763 57.5455ZM190.348 49.6523H194.278C194.201 45.8434 190.954 43.1463 186.154 43.1463C181.42 43.1463 177.865 45.8104 177.876 49.7955C177.876 53.032 180.176 54.8924 183.886 55.8501L186.451 56.5107C188.884 57.1271 190.491 57.8867 190.502 59.6371C190.491 61.5636 188.664 62.8516 186 62.8516C183.446 62.8516 181.464 61.7067 181.299 59.3398H177.281C177.446 63.8203 180.782 66.3413 186.033 66.3413C191.438 66.3413 194.576 63.6442 194.587 59.6701C194.576 55.7621 191.35 53.9787 187.959 53.1751L185.846 52.6467C183.996 52.2063 181.993 51.4247 182.015 49.5423C182.026 47.8469 183.545 46.603 186.099 46.603C188.532 46.603 190.139 47.7369 190.348 49.6523ZM206.495 49.0909H203.159V45.0398H199.174V49.0909H196.775V52.1733H199.174V61.5746C199.152 64.756 201.464 66.3192 204.458 66.2312C205.592 66.1982 206.374 65.978 206.803 65.8349L206.132 62.7195C205.912 62.7745 205.46 62.8736 204.965 62.8736C203.963 62.8736 203.159 62.5213 203.159 60.9141V52.1733H206.495V49.0909ZM217.022 66.3303C221.976 66.3303 225.124 62.8406 225.124 57.6115C225.124 52.3714 221.976 48.8707 217.022 48.8707C212.068 48.8707 208.92 52.3714 208.92 57.6115C208.92 62.8406 212.068 66.3303 217.022 66.3303ZM217.044 63.1378C214.303 63.1378 212.96 60.6939 212.96 57.6005C212.96 54.5071 214.303 52.0302 217.044 52.0302C219.741 52.0302 221.084 54.5071 221.084 57.6005C221.084 60.6939 219.741 63.1378 217.044 63.1378ZM228.507 66H232.492V56.0593C232.492 53.9126 234.11 52.3935 236.301 52.3935C236.972 52.3935 237.809 52.5146 238.15 52.6246V48.9588C237.787 48.8928 237.159 48.8487 236.719 48.8487C234.781 48.8487 233.163 49.9496 232.547 51.9091H232.371V49.0909H228.507V66ZM247.587 66.3303C251.528 66.3303 254.236 64.4038 254.941 61.4645L251.22 61.0462C250.68 62.4773 249.359 63.2259 247.642 63.2259C245.066 63.2259 243.36 61.5305 243.327 58.6353H255.106V57.4134C255.106 51.4798 251.539 48.8707 247.378 48.8707C242.534 48.8707 239.375 52.4265 239.375 57.6445C239.375 62.9506 242.49 66.3303 247.587 66.3303ZM243.338 55.9492C243.459 53.7915 245.055 51.9751 247.433 51.9751C249.723 51.9751 251.264 53.6484 251.286 55.9492H243.338Z" fill="white"/>
<path d="M111.688 30C115.011 30 116.886 27.9332 116.886 24.5241C116.886 21.1364 115.011 19.0909 111.837 19.0909H108.321V30H111.688ZM109.642 28.8281V20.2628H111.751C114.308 20.2628 115.608 21.8821 115.608 24.5241C115.608 27.1875 114.308 28.8281 111.602 28.8281H109.642ZM122.256 30.1705C124.472 30.1705 125.963 28.4872 125.963 25.9517C125.963 23.3949 124.472 21.7116 122.256 21.7116C120.04 21.7116 118.548 23.3949 118.548 25.9517C118.548 28.4872 120.04 30.1705 122.256 30.1705ZM122.256 29.0412C120.572 29.0412 119.805 27.5923 119.805 25.9517C119.805 24.3111 120.572 22.8409 122.256 22.8409C123.939 22.8409 124.706 24.3111 124.706 25.9517C124.706 27.5923 123.939 29.0412 122.256 29.0412ZM129.457 30H130.693L132.483 23.7145H132.611L134.401 30H135.636L138.129 21.8182H136.808L135.04 28.0611H134.955L133.229 21.8182H131.886L130.139 28.0824H130.054L128.286 21.8182H126.964L129.457 30ZM141.048 25.0781C141.048 23.6506 141.933 22.8409 143.136 22.8409C144.303 22.8409 145.011 23.6026 145.011 24.8864V30H146.268V24.8011C146.268 22.7131 145.155 21.7116 143.499 21.7116C142.263 21.7116 141.496 22.2656 141.112 23.0966H141.006V21.8182H139.791V30H141.048V25.0781ZM149.823 19.0909H148.566V30H149.823V19.0909ZM155.449 30.1705C157.665 30.1705 159.156 28.4872 159.156 25.9517C159.156 23.3949 157.665 21.7116 155.449 21.7116C153.233 21.7116 151.742 23.3949 151.742 25.9517C151.742 28.4872 153.233 30.1705 155.449 30.1705ZM155.449 29.0412C153.766 29.0412 152.999 27.5923 152.999 25.9517C152.999 24.3111 153.766 22.8409 155.449 22.8409C157.132 22.8409 157.899 24.3111 157.899 25.9517C157.899 27.5923 157.132 29.0412 155.449 29.0412ZM163.483 30.1918C164.911 30.1918 165.656 29.4247 165.912 28.892H165.976V30H167.233V24.6094C167.233 22.0099 165.252 21.7116 164.207 21.7116C162.972 21.7116 161.565 22.1378 160.926 23.6293L162.119 24.0554C162.396 23.4588 163.052 22.8196 164.25 22.8196C165.406 22.8196 165.976 23.4322 165.976 24.4815V24.5241C165.976 25.1314 165.358 25.0781 163.867 25.2699C162.348 25.467 160.692 25.8026 160.692 27.6776C160.692 29.2756 161.928 30.1918 163.483 30.1918ZM163.675 29.0625C162.673 29.0625 161.949 28.6151 161.949 27.7415C161.949 26.7827 162.823 26.4844 163.803 26.3565C164.335 26.2926 165.763 26.1435 165.976 25.8878V27.0384C165.976 28.0611 165.166 29.0625 163.675 29.0625ZM172.617 30.1705C174.194 30.1705 174.726 29.1903 175.003 28.7429H175.153V30H176.367V19.0909H175.11V23.1179H175.003C174.726 22.6918 174.236 21.7116 172.638 21.7116C170.572 21.7116 169.144 23.3523 169.144 25.9304C169.144 28.5298 170.572 30.1705 172.617 30.1705ZM172.787 29.0412C171.211 29.0412 170.401 27.6562 170.401 25.9091C170.401 24.1832 171.189 22.8409 172.787 22.8409C174.322 22.8409 175.131 24.0767 175.131 25.9091C175.131 27.7628 174.3 29.0412 172.787 29.0412ZM186.387 30.1705C188.602 30.1705 190.094 28.4872 190.094 25.9517C190.094 23.3949 188.602 21.7116 186.387 21.7116C184.171 21.7116 182.679 23.3949 182.679 25.9517C182.679 28.4872 184.171 30.1705 186.387 30.1705ZM186.387 29.0412C184.703 29.0412 183.936 27.5923 183.936 25.9517C183.936 24.3111 184.703 22.8409 186.387 22.8409C188.07 22.8409 188.837 24.3111 188.837 25.9517C188.837 27.5923 188.07 29.0412 186.387 29.0412ZM193.27 25.0781C193.27 23.6506 194.154 22.8409 195.358 22.8409C196.525 22.8409 197.233 23.6026 197.233 24.8864V30H198.49V24.8011C198.49 22.7131 197.377 21.7116 195.72 21.7116C194.484 21.7116 193.717 22.2656 193.334 23.0966H193.227V21.8182H192.013V30H193.27V25.0781ZM208.564 21.8182H206.817V19.858H205.56V21.8182H204.324V22.8835H205.56V27.9972C205.56 29.4247 206.711 30.1065 207.776 30.1065C208.245 30.1065 208.543 30.0213 208.713 29.9574L208.458 28.8281C208.351 28.8494 208.181 28.892 207.904 28.892C207.35 28.892 206.817 28.7216 206.817 27.6562V22.8835H208.564V21.8182ZM211.888 25.0781C211.888 23.6506 212.799 22.8409 214.04 22.8409C215.223 22.8409 215.936 23.5866 215.936 24.8864V30H217.194V24.8011C217.194 22.6971 216.075 21.7116 214.402 21.7116C213.113 21.7116 212.378 22.2496 211.995 23.0966H211.888V19.0909H210.631V30H211.888V25.0781ZM222.924 30.1705C224.586 30.1705 225.8 29.3395 226.184 28.1037L224.969 27.7628C224.65 28.6151 223.909 29.0412 222.924 29.0412C221.448 29.0412 220.431 28.0877 220.372 26.3352H226.312V25.8026C226.312 22.7557 224.5 21.7116 222.796 21.7116C220.58 21.7116 219.11 23.4588 219.11 25.973C219.11 28.4872 220.559 30.1705 222.924 30.1705ZM220.372 25.2486C220.457 23.9755 221.358 22.8409 222.796 22.8409C224.16 22.8409 225.033 23.8636 225.033 25.2486H220.372Z" fill="white"/>
<g clip-path="url(#clip0_669_2890)">
<path d="M44.6785 36.3801C40.4514 43.7154 43.1387 54.847 47.8131 61.5965C50.1464 64.971 52.5087 68 55.7442 68C55.8052 68 55.8664 67.9988 55.929 67.9964C57.4491 67.9357 58.5477 67.4677 59.6098 67.0154C60.8023 66.5072 62.0355 65.9818 63.97 65.9818C65.8103 65.9818 66.9847 66.4901 68.1205 66.9816C69.2398 67.4659 70.3928 67.9669 72.0964 67.9349C75.741 67.867 77.9787 64.5985 79.9529 61.7151C82.0131 58.7044 83.0465 55.7813 83.3952 54.6642L83.4093 54.6198C83.4757 54.4213 83.3819 54.2046 83.1916 54.1172C83.1864 54.1147 83.167 54.1067 83.1616 54.1044C82.5198 53.8419 76.89 51.3444 76.8308 44.5372C76.7759 39.0067 81.0542 36.078 81.9123 35.5472L81.9523 35.5223C82.0452 35.4624 82.11 35.3675 82.1319 35.259C82.1539 35.1506 82.131 35.0378 82.0687 34.9467C79.1155 30.6251 74.5893 29.9737 72.767 29.8954C72.5026 29.869 72.2296 29.8557 71.9555 29.8557C69.8152 29.8557 67.7649 30.6641 66.1177 31.3136C64.9806 31.7619 63.9985 32.1492 63.3211 32.1492C62.56 32.1492 61.5723 31.7572 60.4285 31.3034C58.899 30.6964 57.1654 30.0085 55.3301 30.0085C55.2864 30.0085 55.2432 30.009 55.2008 30.0098C50.9336 30.0726 46.9014 32.5139 44.6785 36.3801Z" fill="white"/>
<path d="M72.7707 18.0003C70.1866 18.1056 67.0867 19.6962 65.234 21.8664C63.6594 23.6905 62.1212 26.7318 62.5264 29.7974C62.5518 29.9892 62.7079 30.1372 62.9008 30.1521C63.0753 30.1657 63.2533 30.1726 63.4307 30.1728C65.9574 30.1728 68.6831 28.7749 70.5446 26.5241C72.5038 24.1474 73.4945 21.0972 73.1948 18.3651C73.1712 18.151 72.9828 17.992 72.7707 18.0003Z" fill="white"/>
</g>
<defs>
<clipPath id="clip0_669_2890">
<rect width="50" height="50" fill="white" transform="translate(38 18)"/>
</clipPath>
</defs>
</svg>
