<svg width="864" height="1376" viewBox="0 0 864 1376" fill="none" xmlns="http://www.w3.org/2000/svg">
<g filter="url(#filter0_d_939_1605)">
<path d="M776 57H88C76.9543 57 68 65.9543 68 77V1277C68 1288.05 76.9543 1297 88 1297H776C787.046 1297 796 1288.05 796 1277V77C796 65.9543 787.046 57 776 57Z" fill="#FFFFFE"/>
<path d="M114.5 164.5H749.5" stroke="black" stroke-opacity="0.1" stroke-linecap="round"/>
<path d="M114.5 1068.5H749.5" stroke="black" stroke-opacity="0.1" stroke-linecap="round"/>
<path d="M114.5 616.5H749.5" stroke="black" stroke-opacity="0.1" stroke-linecap="round"/>
<path d="M114.5 277.5H749.5" stroke="black" stroke-opacity="0.1" stroke-linecap="round"/>
<path d="M114.5 1181.5H749.5" stroke="black" stroke-opacity="0.1" stroke-linecap="round"/>
<path d="M114.5 729.5H749.5" stroke="black" stroke-opacity="0.1" stroke-linecap="round"/>
<path d="M114.5 390.5H749.5" stroke="black" stroke-opacity="0.1" stroke-linecap="round"/>
<path d="M114.5 842.5H749.5" stroke="black" stroke-opacity="0.1" stroke-linecap="round"/>
<path d="M114.5 503.5H749.5" stroke="black" stroke-opacity="0.1" stroke-linecap="round"/>
<path d="M114.5 955.5H749.5" stroke="black" stroke-opacity="0.1" stroke-linecap="round"/>
<path d="M227.753 127H230.389L234.207 113.591H234.48L238.298 127H240.935L246.253 109.545H243.435L239.662 122.864H239.48L235.798 109.545H232.935L229.207 122.909H229.026L225.253 109.545H222.435L227.753 127ZM252.48 116.5C252.48 113.454 254.423 111.727 257.071 111.727C259.594 111.727 261.116 113.318 261.116 116.091V127H263.798V115.909C263.798 111.42 261.412 109.318 257.844 109.318C255.094 109.318 253.526 110.466 252.707 112.273H252.48V103.727H249.798V127H252.48V116.5ZM275.795 127.364C280.523 127.364 283.705 123.773 283.705 118.364C283.705 112.909 280.523 109.318 275.795 109.318C271.068 109.318 267.886 112.909 267.886 118.364C267.886 123.773 271.068 127.364 275.795 127.364ZM275.795 124.954C272.205 124.954 270.568 121.864 270.568 118.364C270.568 114.864 272.205 111.727 275.795 111.727C279.386 111.727 281.023 114.864 281.023 118.364C281.023 121.864 279.386 124.954 275.795 124.954ZM290.48 103.727H287.798V127H290.48V103.727ZM302.71 127.364C306.256 127.364 308.847 125.591 309.665 122.954L307.074 122.227C306.392 124.045 304.812 124.954 302.71 124.954C299.562 124.954 297.392 122.92 297.267 119.182H309.938V118.045C309.938 111.545 306.074 109.318 302.438 109.318C297.71 109.318 294.574 113.045 294.574 118.409C294.574 123.773 297.665 127.364 302.71 127.364ZM297.267 116.864C297.449 114.148 299.369 111.727 302.438 111.727C305.347 111.727 307.21 113.909 307.21 116.864H297.267ZM326.972 127H329.608L333.426 113.591H333.699L337.517 127H340.153L345.472 109.545H342.653L338.881 122.864H338.699L335.017 109.545H332.153L328.426 122.909H328.244L324.472 109.545H321.653L326.972 127ZM351.699 116.5C351.699 113.454 353.642 111.727 356.29 111.727C358.812 111.727 360.335 113.318 360.335 116.091V127H363.017V115.909C363.017 111.42 360.631 109.318 357.062 109.318C354.312 109.318 352.744 110.466 351.926 112.273H351.699V103.727H349.017V127H351.699V116.5ZM375.241 127.364C378.787 127.364 381.378 125.591 382.196 122.954L379.605 122.227C378.923 124.045 377.344 124.954 375.241 124.954C372.094 124.954 369.923 122.92 369.798 119.182H382.469V118.045C382.469 111.545 378.605 109.318 374.969 109.318C370.241 109.318 367.105 113.045 367.105 118.409C367.105 123.773 370.196 127.364 375.241 127.364ZM369.798 116.864C369.98 114.148 371.901 111.727 374.969 111.727C377.878 111.727 379.741 113.909 379.741 116.864H369.798ZM391.685 127.409C394.73 127.409 396.321 125.773 396.866 124.636H397.003V127H399.685V115.5C399.685 109.954 395.457 109.318 393.23 109.318C390.594 109.318 387.594 110.227 386.23 113.409L388.776 114.318C389.366 113.045 390.764 111.682 393.321 111.682C395.787 111.682 397.003 112.989 397.003 115.227V115.318C397.003 116.614 395.685 116.5 392.503 116.909C389.264 117.329 385.73 118.045 385.73 122.045C385.73 125.454 388.366 127.409 391.685 127.409ZM392.094 125C389.957 125 388.412 124.045 388.412 122.182C388.412 120.136 390.276 119.5 392.366 119.227C393.503 119.091 396.548 118.773 397.003 118.227V120.682C397.003 122.864 395.276 125 392.094 125ZM412.17 109.545H408.443V105.364H405.761V109.545H403.125V111.818H405.761V122.727C405.761 125.773 408.216 127.227 410.489 127.227C411.489 127.227 412.125 127.045 412.489 126.909L411.943 124.5C411.716 124.545 411.352 124.636 410.761 124.636C409.58 124.636 408.443 124.273 408.443 122V111.818H412.17V109.545ZM425.205 133.545H427.886V124.318H428.114C428.705 125.273 429.841 127.364 433.205 127.364C437.568 127.364 440.614 123.864 440.614 118.318C440.614 112.818 437.568 109.318 433.159 109.318C429.75 109.318 428.705 111.409 428.114 112.318H427.795V109.545H425.205V133.545ZM427.841 118.273C427.841 114.364 429.568 111.727 432.841 111.727C436.25 111.727 437.932 114.591 437.932 118.273C437.932 122 436.205 124.954 432.841 124.954C429.614 124.954 427.841 122.227 427.841 118.273ZM449.841 127.409C452.886 127.409 454.477 125.773 455.023 124.636H455.159V127H457.841V115.5C457.841 109.954 453.614 109.318 451.386 109.318C448.75 109.318 445.75 110.227 444.386 113.409L446.932 114.318C447.523 113.045 448.92 111.682 451.477 111.682C453.943 111.682 455.159 112.989 455.159 115.227V115.318C455.159 116.614 453.841 116.5 450.659 116.909C447.42 117.329 443.886 118.045 443.886 122.045C443.886 125.454 446.523 127.409 449.841 127.409ZM450.25 125C448.114 125 446.568 124.045 446.568 122.182C446.568 120.136 448.432 119.5 450.523 119.227C451.659 119.091 454.705 118.773 455.159 118.227V120.682C455.159 122.864 453.432 125 450.25 125ZM475.099 113.454C474.259 110.977 472.372 109.318 468.918 109.318C465.236 109.318 462.509 111.409 462.509 114.364C462.509 116.773 463.94 118.386 467.145 119.136L470.054 119.818C471.815 120.227 472.645 121.068 472.645 122.273C472.645 123.773 471.054 125 468.554 125C466.361 125 464.986 124.057 464.509 122.182L461.963 122.818C462.588 125.784 465.031 127.364 468.599 127.364C472.656 127.364 475.418 125.148 475.418 122.136C475.418 119.704 473.895 118.17 470.781 117.409L468.19 116.773C466.122 116.261 465.19 115.568 465.19 114.227C465.19 112.727 466.781 111.636 468.918 111.636C471.259 111.636 472.224 112.932 472.69 114.136L475.099 113.454ZM487.045 109.545H483.318V105.364H480.636V109.545H478V111.818H480.636V122.727C480.636 125.773 483.091 127.227 485.364 127.227C486.364 127.227 487 127.045 487.364 126.909L486.818 124.5C486.591 124.545 486.227 124.636 485.636 124.636C484.455 124.636 483.318 124.273 483.318 122V111.818H487.045V109.545ZM496.216 127.409C499.261 127.409 500.852 125.773 501.398 124.636H501.534V127H504.216V115.5C504.216 109.954 499.989 109.318 497.761 109.318C495.125 109.318 492.125 110.227 490.761 113.409L493.307 114.318C493.898 113.045 495.295 111.682 497.852 111.682C500.318 111.682 501.534 112.989 501.534 115.227V115.318C501.534 116.614 500.216 116.5 497.034 116.909C493.795 117.329 490.261 118.045 490.261 122.045C490.261 125.454 492.898 127.409 496.216 127.409ZM496.625 125C494.489 125 492.943 124.045 492.943 122.182C492.943 120.136 494.807 119.5 496.898 119.227C498.034 119.091 501.08 118.773 501.534 118.227V120.682C501.534 122.864 499.807 125 496.625 125Z" fill="#545454" fill-opacity="0.88"/>
<path d="M231.592 574.364C235.456 574.364 238.001 572 238.456 568.909H235.774C235.274 570.818 233.683 571.955 231.592 571.955C228.411 571.955 226.365 569.318 226.365 565.273C226.365 561.318 228.456 558.727 231.592 558.727C233.956 558.727 235.365 560.182 235.774 561.773H238.456C238.001 558.5 235.229 556.318 231.547 556.318C226.82 556.318 223.683 560.045 223.683 565.364C223.683 570.591 226.683 574.364 231.592 574.364ZM247.513 574.409C250.558 574.409 252.149 572.773 252.695 571.636H252.831V574H255.513V562.5C255.513 556.955 251.286 556.318 249.058 556.318C246.422 556.318 243.422 557.227 242.058 560.409L244.604 561.318C245.195 560.045 246.592 558.682 249.149 558.682C251.615 558.682 252.831 559.989 252.831 562.227V562.318C252.831 563.614 251.513 563.5 248.331 563.909C245.092 564.33 241.558 565.045 241.558 569.045C241.558 572.455 244.195 574.409 247.513 574.409ZM247.922 572C245.786 572 244.24 571.045 244.24 569.182C244.24 567.136 246.104 566.5 248.195 566.227C249.331 566.091 252.376 565.773 252.831 565.227V567.682C252.831 569.864 251.104 572 247.922 572ZM260.408 574H263.089V562.955C263.089 560.591 264.953 558.864 267.499 558.864C268.214 558.864 268.953 559 269.135 559.045V556.318C268.828 556.295 268.124 556.273 267.726 556.273C265.635 556.273 263.817 557.455 263.18 559.182H262.999V556.545H260.408V574ZM272.314 574H274.996V562.955C274.996 560.591 276.859 558.864 279.405 558.864C280.121 558.864 280.859 559 281.041 559.045V556.318C280.734 556.295 280.03 556.273 279.632 556.273C277.541 556.273 275.723 557.455 275.087 559.182H274.905V556.545H272.314V574ZM290.78 574.364C295.507 574.364 298.689 570.773 298.689 565.364C298.689 559.909 295.507 556.318 290.78 556.318C286.053 556.318 282.871 559.909 282.871 565.364C282.871 570.773 286.053 574.364 290.78 574.364ZM290.78 571.955C287.189 571.955 285.553 568.864 285.553 565.364C285.553 561.864 287.189 558.727 290.78 558.727C294.371 558.727 296.007 561.864 296.007 565.364C296.007 568.864 294.371 571.955 290.78 571.955ZM310.374 556.545H306.646V552.364H303.964V556.545H301.328V558.818H303.964V569.727C303.964 572.773 306.419 574.227 308.692 574.227C309.692 574.227 310.328 574.045 310.692 573.909L310.146 571.5C309.919 571.545 309.555 571.636 308.964 571.636C307.783 571.636 306.646 571.273 306.646 569V558.818H310.374V556.545Z" fill="#545454" fill-opacity="0.88"/>
<path d="M586.098 569.227H597.053V574H599.734V569.227H602.916V566.727H599.734V550.727H596.325L586.098 566.909V569.227ZM597.053 566.727H589.143V566.545L596.871 554.318H597.053V566.727Z" fill="#545454" fill-opacity="0.88"/>
<path d="M586.722 1139H601.403V1136.5H590.585V1136.32L595.812 1130.73C599.812 1126.44 600.994 1124.44 600.994 1121.86C600.994 1118.27 598.085 1115.41 593.994 1115.41C589.915 1115.41 586.812 1118.18 586.812 1122.27H589.494C589.494 1119.62 591.21 1117.86 593.903 1117.86C596.426 1117.86 598.358 1119.41 598.358 1121.86C598.358 1124.01 597.097 1125.6 594.403 1128.55L586.722 1136.95V1139Z" fill="#545454" fill-opacity="0.88"/>
<path d="M594.585 913.318C599.097 913.318 602.449 910.489 602.449 906.682C602.449 903.727 600.699 901.58 597.767 901.091V900.909C600.119 900.193 601.585 898.261 601.585 895.636C601.585 892.341 598.983 889.409 594.676 889.409C590.653 889.409 587.312 891.886 587.176 895.545H589.903C590.006 893.227 592.21 891.864 594.631 891.864C597.199 891.864 598.858 893.42 598.858 895.773C598.858 898.227 596.938 899.818 594.176 899.818H592.312V902.318H594.176C597.71 902.318 599.676 904.114 599.676 906.682C599.676 909.148 597.528 910.818 594.54 910.818C591.847 910.818 589.71 909.432 589.54 907.182H586.676C586.847 910.841 590.074 913.318 594.585 913.318Z" fill="#545454" fill-opacity="0.88"/>
<path d="M229.81 913.409C232.855 913.409 234.446 911.773 234.991 910.636H235.128V913H237.81V901.5C237.81 895.955 233.582 895.318 231.355 895.318C228.719 895.318 225.719 896.227 224.355 899.409L226.901 900.318C227.491 899.045 228.889 897.682 231.446 897.682C233.912 897.682 235.128 898.989 235.128 901.227V901.318C235.128 902.614 233.81 902.5 230.628 902.909C227.389 903.33 223.855 904.045 223.855 908.045C223.855 911.455 226.491 913.409 229.81 913.409ZM230.219 911C228.082 911 226.537 910.045 226.537 908.182C226.537 906.136 228.401 905.5 230.491 905.227C231.628 905.091 234.673 904.773 235.128 904.227V906.682C235.128 908.864 233.401 911 230.219 911ZM256.352 895.545H253.443L248.625 909.455H248.443L243.625 895.545H240.716L247.17 913H249.898L256.352 895.545ZM266.358 913.364C271.085 913.364 274.267 909.773 274.267 904.364C274.267 898.909 271.085 895.318 266.358 895.318C261.631 895.318 258.449 898.909 258.449 904.364C258.449 909.773 261.631 913.364 266.358 913.364ZM266.358 910.955C262.767 910.955 261.131 907.864 261.131 904.364C261.131 900.864 262.767 897.727 266.358 897.727C269.949 897.727 271.585 900.864 271.585 904.364C271.585 907.864 269.949 910.955 266.358 910.955ZM285.452 913.364C289.315 913.364 291.861 911 292.315 907.909H289.634C289.134 909.818 287.543 910.955 285.452 910.955C282.27 910.955 280.224 908.318 280.224 904.273C280.224 900.318 282.315 897.727 285.452 897.727C287.815 897.727 289.224 899.182 289.634 900.773H292.315C291.861 897.5 289.088 895.318 285.406 895.318C280.679 895.318 277.543 899.045 277.543 904.364C277.543 909.591 280.543 913.364 285.452 913.364ZM301.372 913.409C304.418 913.409 306.009 911.773 306.554 910.636H306.69V913H309.372V901.5C309.372 895.955 305.145 895.318 302.918 895.318C300.281 895.318 297.281 896.227 295.918 899.409L298.463 900.318C299.054 899.045 300.452 897.682 303.009 897.682C305.474 897.682 306.69 898.989 306.69 901.227V901.318C306.69 902.614 305.372 902.5 302.19 902.909C298.952 903.33 295.418 904.045 295.418 908.045C295.418 911.455 298.054 913.409 301.372 913.409ZM301.781 911C299.645 911 298.099 910.045 298.099 908.182C298.099 906.136 299.963 905.5 302.054 905.227C303.19 905.091 306.236 904.773 306.69 904.227V906.682C306.69 908.864 304.963 911 301.781 911ZM320.858 913.364C324.222 913.364 325.358 911.273 325.949 910.318H326.267V913H328.858V889.727H326.176V898.318H325.949C325.358 897.409 324.312 895.318 320.903 895.318C316.494 895.318 313.449 898.818 313.449 904.318C313.449 909.864 316.494 913.364 320.858 913.364ZM321.222 910.955C317.858 910.955 316.131 908 316.131 904.273C316.131 900.591 317.812 897.727 321.222 897.727C324.494 897.727 326.222 900.364 326.222 904.273C326.222 908.227 324.449 910.955 321.222 910.955ZM341.233 913.364C345.96 913.364 349.142 909.773 349.142 904.364C349.142 898.909 345.96 895.318 341.233 895.318C336.506 895.318 333.324 898.909 333.324 904.364C333.324 909.773 336.506 913.364 341.233 913.364ZM341.233 910.955C337.642 910.955 336.006 907.864 336.006 904.364C336.006 900.864 337.642 897.727 341.233 897.727C344.824 897.727 346.46 900.864 346.46 904.364C346.46 907.864 344.824 910.955 341.233 910.955Z" fill="#545454" fill-opacity="0.88"/>
<path d="M224.876 243.545H227.558V234.318H227.786C228.376 235.273 229.513 237.364 232.876 237.364C237.24 237.364 240.286 233.864 240.286 228.318C240.286 222.818 237.24 219.318 232.831 219.318C229.422 219.318 228.376 221.409 227.786 222.318H227.467V219.545H224.876V243.545ZM227.513 228.273C227.513 224.364 229.24 221.727 232.513 221.727C235.922 221.727 237.604 224.591 237.604 228.273C237.604 232 235.876 234.955 232.513 234.955C229.286 234.955 227.513 232.227 227.513 228.273ZM251.695 237.364C255.24 237.364 257.831 235.591 258.649 232.955L256.058 232.227C255.376 234.045 253.797 234.955 251.695 234.955C248.547 234.955 246.376 232.92 246.251 229.182H258.922V228.045C258.922 221.545 255.058 219.318 251.422 219.318C246.695 219.318 243.558 223.045 243.558 228.409C243.558 233.773 246.649 237.364 251.695 237.364ZM246.251 226.864C246.433 224.148 248.354 221.727 251.422 221.727C254.331 221.727 256.195 223.909 256.195 226.864H246.251ZM268.138 237.409C271.183 237.409 272.774 235.773 273.32 234.636H273.456V237H276.138V225.5C276.138 219.955 271.911 219.318 269.683 219.318C267.047 219.318 264.047 220.227 262.683 223.409L265.229 224.318C265.82 223.045 267.217 221.682 269.774 221.682C272.24 221.682 273.456 222.989 273.456 225.227V225.318C273.456 226.614 272.138 226.5 268.956 226.909C265.717 227.33 262.183 228.045 262.183 232.045C262.183 235.455 264.82 237.409 268.138 237.409ZM268.547 235C266.411 235 264.865 234.045 264.865 232.182C264.865 230.136 266.729 229.5 268.82 229.227C269.956 229.091 273.001 228.773 273.456 228.227V230.682C273.456 232.864 271.729 235 268.547 235ZM283.714 226.5C283.714 223.455 285.601 221.727 288.169 221.727C290.658 221.727 292.169 223.352 292.169 226.091V237H294.851V225.909C294.851 221.455 292.476 219.318 288.942 219.318C286.305 219.318 284.669 220.5 283.851 222.273H283.624V219.545H281.033V237H283.714V226.5ZM310.751 229.864C310.751 233.136 308.251 234.636 306.251 234.636C304.024 234.636 302.433 233 302.433 230.455V219.545H299.751V230.636C299.751 235.091 302.115 237.227 305.388 237.227C308.024 237.227 309.751 235.818 310.57 234.045H310.751V237H313.433V219.545H310.751V229.864ZM325.936 219.545H322.209V215.364H319.527V219.545H316.891V221.818H319.527V232.727C319.527 235.773 321.982 237.227 324.254 237.227C325.254 237.227 325.891 237.045 326.254 236.909L325.709 234.5C325.482 234.545 325.118 234.636 324.527 234.636C323.345 234.636 322.209 234.273 322.209 232V221.818H325.936V219.545ZM339.334 237H341.925V234.318H342.243C342.834 235.273 343.97 237.364 347.334 237.364C351.697 237.364 354.743 233.864 354.743 228.318C354.743 222.818 351.697 219.318 347.288 219.318C343.879 219.318 342.834 221.409 342.243 222.318H342.016V213.727H339.334V237ZM341.97 228.273C341.97 224.364 343.697 221.727 346.97 221.727C350.379 221.727 352.061 224.591 352.061 228.273C352.061 232 350.334 234.955 346.97 234.955C343.743 234.955 341.97 232.227 341.97 228.273ZM369.845 229.864C369.845 233.136 367.345 234.636 365.345 234.636C363.118 234.636 361.527 233 361.527 230.455V219.545H358.845V230.636C358.845 235.091 361.209 237.227 364.482 237.227C367.118 237.227 368.845 235.818 369.663 234.045H369.845V237H372.527V219.545H369.845V229.864ZM385.03 219.545H381.303V215.364H378.621V219.545H375.984V221.818H378.621V232.727C378.621 235.773 381.075 237.227 383.348 237.227C384.348 237.227 384.984 237.045 385.348 236.909L384.803 234.5C384.575 234.545 384.212 234.636 383.621 234.636C382.439 234.636 381.303 234.273 381.303 232V221.818H385.03V219.545ZM396.655 219.545H392.928V215.364H390.246V219.545H387.609V221.818H390.246V232.727C390.246 235.773 392.7 237.227 394.973 237.227C395.973 237.227 396.609 237.045 396.973 236.909L396.428 234.5C396.2 234.545 395.837 234.636 395.246 234.636C394.064 234.636 392.928 234.273 392.928 232V221.818H396.655V219.545ZM407.82 237.364C411.365 237.364 413.956 235.591 414.774 232.955L412.183 232.227C411.501 234.045 409.922 234.955 407.82 234.955C404.672 234.955 402.501 232.92 402.376 229.182H415.047V228.045C415.047 221.545 411.183 219.318 407.547 219.318C402.82 219.318 399.683 223.045 399.683 228.409C399.683 233.773 402.774 237.364 407.82 237.364ZM402.376 226.864C402.558 224.148 404.479 221.727 407.547 221.727C410.456 221.727 412.32 223.909 412.32 226.864H402.376ZM419.126 237H421.808V225.955C421.808 223.591 423.672 221.864 426.217 221.864C426.933 221.864 427.672 222 427.854 222.045V219.318C427.547 219.295 426.842 219.273 426.445 219.273C424.354 219.273 422.536 220.455 421.899 222.182H421.717V219.545H419.126V237Z" fill="#545454" fill-opacity="0.88"/>
<path d="M227.324 665.727H224.642V689H227.324V665.727ZM239.554 689.364C243.099 689.364 245.69 687.591 246.509 684.955L243.918 684.227C243.236 686.045 241.656 686.955 239.554 686.955C236.406 686.955 234.236 684.92 234.111 681.182H246.781V680.045C246.781 673.545 242.918 671.318 239.281 671.318C234.554 671.318 231.418 675.045 231.418 680.409C231.418 685.773 234.509 689.364 239.554 689.364ZM234.111 678.864C234.293 676.148 236.213 673.727 239.281 673.727C242.19 673.727 244.054 675.909 244.054 678.864H234.111ZM255.997 689.409C259.043 689.409 260.634 687.773 261.179 686.636H261.315V689H263.997V677.5C263.997 671.955 259.77 671.318 257.543 671.318C254.906 671.318 251.906 672.227 250.543 675.409L253.088 676.318C253.679 675.045 255.077 673.682 257.634 673.682C260.099 673.682 261.315 674.989 261.315 677.227V677.318C261.315 678.614 259.997 678.5 256.815 678.909C253.577 679.33 250.043 680.045 250.043 684.045C250.043 687.455 252.679 689.409 255.997 689.409ZM256.406 687C254.27 687 252.724 686.045 252.724 684.182C252.724 682.136 254.588 681.5 256.679 681.227C257.815 681.091 260.861 680.773 261.315 680.227V682.682C261.315 684.864 259.588 687 256.406 687ZM271.574 678.5C271.574 675.455 273.46 673.727 276.028 673.727C278.517 673.727 280.028 675.352 280.028 678.091V689H282.71V677.909C282.71 673.455 280.335 671.318 276.801 671.318C274.165 671.318 272.528 672.5 271.71 674.273H271.483V671.545H268.892V689H271.574V678.5ZM296.974 689H299.565V686.318H299.884C300.474 687.273 301.611 689.364 304.974 689.364C309.338 689.364 312.384 685.864 312.384 680.318C312.384 674.818 309.338 671.318 304.929 671.318C301.52 671.318 300.474 673.409 299.884 674.318H299.656V665.727H296.974V689ZM299.611 680.273C299.611 676.364 301.338 673.727 304.611 673.727C308.02 673.727 309.702 676.591 309.702 680.273C309.702 684 307.974 686.955 304.611 686.955C301.384 686.955 299.611 684.227 299.611 680.273ZM323.804 689.364C327.349 689.364 329.94 687.591 330.759 684.955L328.168 684.227C327.486 686.045 325.906 686.955 323.804 686.955C320.656 686.955 318.486 684.92 318.361 681.182H331.031V680.045C331.031 673.545 327.168 671.318 323.531 671.318C318.804 671.318 315.668 675.045 315.668 680.409C315.668 685.773 318.759 689.364 323.804 689.364ZM318.361 678.864C318.543 676.148 320.463 673.727 323.531 673.727C326.44 673.727 328.304 675.909 328.304 678.864H318.361ZM342.429 689.364C345.974 689.364 348.565 687.591 349.384 684.955L346.793 684.227C346.111 686.045 344.531 686.955 342.429 686.955C339.281 686.955 337.111 684.92 336.986 681.182H349.656V680.045C349.656 673.545 345.793 671.318 342.156 671.318C337.429 671.318 334.293 675.045 334.293 680.409C334.293 685.773 337.384 689.364 342.429 689.364ZM336.986 678.864C337.168 676.148 339.088 673.727 342.156 673.727C345.065 673.727 346.929 675.909 346.929 678.864H336.986ZM361.509 671.545H357.599V669.773C357.599 668.045 358.327 667.136 360.099 667.136C360.872 667.136 361.327 667.318 361.599 667.409L362.372 665.091C361.963 664.909 361.145 664.636 359.827 664.636C357.327 664.636 354.918 666.136 354.918 669.136V671.545H352.099V673.818H354.918V689H357.599V673.818H361.509V671.545Z" fill="#545454" fill-opacity="0.88"/>
<path d="M234.101 1024.36C237.646 1024.36 240.237 1022.59 241.055 1019.96L238.464 1019.23C237.783 1021.04 236.203 1021.96 234.101 1021.96C230.953 1021.96 228.783 1019.92 228.658 1016.18H241.328V1015.04C241.328 1008.54 237.464 1006.32 233.828 1006.32C229.101 1006.32 225.964 1010.04 225.964 1015.41C225.964 1020.77 229.055 1024.36 234.101 1024.36ZM228.658 1013.86C228.839 1011.15 230.76 1008.73 233.828 1008.73C236.737 1008.73 238.601 1010.91 238.601 1013.86H228.658ZM252.453 1030.91C256.635 1030.91 259.999 1029 259.999 1024.5V1006.54H257.408V1009.32H257.135C256.544 1008.41 255.453 1006.32 252.044 1006.32C247.635 1006.32 244.589 1009.82 244.589 1015.18C244.589 1020.64 247.771 1023.73 251.999 1023.73C255.408 1023.73 256.499 1021.73 257.089 1020.77H257.317V1024.32C257.317 1027.23 255.271 1028.54 252.453 1028.54C249.283 1028.54 248.169 1026.87 247.453 1025.91L245.317 1027.41C246.408 1029.24 248.555 1030.91 252.453 1030.91ZM252.362 1021.32C248.999 1021.32 247.271 1018.77 247.271 1015.14C247.271 1011.59 248.953 1008.73 252.362 1008.73C255.635 1008.73 257.362 1011.36 257.362 1015.14C257.362 1019 255.589 1021.32 252.362 1021.32ZM271.953 1030.91C276.135 1030.91 279.499 1029 279.499 1024.5V1006.54H276.908V1009.32H276.635C276.044 1008.41 274.953 1006.32 271.544 1006.32C267.135 1006.32 264.089 1009.82 264.089 1015.18C264.089 1020.64 267.271 1023.73 271.499 1023.73C274.908 1023.73 275.999 1021.73 276.589 1020.77H276.817V1024.32C276.817 1027.23 274.771 1028.54 271.953 1028.54C268.783 1028.54 267.669 1026.87 266.953 1025.91L264.817 1027.41C265.908 1029.24 268.055 1030.91 271.953 1030.91ZM271.862 1021.32C268.499 1021.32 266.771 1018.77 266.771 1015.14C266.771 1011.59 268.453 1008.73 271.862 1008.73C275.135 1008.73 276.862 1011.36 276.862 1015.14C276.862 1019 275.089 1021.32 271.862 1021.32ZM296.771 1010.46C295.93 1007.98 294.044 1006.32 290.589 1006.32C286.908 1006.32 284.18 1008.41 284.18 1011.36C284.18 1013.77 285.612 1015.39 288.817 1016.14L291.726 1016.82C293.487 1017.23 294.317 1018.07 294.317 1019.27C294.317 1020.77 292.726 1022 290.226 1022C288.033 1022 286.658 1021.06 286.18 1019.18L283.635 1019.82C284.26 1022.78 286.703 1024.36 290.271 1024.36C294.328 1024.36 297.089 1022.15 297.089 1019.14C297.089 1016.7 295.567 1015.17 292.453 1014.41L289.862 1013.77C287.794 1013.26 286.862 1012.57 286.862 1011.23C286.862 1009.73 288.453 1008.64 290.589 1008.64C292.93 1008.64 293.896 1009.93 294.362 1011.14L296.771 1010.46Z" fill="#545454" fill-opacity="0.88"/>
<path d="M233.639 1139.36C238.366 1139.36 241.548 1135.77 241.548 1130.36C241.548 1124.91 238.366 1121.32 233.639 1121.32C228.912 1121.32 225.73 1124.91 225.73 1130.36C225.73 1135.77 228.912 1139.36 233.639 1139.36ZM233.639 1136.95C230.048 1136.95 228.412 1133.86 228.412 1130.36C228.412 1126.86 230.048 1123.73 233.639 1123.73C237.23 1123.73 238.866 1126.86 238.866 1130.36C238.866 1133.86 237.23 1136.95 233.639 1136.95ZM250.778 1139.41C253.824 1139.41 255.415 1137.77 255.96 1136.64H256.097V1139H258.778V1127.5C258.778 1121.95 254.551 1121.32 252.324 1121.32C249.688 1121.32 246.688 1122.23 245.324 1125.41L247.869 1126.32C248.46 1125.05 249.858 1123.68 252.415 1123.68C254.881 1123.68 256.097 1124.99 256.097 1127.23V1127.32C256.097 1128.61 254.778 1128.5 251.597 1128.91C248.358 1129.33 244.824 1130.05 244.824 1134.05C244.824 1137.45 247.46 1139.41 250.778 1139.41ZM251.188 1137C249.051 1137 247.506 1136.05 247.506 1134.18C247.506 1132.14 249.369 1131.5 251.46 1131.23C252.597 1131.09 255.642 1130.77 256.097 1130.23V1132.68C256.097 1134.86 254.369 1137 251.188 1137ZM271.264 1121.55H267.537V1117.36H264.855V1121.55H262.219V1123.82H264.855V1134.73C264.855 1137.77 267.31 1139.23 269.582 1139.23C270.582 1139.23 271.219 1139.05 271.582 1138.91L271.037 1136.5C270.81 1136.55 270.446 1136.64 269.855 1136.64C268.673 1136.64 267.537 1136.27 267.537 1134V1123.82H271.264V1121.55ZM275.298 1139H277.98V1128.09C277.98 1125.53 279.844 1123.73 281.935 1123.73C283.969 1123.73 285.389 1125.06 285.389 1127.05V1139H288.116V1127.64C288.116 1125.39 289.526 1123.73 291.98 1123.73C293.889 1123.73 295.526 1124.74 295.526 1127.32V1139H298.207V1127.32C298.207 1123.22 296.003 1121.32 292.889 1121.32C290.389 1121.32 288.56 1122.47 287.662 1124.27H287.48C286.616 1122.41 285.094 1121.32 282.798 1121.32C280.526 1121.32 278.844 1122.41 278.116 1124.27H277.889V1121.55H275.298V1139ZM310.429 1139.36C313.974 1139.36 316.565 1137.59 317.384 1134.95L314.793 1134.23C314.111 1136.05 312.531 1136.95 310.429 1136.95C307.281 1136.95 305.111 1134.92 304.986 1131.18H317.656V1130.05C317.656 1123.55 313.793 1121.32 310.156 1121.32C305.429 1121.32 302.293 1125.05 302.293 1130.41C302.293 1135.77 305.384 1139.36 310.429 1139.36ZM304.986 1128.86C305.168 1126.15 307.088 1123.73 310.156 1123.73C313.065 1123.73 314.929 1125.91 314.929 1128.86H304.986ZM326.872 1139.41C329.918 1139.41 331.509 1137.77 332.054 1136.64H332.19V1139H334.872V1127.5C334.872 1121.95 330.645 1121.32 328.418 1121.32C325.781 1121.32 322.781 1122.23 321.418 1125.41L323.963 1126.32C324.554 1125.05 325.952 1123.68 328.509 1123.68C330.974 1123.68 332.19 1124.99 332.19 1127.23V1127.32C332.19 1128.61 330.872 1128.5 327.69 1128.91C324.452 1129.33 320.918 1130.05 320.918 1134.05C320.918 1137.45 323.554 1139.41 326.872 1139.41ZM327.281 1137C325.145 1137 323.599 1136.05 323.599 1134.18C323.599 1132.14 325.463 1131.5 327.554 1131.23C328.69 1131.09 331.736 1130.77 332.19 1130.23V1132.68C332.19 1134.86 330.463 1137 327.281 1137ZM342.449 1115.73H339.767V1139H342.449V1115.73Z" fill="#545454" fill-opacity="0.88"/>
<path d="M231.514 350.386C236.537 350.386 239.918 346.571 239.918 340.824C239.918 335.028 236.537 331.213 231.514 331.213C226.491 331.213 223.111 335.028 223.111 340.824C223.111 346.571 226.491 350.386 231.514 350.386ZM231.514 347.827C227.699 347.827 225.96 344.543 225.96 340.824C225.96 337.105 227.699 333.773 231.514 333.773C235.329 333.773 237.068 337.105 237.068 340.824C237.068 344.543 235.329 347.827 231.514 347.827ZM244.267 350H247.117V338.264C247.117 335.753 249.097 333.918 251.801 333.918C252.562 333.918 253.347 334.062 253.54 334.111V331.213C253.214 331.189 252.465 331.165 252.043 331.165C249.821 331.165 247.889 332.42 247.213 334.256H247.02V331.455H244.267V350ZM262.375 350.435C265.611 350.435 267.301 348.696 267.881 347.489H268.025V350H270.875V337.781C270.875 331.889 266.383 331.213 264.017 331.213C261.216 331.213 258.028 332.179 256.579 335.56L259.284 336.526C259.912 335.173 261.397 333.724 264.114 333.724C266.734 333.724 268.025 335.113 268.025 337.491V337.588C268.025 338.964 266.625 338.844 263.244 339.278C259.803 339.725 256.048 340.486 256.048 344.736C256.048 348.358 258.849 350.435 262.375 350.435ZM262.81 347.875C260.54 347.875 258.898 346.861 258.898 344.881C258.898 342.707 260.878 342.031 263.099 341.741C264.307 341.597 267.543 341.259 268.025 340.679V343.287C268.025 345.605 266.19 347.875 262.81 347.875ZM278.925 338.844C278.925 335.608 280.929 333.773 283.658 333.773C286.302 333.773 287.908 335.499 287.908 338.409V350H290.758V338.216C290.758 333.483 288.234 331.213 284.479 331.213C281.678 331.213 279.939 332.469 279.07 334.352H278.829V331.455H276.076V350H278.925V338.844ZM303.45 357.341C307.893 357.341 311.467 355.312 311.467 350.531V331.455H308.714V334.401H308.425C307.797 333.435 306.638 331.213 303.016 331.213C298.331 331.213 295.095 334.932 295.095 340.631C295.095 346.426 298.476 349.71 302.967 349.71C306.589 349.71 307.748 347.585 308.376 346.571H308.618V350.338C308.618 353.429 306.445 354.83 303.45 354.83C300.082 354.83 298.898 353.055 298.138 352.028L295.868 353.622C297.027 355.566 299.309 357.341 303.45 357.341ZM303.354 347.151C299.78 347.151 297.945 344.446 297.945 340.582C297.945 336.815 299.731 333.773 303.354 333.773C306.831 333.773 308.666 336.574 308.666 340.582C308.666 344.688 306.783 347.151 303.354 347.151ZM324.459 350.386C328.226 350.386 330.979 348.503 331.848 345.702L329.095 344.929C328.371 346.861 326.692 347.827 324.459 347.827C321.114 347.827 318.808 345.665 318.675 341.693H332.138V340.486C332.138 333.58 328.033 331.213 324.169 331.213C319.146 331.213 315.814 335.173 315.814 340.872C315.814 346.571 319.098 350.386 324.459 350.386ZM318.675 339.23C318.869 336.344 320.909 333.773 324.169 333.773C327.26 333.773 329.24 336.091 329.24 339.23H318.675ZM349.609 335.608C348.715 332.976 346.711 331.213 343.04 331.213C339.128 331.213 336.231 333.435 336.231 336.574C336.231 339.134 337.752 340.848 341.157 341.645L344.248 342.369C346.119 342.804 347.001 343.697 347.001 344.977C347.001 346.571 345.31 347.875 342.654 347.875C340.324 347.875 338.863 346.873 338.356 344.881L335.651 345.557C336.315 348.708 338.911 350.386 342.702 350.386C347.013 350.386 349.947 348.032 349.947 344.832C349.947 342.249 348.329 340.619 345.021 339.81L342.268 339.134C340.07 338.59 339.08 337.854 339.08 336.429C339.08 334.835 340.771 333.676 343.04 333.676C345.528 333.676 346.554 335.053 347.049 336.332L349.609 335.608Z" fill="#545454" fill-opacity="0.88"/>
<path d="M226.621 776.727H223.939V800H226.621V776.727ZM231.533 800H234.214V782.545H231.533V800ZM232.896 779.636C233.942 779.636 234.805 778.818 234.805 777.818C234.805 776.818 233.942 776 232.896 776C231.851 776 230.987 776.818 230.987 777.818C230.987 778.818 231.851 779.636 232.896 779.636ZM241.808 789.5C241.808 786.455 243.695 784.727 246.263 784.727C248.751 784.727 250.263 786.352 250.263 789.091V800H252.945V788.909C252.945 784.455 250.57 782.318 247.036 782.318C244.399 782.318 242.763 783.5 241.945 785.273H241.717V782.545H239.126V800H241.808V789.5ZM270.209 786.455C269.368 783.977 267.482 782.318 264.027 782.318C260.345 782.318 257.618 784.409 257.618 787.364C257.618 789.773 259.05 791.386 262.254 792.136L265.163 792.818C266.925 793.227 267.754 794.068 267.754 795.273C267.754 796.773 266.163 798 263.663 798C261.47 798 260.095 797.057 259.618 795.182L257.072 795.818C257.697 798.784 260.141 800.364 263.709 800.364C267.766 800.364 270.527 798.148 270.527 795.136C270.527 792.705 269.004 791.17 265.891 790.409L263.3 789.773C261.232 789.261 260.3 788.568 260.3 787.227C260.3 785.727 261.891 784.636 264.027 784.636C266.368 784.636 267.334 785.932 267.8 787.136L270.209 786.455ZM281.882 800.364C285.428 800.364 288.018 798.591 288.837 795.955L286.246 795.227C285.564 797.045 283.984 797.955 281.882 797.955C278.734 797.955 276.564 795.92 276.439 792.182H289.109V791.045C289.109 784.545 285.246 782.318 281.609 782.318C276.882 782.318 273.746 786.045 273.746 791.409C273.746 796.773 276.837 800.364 281.882 800.364ZM276.439 789.864C276.621 787.148 278.541 784.727 281.609 784.727C284.518 784.727 286.382 786.909 286.382 789.864H276.439ZM300.507 800.364C304.053 800.364 306.643 798.591 307.462 795.955L304.871 795.227C304.189 797.045 302.609 797.955 300.507 797.955C297.359 797.955 295.189 795.92 295.064 792.182H307.734V791.045C307.734 784.545 303.871 782.318 300.234 782.318C295.507 782.318 292.371 786.045 292.371 791.409C292.371 796.773 295.462 800.364 300.507 800.364ZM295.064 789.864C295.246 787.148 297.166 784.727 300.234 784.727C303.143 784.727 305.007 786.909 305.007 789.864H295.064ZM318.405 800.364C321.768 800.364 322.905 798.273 323.496 797.318H323.814V800H326.405V776.727H323.723V785.318H323.496C322.905 784.409 321.859 782.318 318.45 782.318C314.041 782.318 310.996 785.818 310.996 791.318C310.996 796.864 314.041 800.364 318.405 800.364ZM318.768 797.955C315.405 797.955 313.678 795 313.678 791.273C313.678 787.591 315.359 784.727 318.768 784.727C322.041 784.727 323.768 787.364 323.768 791.273C323.768 795.227 321.996 797.955 318.768 797.955ZM347.78 800.364C352.507 800.364 355.689 796.773 355.689 791.364C355.689 785.909 352.507 782.318 347.78 782.318C343.053 782.318 339.871 785.909 339.871 791.364C339.871 796.773 343.053 800.364 347.78 800.364ZM347.78 797.955C344.189 797.955 342.553 794.864 342.553 791.364C342.553 787.864 344.189 784.727 347.78 784.727C351.371 784.727 353.007 787.864 353.007 791.364C353.007 794.864 351.371 797.955 347.78 797.955ZM359.783 800H362.464V782.545H359.783V800ZM361.146 779.636C362.192 779.636 363.055 778.818 363.055 777.818C363.055 776.818 362.192 776 361.146 776C360.101 776 359.237 776.818 359.237 777.818C359.237 778.818 360.101 779.636 361.146 779.636ZM370.058 776.727H367.376V800H370.058V776.727Z" fill="#545454" fill-opacity="0.88"/>
<path d="M235.834 447.455C234.993 444.977 233.107 443.318 229.652 443.318C225.97 443.318 223.243 445.409 223.243 448.364C223.243 450.773 224.675 452.386 227.879 453.136L230.788 453.818C232.55 454.227 233.379 455.068 233.379 456.273C233.379 457.773 231.788 459 229.288 459C227.095 459 225.72 458.057 225.243 456.182L222.697 456.818C223.322 459.784 225.766 461.364 229.334 461.364C233.391 461.364 236.152 459.148 236.152 456.136C236.152 453.705 234.629 452.17 231.516 451.409L228.925 450.773C226.857 450.261 225.925 449.568 225.925 448.227C225.925 446.727 227.516 445.636 229.652 445.636C231.993 445.636 232.959 446.932 233.425 448.136L235.834 447.455ZM245.325 461.409C248.371 461.409 249.962 459.773 250.507 458.636H250.643V461H253.325V449.5C253.325 443.955 249.098 443.318 246.871 443.318C244.234 443.318 241.234 444.227 239.871 447.409L242.416 448.318C243.007 447.045 244.405 445.682 246.962 445.682C249.428 445.682 250.643 446.989 250.643 449.227V449.318C250.643 450.614 249.325 450.5 246.143 450.909C242.905 451.33 239.371 452.045 239.371 456.045C239.371 459.455 242.007 461.409 245.325 461.409ZM245.734 459C243.598 459 242.053 458.045 242.053 456.182C242.053 454.136 243.916 453.5 246.007 453.227C247.143 453.091 250.189 452.773 250.643 452.227V454.682C250.643 456.864 248.916 459 245.734 459ZM260.902 437.727H258.22V461H260.902V437.727ZM265.814 461H268.496V450.091C268.496 447.534 270.359 445.727 272.45 445.727C274.484 445.727 275.905 447.057 275.905 449.045V461H278.632V449.636C278.632 447.386 280.041 445.727 282.496 445.727C284.405 445.727 286.041 446.739 286.041 449.318V461H288.723V449.318C288.723 445.216 286.518 443.318 283.405 443.318C280.905 443.318 279.075 444.466 278.178 446.273H277.996C277.132 444.409 275.609 443.318 273.314 443.318C271.041 443.318 269.359 444.409 268.632 446.273H268.405V443.545H265.814V461ZM300.717 461.364C305.445 461.364 308.626 457.773 308.626 452.364C308.626 446.909 305.445 443.318 300.717 443.318C295.99 443.318 292.808 446.909 292.808 452.364C292.808 457.773 295.99 461.364 300.717 461.364ZM300.717 458.955C297.126 458.955 295.49 455.864 295.49 452.364C295.49 448.864 297.126 445.727 300.717 445.727C304.308 445.727 305.945 448.864 305.945 452.364C305.945 455.864 304.308 458.955 300.717 458.955ZM315.402 450.5C315.402 447.455 317.288 445.727 319.857 445.727C322.345 445.727 323.857 447.352 323.857 450.091V461H326.538V449.909C326.538 445.455 324.163 443.318 320.629 443.318C317.993 443.318 316.357 444.5 315.538 446.273H315.311V443.545H312.72V461H315.402V450.5Z" fill="#545454" fill-opacity="0.88"/>
<path d="M231.966 1254.41C235.011 1254.41 236.602 1252.77 237.148 1251.64H237.284V1254H239.966V1242.5C239.966 1236.95 235.739 1236.32 233.511 1236.32C230.875 1236.32 227.875 1237.23 226.511 1240.41L229.057 1241.32C229.648 1240.05 231.045 1238.68 233.602 1238.68C236.068 1238.68 237.284 1239.99 237.284 1242.23V1242.32C237.284 1243.61 235.966 1243.5 232.784 1243.91C229.545 1244.33 226.011 1245.05 226.011 1249.05C226.011 1252.45 228.648 1254.41 231.966 1254.41ZM232.375 1252C230.239 1252 228.693 1251.05 228.693 1249.18C228.693 1247.14 230.557 1246.5 232.648 1246.23C233.784 1246.09 236.83 1245.77 237.284 1245.23V1247.68C237.284 1249.86 235.557 1252 232.375 1252ZM244.861 1260.55H247.543V1251.32H247.77C248.361 1252.27 249.497 1254.36 252.861 1254.36C257.224 1254.36 260.27 1250.86 260.27 1245.32C260.27 1239.82 257.224 1236.32 252.815 1236.32C249.406 1236.32 248.361 1238.41 247.77 1239.32H247.452V1236.55H244.861V1260.55ZM247.497 1245.27C247.497 1241.36 249.224 1238.73 252.497 1238.73C255.906 1238.73 257.588 1241.59 257.588 1245.27C257.588 1249 255.861 1251.95 252.497 1251.95C249.27 1251.95 247.497 1249.23 247.497 1245.27ZM264.361 1260.55H267.043V1251.32H267.27C267.861 1252.27 268.997 1254.36 272.361 1254.36C276.724 1254.36 279.77 1250.86 279.77 1245.32C279.77 1239.82 276.724 1236.32 272.315 1236.32C268.906 1236.32 267.861 1238.41 267.27 1239.32H266.952V1236.55H264.361V1260.55ZM266.997 1245.27C266.997 1241.36 268.724 1238.73 271.997 1238.73C275.406 1238.73 277.088 1241.59 277.088 1245.27C277.088 1249 275.361 1251.95 271.997 1251.95C268.77 1251.95 266.997 1249.23 266.997 1245.27ZM286.543 1230.73H283.861V1254H286.543V1230.73ZM298.773 1254.36C302.318 1254.36 304.909 1252.59 305.727 1249.95L303.136 1249.23C302.455 1251.05 300.875 1251.95 298.773 1251.95C295.625 1251.95 293.455 1249.92 293.33 1246.18H306V1245.05C306 1238.55 302.136 1236.32 298.5 1236.32C293.773 1236.32 290.636 1240.05 290.636 1245.41C290.636 1250.77 293.727 1254.36 298.773 1254.36ZM293.33 1243.86C293.511 1241.15 295.432 1238.73 298.5 1238.73C301.409 1238.73 303.273 1240.91 303.273 1243.86H293.33Z" fill="#545454" fill-opacity="0.88"/>
<path d="M153.5 136.5C165.098 136.5 174.5 127.098 174.5 115.5C174.5 103.902 165.098 94.5 153.5 94.5C141.902 94.5 132.5 103.902 132.5 115.5C132.5 127.098 141.902 136.5 153.5 136.5Z" stroke="#2182F5" stroke-opacity="0.6" stroke-width="3"/>
<path d="M153.5 244.5C165.098 244.5 174.5 235.098 174.5 223.5C174.5 211.902 165.098 202.5 153.5 202.5C141.902 202.5 132.5 211.902 132.5 223.5C132.5 235.098 141.902 244.5 153.5 244.5Z" stroke="#2182F5" stroke-opacity="0.6" stroke-width="3"/>
<path d="M153.5 357.5C165.098 357.5 174.5 348.098 174.5 336.5C174.5 324.902 165.098 315.5 153.5 315.5C141.902 315.5 132.5 324.902 132.5 336.5C132.5 348.098 141.902 357.5 153.5 357.5Z" stroke="#2182F5" stroke-opacity="0.6" stroke-width="3"/>
<path d="M153.5 470.5C165.098 470.5 174.5 461.098 174.5 449.5C174.5 437.902 165.098 428.5 153.5 428.5C141.902 428.5 132.5 437.902 132.5 449.5C132.5 461.098 141.902 470.5 153.5 470.5Z" stroke="#2182F5" stroke-opacity="0.6" stroke-width="3"/>
<path d="M153.5 809.5C165.098 809.5 174.5 800.098 174.5 788.5C174.5 776.902 165.098 767.5 153.5 767.5C141.902 767.5 132.5 776.902 132.5 788.5C132.5 800.098 141.902 809.5 153.5 809.5Z" stroke="#2182F5" stroke-opacity="0.6" stroke-width="3"/>
<path d="M153.5 922.5C165.098 922.5 174.5 913.098 174.5 901.5C174.5 889.902 165.098 880.5 153.5 880.5C141.902 880.5 132.5 889.902 132.5 901.5C132.5 913.098 141.902 922.5 153.5 922.5Z" stroke="#2182F5" stroke-opacity="0.6" stroke-width="3"/>
<path d="M153.5 1035.5C165.098 1035.5 174.5 1026.1 174.5 1014.5C174.5 1002.9 165.098 993.5 153.5 993.5C141.902 993.5 132.5 1002.9 132.5 1014.5C132.5 1026.1 141.902 1035.5 153.5 1035.5Z" stroke="#2182F5" stroke-opacity="0.6" stroke-width="3"/>
<path d="M153.5 1148.5C165.098 1148.5 174.5 1139.1 174.5 1127.5C174.5 1115.9 165.098 1106.5 153.5 1106.5C141.902 1106.5 132.5 1115.9 132.5 1127.5C132.5 1139.1 141.902 1148.5 153.5 1148.5Z" stroke="#2182F5" stroke-opacity="0.6" stroke-width="3"/>
<path d="M730.452 1022.22C729.665 1022.22 728.883 1022.08 728.153 1021.78C727.422 1021.49 726.758 1021.05 726.198 1020.5C725.637 1019.94 725.193 1019.28 724.889 1018.56C724.586 1017.83 724.429 1017.05 724.429 1016.26C724.429 1015.47 724.586 1014.69 724.889 1013.97C725.193 1013.24 725.637 1012.58 726.198 1012.03C726.758 1011.47 727.422 1011.03 728.153 1010.74C728.883 1010.44 729.665 1010.3 730.452 1010.31C730.613 1010.31 730.768 1010.24 730.882 1010.13C730.996 1010.01 731.06 1009.86 731.06 1009.7V1008.31C731.06 1007.69 730.864 1007.08 730.498 1006.58C730.133 1006.08 729.618 1005.71 729.029 1005.53L700.541 996.462C700.062 996.309 699.553 996.283 699.061 996.386C698.57 996.488 698.113 996.716 697.735 997.046L688.301 1005.3C687.988 1005.57 687.737 1005.91 687.565 1006.29C687.394 1006.67 687.305 1007.08 687.305 1007.5V1023.67C687.305 1024.45 687.612 1025.19 688.159 1025.74C688.706 1026.28 689.448 1026.59 690.222 1026.59H728.142C728.915 1026.59 729.657 1026.28 730.204 1025.74C730.751 1025.19 731.059 1024.45 731.059 1023.67V1022.82C731.059 1022.66 730.995 1022.51 730.881 1022.39C730.767 1022.28 730.612 1022.21 730.451 1022.21L730.452 1022.22Z" fill="#FACC0A" fill-opacity="0.8"/>
<path d="M730.452 1022.22C729.665 1022.22 728.883 1022.08 728.153 1021.78C727.422 1021.49 726.758 1021.05 726.198 1020.49C725.637 1019.94 725.193 1019.28 724.889 1018.55C724.586 1017.83 724.429 1017.05 724.429 1016.26C724.429 1015.47 724.586 1014.69 724.889 1013.97C725.193 1013.24 725.637 1012.58 726.198 1012.03C726.758 1011.47 727.422 1011.03 728.153 1010.74C728.883 1010.44 729.665 1010.3 730.452 1010.3C730.613 1010.3 730.768 1010.24 730.882 1010.13C730.996 1010.01 731.06 1009.86 731.06 1009.7V1008.36C731.06 1007.78 730.83 1007.22 730.419 1006.81C730.009 1006.4 729.453 1006.17 728.872 1006.17H689.493C688.912 1006.17 688.356 1006.4 687.946 1006.81C687.535 1007.22 687.305 1007.78 687.305 1008.36V1023.67C687.305 1024.45 687.612 1025.19 688.159 1025.74C688.706 1026.28 689.448 1026.59 690.222 1026.59H728.142C728.915 1026.59 729.657 1026.28 730.204 1025.74C730.751 1025.19 731.059 1024.45 731.059 1023.67V1022.82C731.059 1022.66 730.995 1022.51 730.881 1022.39C730.767 1022.28 730.612 1022.22 730.451 1022.22L730.452 1022.22Z" fill="#FAA01E" fill-opacity="0.8"/>
<path d="M698.974 1022.22C701.39 1022.22 703.349 1020.26 703.349 1017.84C703.349 1015.42 701.39 1013.47 698.974 1013.47C696.557 1013.47 694.598 1015.42 694.598 1017.84C694.598 1020.26 696.557 1022.22 698.974 1022.22Z" fill="#DC6E1E" fill-opacity="0.8"/>
<path d="M715.017 1013.47C716.628 1013.47 717.934 1012.16 717.934 1010.55C717.934 1008.94 716.628 1007.63 715.017 1007.63C713.406 1007.63 712.1 1008.94 712.1 1010.55C712.1 1012.16 713.406 1013.47 715.017 1013.47Z" fill="#DC6E1E" fill-opacity="0.8"/>
<path d="M709.183 1025.13C710.391 1025.13 711.371 1024.15 711.371 1022.95C711.371 1021.74 710.391 1020.76 709.183 1020.76C707.975 1020.76 706.995 1021.74 706.995 1022.95C706.995 1024.15 707.975 1025.13 709.183 1025.13Z" fill="#DC6E1E" fill-opacity="0.8"/>
<path d="M702.996 433.461L706.562 438.9L715.235 436.127C715.235 436.127 710.788 430.945 702.996 433.461Z" fill="#87C7FF" fill-opacity="0.8"/>
<path d="M706.562 457.315L702.996 462.755C710.788 465.271 715.233 460.089 715.233 460.089L706.562 457.315Z" fill="#87C7FF" fill-opacity="0.8"/>
<path d="M717.994 435.917C709.131 435.917 698.546 442.969 695.698 446.614V449.6C698.546 453.246 709.131 460.297 717.994 460.297C728.336 460.297 734.386 448.107 734.386 448.107C734.386 448.107 728.336 435.917 717.994 435.917Z" fill="#38A5F6" fill-opacity="0.8"/>
<path d="M734.386 448.108C734.386 448.108 730.183 439.644 722.797 436.822C720.389 440.092 719.09 444.047 719.09 448.108C719.09 452.169 720.389 456.124 722.797 459.394C730.183 456.572 734.386 448.108 734.386 448.108Z" fill="#87C7FF" fill-opacity="0.8"/>
<path d="M689.455 448.109C688.332 447.221 687.425 446.091 686.801 444.802C686.178 443.513 685.855 442.1 685.856 440.669C685.857 440.273 685.882 439.878 685.931 439.486C687.162 439.316 688.416 439.412 689.608 439.768C690.799 440.124 691.9 440.73 692.838 441.547C693.775 442.364 694.526 443.373 695.041 444.504C695.556 445.636 695.822 446.865 695.822 448.108C695.822 449.352 695.556 450.581 695.041 451.712C694.526 452.844 693.775 453.852 692.838 454.669C691.9 455.486 690.799 456.093 689.608 456.449C688.416 456.804 687.162 456.901 685.931 456.731C685.882 456.338 685.857 455.943 685.856 455.547C685.855 454.116 686.178 452.703 686.802 451.415C687.425 450.126 688.332 448.996 689.455 448.109Z" fill="#87C7FF" fill-opacity="0.8"/>
<path d="M723.911 448.059C725.315 448.059 726.453 446.921 726.453 445.518C726.453 444.114 725.315 442.977 723.911 442.977C722.508 442.977 721.37 444.114 721.37 445.518C721.37 446.921 722.508 448.059 723.911 448.059Z" fill="#007AD5" fill-opacity="0.8"/>
<path d="M710.635 94.3133C710.481 94.4682 710.284 94.5737 710.069 94.6165C709.854 94.6593 709.632 94.6374 709.43 94.5537C709.227 94.47 709.055 94.3281 708.933 94.1461C708.811 93.9641 708.747 93.7501 708.747 93.5313V89.1065C708.747 88.8132 708.864 88.5318 709.071 88.3244C709.279 88.117 709.56 88.0005 709.853 88.0005C710.147 88.0005 710.428 88.117 710.635 88.3244C710.843 88.5318 710.959 88.8132 710.959 89.1065V93.5318C710.959 93.677 710.931 93.8208 710.875 93.9549C710.82 94.089 710.738 94.2108 710.635 94.3133Z" fill="#FFDD54" fill-opacity="0.8"/>
<path d="M710.634 94.3134C710.737 94.2108 710.819 94.0888 710.874 93.9545C710.93 93.8202 710.958 93.6762 710.958 93.5308V89.1055C710.958 88.9603 710.93 88.8165 710.874 88.6823C710.818 88.5481 710.737 88.4261 710.634 88.3234C710.531 88.2207 710.41 88.1392 710.275 88.0837C710.141 88.0281 709.997 87.9995 709.852 87.9995L709.85 94.6395C709.996 94.6397 710.14 94.6109 710.275 94.5549C710.409 94.499 710.532 94.4169 710.634 94.3134Z" fill="#FFB454" fill-opacity="0.8"/>
<path d="M718.009 100.701C717.854 100.856 717.657 100.962 717.443 101.005C717.228 101.047 717.005 101.026 716.803 100.942C716.601 100.858 716.428 100.716 716.307 100.534C716.185 100.352 716.12 100.138 716.12 99.9193V95.494C716.12 95.3488 716.149 95.2049 716.204 95.0707C716.26 94.9365 716.342 94.8146 716.444 94.7119C716.547 94.6092 716.669 94.5277 716.803 94.4721C716.937 94.4166 717.081 94.3879 717.226 94.3879C717.372 94.3879 717.515 94.4166 717.65 94.4721C717.784 94.5277 717.906 94.6092 718.008 94.7119C718.111 94.8146 718.193 94.9365 718.248 95.0707C718.304 95.2049 718.332 95.3488 718.332 95.494V99.9193C718.333 100.065 718.304 100.208 718.249 100.343C718.193 100.477 718.112 100.599 718.009 100.701Z" fill="#EC8600" fill-opacity="0.8"/>
<path d="M703.26 100.701C703.105 100.856 702.908 100.962 702.693 101.005C702.479 101.047 702.256 101.026 702.054 100.942C701.852 100.858 701.679 100.716 701.558 100.534C701.436 100.352 701.371 100.138 701.371 99.9193V95.494C701.371 95.2007 701.488 94.9193 701.695 94.7119C701.798 94.6092 701.92 94.5277 702.054 94.4721C702.188 94.4166 702.332 94.3879 702.477 94.3879C702.623 94.3879 702.766 94.4166 702.901 94.4721C703.035 94.5277 703.157 94.6092 703.259 94.7119C703.362 94.8146 703.444 94.9365 703.499 95.0707C703.555 95.2049 703.583 95.3487 703.583 95.494V99.9193C703.584 100.065 703.555 100.208 703.5 100.343C703.444 100.477 703.363 100.599 703.26 100.701Z" fill="#FFB454" fill-opacity="0.8"/>
<path d="M710.635 139.17C710.481 139.325 710.283 139.431 710.069 139.474C709.854 139.516 709.632 139.495 709.429 139.411C709.227 139.327 709.054 139.185 708.933 139.003C708.811 138.821 708.746 138.607 708.747 138.388V103.947C708.747 103.654 708.863 103.372 709.071 103.165C709.278 102.957 709.559 102.841 709.853 102.841C710.146 102.841 710.427 102.957 710.635 103.165C710.842 103.372 710.959 103.654 710.959 103.947V138.388C710.959 138.534 710.93 138.678 710.875 138.812C710.819 138.946 710.738 139.068 710.635 139.171V139.17Z" fill="#FFB454" fill-opacity="0.8"/>
<path d="M710.635 139.171C710.738 139.068 710.819 138.946 710.875 138.812C710.931 138.677 710.959 138.534 710.959 138.388V103.947C710.959 103.801 710.93 103.658 710.875 103.523C710.819 103.389 710.738 103.267 710.635 103.165C710.532 103.062 710.41 102.98 710.276 102.925C710.142 102.869 709.998 102.841 709.853 102.841V139.496C709.999 139.496 710.143 139.468 710.277 139.412C710.411 139.356 710.533 139.275 710.636 139.172L710.635 139.171Z" fill="#EC8600" fill-opacity="0.8"/>
<path d="M710.907 104.559C710.773 104.682 710.685 104.755 710.666 104.771C710.438 104.954 710.154 105.053 709.862 105.053C709.57 105.053 709.287 104.954 709.059 104.771C708.926 104.662 705.823 102.072 705.823 98.7394C705.823 95.4068 708.927 92.8159 709.059 92.7074C709.287 92.5248 709.57 92.4253 709.862 92.4253C710.154 92.4253 710.438 92.5248 710.666 92.7074C710.798 92.8159 713.899 95.409 713.901 98.7394C713.901 101.569 711.663 103.865 710.907 104.559Z" fill="#FFDD54" fill-opacity="0.8"/>
<path d="M710.664 104.771C710.682 104.753 710.772 104.682 710.905 104.559C711.661 103.865 713.897 101.567 713.899 98.7397C713.899 95.4072 710.796 92.8168 710.664 92.7077C710.437 92.5237 710.153 92.424 709.86 92.4258L709.861 105.053C710.153 105.055 710.437 104.955 710.664 104.771Z" fill="#FFB454" fill-opacity="0.8"/>
<path d="M717.954 98.8175C717.777 98.8085 713.589 98.6249 711.023 100.981C710.571 101.399 710.181 101.88 709.865 102.409C709.548 101.88 709.157 101.4 708.704 100.983C706.14 98.6271 701.95 98.8111 701.774 98.8197C701.489 98.8237 701.216 98.9324 701.007 99.1249C700.797 99.3174 700.666 99.5803 700.637 99.8635C700.627 100.026 700.428 103.874 702.993 106.23C705.426 108.465 709.318 108.417 709.863 108.396C710.411 108.412 714.3 108.465 716.732 106.23C719.299 103.876 719.098 100.026 719.089 99.8619C719.061 99.5789 718.93 99.3161 718.721 99.1235C718.512 98.9309 718.239 98.822 717.954 98.8175Z" fill="#FFB454" fill-opacity="0.8"/>
<path d="M709.862 108.396C710.411 108.413 714.299 108.466 716.732 106.231C719.299 103.876 719.097 100.026 719.089 99.8624C719.061 99.5792 718.929 99.3163 718.72 99.1238C718.51 98.9313 718.237 98.8227 717.953 98.8186C717.775 98.8112 713.586 98.6271 711.021 100.983C710.568 101.402 710.178 101.883 709.862 102.412V108.396Z" fill="#EC8600" fill-opacity="0.8"/>
<path d="M717.954 104.901C717.777 104.892 713.589 104.709 711.023 107.065C710.571 107.483 710.181 107.964 709.865 108.493C709.548 107.964 709.157 107.484 708.704 107.067C706.14 104.711 701.95 104.895 701.774 104.904C701.489 104.908 701.216 105.016 701.007 105.209C700.797 105.401 700.666 105.664 700.637 105.947C700.627 106.11 700.428 109.958 702.993 112.314C705.427 114.551 709.324 114.495 709.864 114.48C710.414 114.498 714.301 114.547 716.732 112.314C719.299 109.96 719.098 106.11 719.089 105.946C719.061 105.663 718.93 105.4 718.721 105.207C718.512 105.015 718.239 104.906 717.954 104.901Z" fill="#FFDD54" fill-opacity="0.8"/>
<path d="M709.864 114.48C710.414 114.499 714.301 114.548 716.733 112.314C719.3 109.96 719.097 106.11 719.089 105.946C719.061 105.663 718.93 105.4 718.72 105.208C718.511 105.015 718.238 104.907 717.954 104.903C717.775 104.895 713.586 104.711 711.021 107.067C710.568 107.486 710.178 107.967 709.862 108.496V114.48L709.864 114.48Z" fill="#FFB454" fill-opacity="0.8"/>
<path d="M717.954 110.985C717.777 110.976 713.589 110.793 711.023 113.149C710.571 113.567 710.181 114.048 709.865 114.577C709.548 114.048 709.157 113.568 708.704 113.151C706.14 110.795 701.95 110.979 701.774 110.988C701.489 110.992 701.216 111.1 701.007 111.293C700.797 111.485 700.666 111.748 700.637 112.031C700.627 112.194 700.428 116.042 702.993 118.398C705.426 120.634 709.319 120.584 709.863 120.564C710.412 120.581 714.301 120.633 716.733 118.399C719.3 116.044 719.098 112.195 719.09 112.03C719.062 111.747 718.931 111.484 718.722 111.291C718.512 111.098 718.239 110.99 717.954 110.985Z" fill="#FFB454" fill-opacity="0.8"/>
<path d="M709.862 120.564C710.411 120.581 714.3 120.633 716.732 118.399C719.299 116.044 719.097 112.194 719.089 112.03C719.061 111.747 718.929 111.485 718.72 111.292C718.51 111.1 718.237 110.991 717.953 110.987C717.775 110.979 713.586 110.795 711.021 113.151C710.568 113.57 710.178 114.051 709.862 114.58V120.564Z" fill="#EC8600" fill-opacity="0.8"/>
<path d="M717.954 117.07C717.777 117.061 713.589 116.878 711.023 119.234C710.571 119.652 710.181 120.133 709.865 120.662C709.548 120.133 709.157 119.653 708.704 119.236C706.14 116.88 701.95 117.064 701.774 117.073C701.489 117.077 701.216 117.185 701.007 117.378C700.797 117.57 700.666 117.833 700.637 118.116C700.627 118.279 700.428 122.127 702.993 124.483C705.426 126.718 709.319 126.668 709.863 126.649C710.412 126.666 714.301 126.718 716.733 124.483C719.3 122.129 719.098 118.279 719.09 118.115C719.062 117.832 718.931 117.569 718.721 117.376C718.512 117.184 718.239 117.075 717.954 117.07Z" fill="#FFDD54" fill-opacity="0.8"/>
<path d="M709.863 126.648C710.412 126.665 714.301 126.717 716.733 124.483C719.3 122.128 719.098 118.278 719.09 118.114C719.062 117.831 718.93 117.569 718.721 117.376C718.511 117.184 718.238 117.075 717.954 117.071C717.775 117.063 713.586 116.879 711.021 119.235C710.568 119.653 710.178 120.135 709.863 120.664L709.862 126.648H709.863Z" fill="#FFB454" fill-opacity="0.8"/>
<path d="M714.498 550.813H707.254C707.01 550.813 706.772 550.733 706.577 550.587L703.554 548.319C703.2 548.054 702.908 547.716 702.696 547.328C702.484 546.94 702.358 546.51 702.327 546.069C702.296 545.628 702.36 545.186 702.514 544.772C702.669 544.357 702.911 543.981 703.224 543.669L703.23 543.663C703.622 543.27 704.117 542.994 704.658 542.867C705.199 542.74 705.765 542.767 706.291 542.944L708.156 543.566L710.079 541.644C710.29 541.433 710.577 541.314 710.876 541.314C711.175 541.314 711.461 541.433 711.673 541.644L713.595 543.566L715.46 542.945C715.986 542.767 716.552 542.741 717.093 542.868C717.634 542.995 718.129 543.271 718.522 543.664L718.528 543.67C718.841 543.983 719.083 544.359 719.237 544.773C719.392 545.187 719.456 545.63 719.424 546.071C719.393 546.512 719.267 546.941 719.056 547.329C718.844 547.717 718.551 548.056 718.198 548.321L715.175 550.588C714.979 550.735 714.742 550.814 714.497 550.814L714.498 550.813Z" fill="#5EAC24" fill-opacity="0.8"/>
<path d="M710.875 580.438C708.301 580.434 705.753 579.923 703.376 578.934C701 577.945 698.841 576.497 697.024 574.673C695.208 572.85 693.768 570.686 692.788 568.305C691.808 565.925 691.307 563.375 691.314 560.8C691.311 557.561 692.593 554.452 694.88 552.157C697.166 549.862 700.269 548.568 703.509 548.558H718.242C721.482 548.568 724.585 549.862 726.871 552.157C729.157 554.452 730.44 557.561 730.437 560.8C730.444 563.375 729.943 565.925 728.963 568.305C727.983 570.686 726.543 572.85 724.727 574.674C722.91 576.497 720.751 577.945 718.375 578.934C715.998 579.923 713.45 580.434 710.875 580.438Z" fill="#FF3501" fill-opacity="0.8"/>
<path d="M712.498 328.813H705.254C705.01 328.813 704.772 328.733 704.577 328.587L701.554 326.319C701.2 326.054 700.908 325.716 700.696 325.328C700.484 324.94 700.358 324.51 700.327 324.069C700.296 323.628 700.36 323.186 700.514 322.772C700.669 322.357 700.911 321.981 701.224 321.669L701.23 321.663C701.622 321.27 702.117 320.994 702.658 320.867C703.199 320.74 703.765 320.767 704.291 320.944L706.156 321.566L708.079 319.644C708.29 319.433 708.577 319.314 708.876 319.314C709.175 319.314 709.461 319.433 709.673 319.644L711.595 321.566L713.46 320.945C713.986 320.767 714.552 320.741 715.093 320.868C715.634 320.995 716.129 321.271 716.522 321.664L716.528 321.67C716.841 321.983 717.083 322.359 717.237 322.773C717.392 323.187 717.456 323.63 717.424 324.071C717.393 324.512 717.267 324.941 717.056 325.329C716.844 325.717 716.551 326.056 716.198 326.321L713.175 328.588C712.979 328.735 712.742 328.814 712.497 328.814L712.498 328.813Z" fill="#5EAC24" fill-opacity="0.8"/>
<path d="M708.875 358.438C706.301 358.434 703.753 357.923 701.376 356.934C699 355.945 696.841 354.497 695.024 352.673C693.208 350.85 691.768 348.686 690.788 346.305C689.808 343.925 689.307 341.375 689.314 338.8C689.311 335.561 690.593 332.452 692.88 330.157C695.166 327.862 698.269 326.568 701.509 326.558H716.242C719.482 326.568 722.585 327.862 724.871 330.157C727.157 332.452 728.44 335.561 728.437 338.8C728.444 341.375 727.943 343.925 726.963 346.305C725.983 348.686 724.543 350.85 722.727 352.674C720.91 354.497 718.751 355.945 716.375 356.934C713.998 357.923 711.45 358.434 708.875 358.438Z" fill="#FF3501" fill-opacity="0.8"/>
<path d="M712.498 889.813H705.254C705.01 889.813 704.772 889.733 704.577 889.587L701.554 887.319C701.2 887.054 700.908 886.716 700.696 886.328C700.484 885.94 700.358 885.51 700.327 885.069C700.296 884.628 700.36 884.186 700.514 883.772C700.669 883.357 700.911 882.981 701.224 882.669L701.23 882.663C701.622 882.27 702.117 881.994 702.658 881.867C703.199 881.74 703.765 881.767 704.291 881.944L706.156 882.566L708.079 880.644C708.29 880.433 708.577 880.314 708.876 880.314C709.175 880.314 709.461 880.433 709.673 880.644L711.595 882.566L713.46 881.945C713.986 881.767 714.552 881.741 715.093 881.868C715.634 881.995 716.129 882.271 716.522 882.664L716.528 882.67C716.841 882.983 717.083 883.359 717.237 883.773C717.392 884.187 717.456 884.63 717.424 885.071C717.393 885.512 717.267 885.941 717.056 886.329C716.844 886.717 716.551 887.056 716.198 887.321L713.175 889.588C712.979 889.735 712.742 889.814 712.497 889.814L712.498 889.813Z" fill="#5EAC24" fill-opacity="0.8"/>
<path d="M708.875 919.438C706.301 919.434 703.753 918.923 701.376 917.934C699 916.945 696.841 915.497 695.024 913.673C693.208 911.85 691.768 909.686 690.788 907.305C689.808 904.925 689.307 902.375 689.314 899.8C689.311 896.561 690.593 893.452 692.88 891.157C695.166 888.862 698.269 887.568 701.509 887.558H716.242C719.482 887.568 722.585 888.862 724.871 891.157C727.157 893.452 728.44 896.561 728.437 899.8C728.444 902.375 727.943 904.925 726.963 907.305C725.983 909.686 724.543 911.85 722.727 913.674C720.91 915.497 718.751 916.945 716.375 917.934C713.998 918.923 711.45 919.434 708.875 919.438Z" fill="#FF3501" fill-opacity="0.8"/>
<path d="M712.498 1232.81H705.254C705.01 1232.81 704.772 1232.73 704.577 1232.59L701.554 1230.32C701.2 1230.05 700.908 1229.72 700.696 1229.33C700.484 1228.94 700.358 1228.51 700.327 1228.07C700.296 1227.63 700.36 1227.19 700.514 1226.77C700.669 1226.36 700.911 1225.98 701.224 1225.67L701.23 1225.66C701.622 1225.27 702.117 1224.99 702.658 1224.87C703.199 1224.74 703.765 1224.77 704.291 1224.94L706.156 1225.57L708.079 1223.64C708.29 1223.43 708.577 1223.31 708.876 1223.31C709.175 1223.31 709.461 1223.43 709.673 1223.64L711.595 1225.57L713.46 1224.94C713.986 1224.77 714.552 1224.74 715.093 1224.87C715.634 1224.99 716.129 1225.27 716.522 1225.66L716.528 1225.67C716.841 1225.98 717.083 1226.36 717.237 1226.77C717.392 1227.19 717.456 1227.63 717.424 1228.07C717.393 1228.51 717.267 1228.94 717.056 1229.33C716.844 1229.72 716.551 1230.06 716.198 1230.32L713.175 1232.59C712.979 1232.73 712.742 1232.81 712.497 1232.81H712.498Z" fill="#5EAC24" fill-opacity="0.8"/>
<path d="M708.875 1262.44C706.301 1262.43 703.753 1261.92 701.376 1260.93C699 1259.94 696.841 1258.5 695.024 1256.67C693.208 1254.85 691.768 1252.69 690.788 1250.31C689.808 1247.92 689.307 1245.37 689.314 1242.8C689.311 1239.56 690.593 1236.45 692.88 1234.16C695.166 1231.86 698.269 1230.57 701.509 1230.56H716.242C719.482 1230.57 722.585 1231.86 724.871 1234.16C727.157 1236.45 728.44 1239.56 728.437 1242.8C728.444 1245.37 727.943 1247.92 726.963 1250.31C725.983 1252.69 724.543 1254.85 722.727 1256.67C720.91 1258.5 718.751 1259.95 716.375 1260.93C713.998 1261.92 711.45 1262.43 708.875 1262.44Z" fill="#FF3501" fill-opacity="0.8"/>
<path d="M714.454 765.308L712.699 770.715H703.069L701.317 765.308C701.243 765.111 701.219 764.898 701.247 764.69C701.274 764.481 701.353 764.282 701.476 764.111C701.603 763.941 701.768 763.802 701.957 763.705C702.146 763.608 702.354 763.556 702.567 763.553H713.205C713.417 763.556 713.626 763.608 713.815 763.705C714.004 763.802 714.168 763.941 714.295 764.111C714.418 764.282 714.497 764.481 714.525 764.69C714.553 764.898 714.528 765.111 714.454 765.308Z" fill="#FF873C" fill-opacity="0.8"/>
<path d="M712.7 770.715H707.885V763.553H713.203C713.416 763.556 713.624 763.608 713.813 763.705C714.002 763.802 714.167 763.941 714.294 764.111C714.417 764.282 714.496 764.481 714.523 764.69C714.551 764.898 714.527 765.111 714.453 765.308L712.7 770.715Z" fill="#FF873C" fill-opacity="0.8"/>
<path d="M714.536 771.62C712.676 771.624 710.85 772.118 709.242 773.052C707.633 773.985 706.299 775.326 705.373 776.939H714.536C715.955 776.959 717.31 777.538 718.305 778.55C719.301 779.562 719.857 780.926 719.854 782.346C719.854 783.757 719.294 785.109 718.296 786.107C717.299 787.104 715.946 787.665 714.536 787.665V792.988C717.369 792.988 720.087 791.862 722.09 789.859C724.094 787.855 725.219 785.137 725.219 782.304C725.219 779.47 724.094 776.753 722.09 774.749C720.087 772.746 717.369 771.62 714.536 771.62Z" fill="#92D8FF" fill-opacity="0.8"/>
<path d="M719.694 787.665L717.274 790.328H698.338L696.081 787.668C697.471 785.628 699.32 783.943 701.48 782.748L702.092 780.913C703.192 777.605 702.934 773.996 701.374 770.878C701.277 770.677 701.231 770.455 701.24 770.232C701.249 770.009 701.314 769.791 701.427 769.599C701.551 769.406 701.719 769.247 701.919 769.136C702.119 769.025 702.343 768.965 702.571 768.961H713.205C713.434 768.965 713.658 769.025 713.857 769.136C714.057 769.247 714.226 769.406 714.349 769.599C714.463 769.791 714.527 770.009 714.536 770.232C714.546 770.455 714.5 770.677 714.402 770.878C712.843 773.996 712.585 777.605 713.685 780.913L714.296 782.748C716.455 783.942 718.304 785.626 719.694 787.665Z" fill="#BDEBFF" fill-opacity="0.8"/>
<path d="M721.848 800.802L720.359 806.041C720.116 806.871 719.612 807.6 718.922 808.122C718.233 808.644 717.394 808.931 716.53 808.94H699.243C698.379 808.931 697.54 808.644 696.85 808.122C696.161 807.6 695.657 806.871 695.413 806.041L693.925 800.802C693.292 798.589 693.157 796.264 693.53 793.992C693.902 791.721 694.773 789.56 696.079 787.665H719.694C721.004 789.558 721.877 791.719 722.25 793.991C722.622 796.263 722.485 798.59 721.848 800.802Z" fill="#FFC808" fill-opacity="0.8"/>
<path d="M731.217 686.152C731.223 681.915 730.067 667.078 717.147 656.207C715.168 654.551 712.852 653.344 710.36 652.67C707.869 651.997 705.26 651.872 702.716 652.306C699.201 652.905 695.95 654.556 693.392 657.04C690.834 659.524 689.089 662.726 688.387 666.222C687.881 668.813 687.959 671.484 688.614 674.041C689.269 676.598 690.485 678.977 692.174 681.006C693.863 683.035 695.983 684.662 698.379 685.77C700.775 686.878 703.387 687.439 706.027 687.411C705.737 687.343 711.34 687.11 715.664 692.151C716.794 693.466 718.284 694.422 719.95 694.901C721.617 695.38 723.387 695.361 725.043 694.846C726.45 694.449 727.723 693.679 728.729 692.618C730.371 690.87 731.264 688.549 731.217 686.152Z" fill="#FF637B" fill-opacity="0.8"/>
<path d="M728.689 686.142C728.622 680.806 727.414 675.546 725.144 670.715C722.875 665.885 719.598 661.597 715.533 658.139C712.63 655.701 708.923 654.433 705.136 654.582C701.348 654.731 697.752 656.286 695.05 658.944C692.9 661.048 691.44 663.755 690.864 666.708C690.434 668.933 690.505 671.225 691.071 673.42C691.637 675.614 692.684 677.655 694.136 679.395C695.588 681.135 697.409 682.53 699.467 683.479C701.524 684.428 703.768 684.907 706.034 684.882C710.047 684.969 713.866 686.63 716.667 689.505C718.188 691.025 720.066 693.62 724.359 692.403C725.347 692.125 726.243 691.588 726.953 690.847C728.12 689.563 728.742 687.876 728.689 686.142Z" fill="#FF637B" fill-opacity="0.8"/>
<path d="M726.165 686.59L726.147 686.142C726.021 681.836 725.147 677.584 723.564 673.578C723.342 673.003 722.981 672.493 722.512 672.093C722.044 671.693 721.483 671.417 720.881 671.288C720.273 671.155 719.642 671.173 719.043 671.342C718.444 671.51 717.895 671.824 717.446 672.254C715.887 673.742 714.49 675.391 713.278 677.173C712.884 677.746 712.509 678.336 712.169 678.926C711.905 679.372 711.735 679.867 711.67 680.381C711.606 680.895 711.647 681.417 711.793 681.914C712.109 682.911 712.802 683.746 713.725 684.24C715.928 685.393 717.887 686.963 719.493 688.863C720.004 689.439 720.674 689.851 721.418 690.049C722.163 690.246 722.949 690.219 723.679 689.972C724.254 689.825 724.768 689.499 725.146 689.042C725.758 688.366 726.118 687.5 726.165 686.59Z" fill="#B20844" fill-opacity="0.8"/>
<path d="M708.663 680.105C710.297 676.713 712.485 673.617 715.139 670.946C715.801 670.284 716.498 669.658 717.232 669.032C717.609 668.706 717.917 668.307 718.138 667.86C718.359 667.413 718.49 666.927 718.521 666.429C718.553 665.932 718.485 665.432 718.322 664.961C718.159 664.49 717.904 664.056 717.572 663.684C716.619 662.589 715.591 661.562 714.495 660.61C712.194 658.5 709.224 657.265 706.105 657.122C704.399 657.079 702.702 657.379 701.114 658.002C699.525 658.626 698.078 659.561 696.857 660.753C695.064 662.496 693.841 664.741 693.351 667.193C692.969 669.046 693.008 670.96 693.464 672.796C693.919 674.632 694.781 676.342 695.984 677.801C697.06 679.146 698.412 680.244 699.949 681.022C701.486 681.8 703.171 682.239 704.892 682.31C705.671 682.371 706.449 682.193 707.124 681.799C707.798 681.405 708.335 680.814 708.663 680.105Z" fill="#B20844" fill-opacity="0.8"/>
<path d="M707.571 664.31C706.864 663.603 705.962 663.121 704.981 662.925C703.999 662.73 702.982 662.83 702.057 663.213C701.133 663.596 700.342 664.245 699.786 665.077C699.23 665.909 698.934 666.887 698.934 667.888C698.934 668.889 699.23 669.867 699.786 670.699C700.342 671.531 701.133 672.18 702.057 672.563C702.982 672.946 703.999 673.046 704.981 672.85C705.962 672.655 706.864 672.173 707.571 671.465C708.516 670.515 709.047 669.228 709.047 667.888C709.047 666.547 708.516 665.261 707.571 664.31Z" fill="#FFF5F5" fill-opacity="0.8"/>
<path d="M703.993 670.417C705.39 670.417 706.523 669.285 706.523 667.888C706.523 666.491 705.39 665.358 703.993 665.358C702.596 665.358 701.464 666.491 701.464 667.888C701.464 669.285 702.596 670.417 703.993 670.417Z" fill="#EFE2DD" fill-opacity="0.8"/>
<path fill-rule="evenodd" clip-rule="evenodd" d="M190.025 543.975C191.392 542.608 191.392 540.392 190.025 539.025C188.658 537.658 186.442 537.658 185.075 539.025L152.5 571.601L136.975 556.075C135.608 554.709 133.392 554.709 132.025 556.075C130.658 557.442 130.658 559.658 132.025 561.025L149.075 578.075C149.238 578.238 149.412 578.381 149.596 578.505C149.72 578.688 149.863 578.863 150.025 579.025C151.392 580.392 153.608 580.392 154.975 579.025L190.025 543.975Z" fill="#42B323"/>
<path fill-rule="evenodd" clip-rule="evenodd" d="M190.025 1224.97C191.392 1223.61 191.392 1221.39 190.025 1220.03C188.658 1218.66 186.442 1218.66 185.075 1220.03L152.5 1252.6L136.975 1237.08C135.608 1235.71 133.392 1235.71 132.025 1237.08C130.658 1238.44 130.658 1240.66 132.025 1242.03L149.075 1259.08C149.238 1259.24 149.412 1259.38 149.596 1259.5C149.72 1259.69 149.863 1259.86 150.025 1260.03C151.392 1261.39 153.608 1261.39 154.975 1260.03L190.025 1224.97Z" fill="#3AAF22"/>
<path fill-rule="evenodd" clip-rule="evenodd" d="M190.025 649.975C191.392 648.608 191.392 646.392 190.025 645.025C188.658 643.658 186.442 643.658 185.075 645.025L152.5 677.601L136.975 662.075C135.608 660.709 133.392 660.709 132.025 662.075C130.658 663.442 130.658 665.658 132.025 667.025L149.075 684.075C149.238 684.238 149.412 684.381 149.596 684.505C149.72 684.688 149.863 684.863 150.025 685.025C151.392 686.392 153.608 686.392 154.975 685.025L190.025 649.975Z" fill="#3AAF22"/>
<path d="M724.883 1122.27C724.884 1123.09 724.719 1123.91 724.398 1124.67L724.086 1125.41L707.64 1125.37L691.153 1125.33L690.848 1124.58C690.528 1123.79 690.376 1122.93 690.404 1122.08C690.431 1121.22 690.636 1120.38 691.006 1119.61C691.377 1118.84 691.904 1118.15 692.554 1117.6C693.204 1117.04 693.963 1116.63 694.783 1116.38C694.798 1115.31 695.121 1114.27 695.711 1113.38C696.302 1112.5 697.136 1111.8 698.114 1111.37C699.091 1110.94 700.171 1110.8 701.224 1110.97C702.278 1111.14 703.26 1111.61 704.053 1112.33C705.099 1111.58 706.354 1111.17 707.641 1111.17C708.928 1111.17 710.183 1111.58 711.229 1112.33C712.022 1111.61 713.004 1111.14 714.057 1110.97C715.111 1110.8 716.19 1110.94 717.168 1111.37C718.146 1111.8 718.98 1112.5 719.57 1113.38C720.161 1114.27 720.483 1115.31 720.499 1116.38C721.766 1116.76 722.877 1117.54 723.666 1118.6C724.456 1119.66 724.883 1120.95 724.883 1122.27Z" fill="#FFBB70"/>
<path d="M715.042 1118.64C714.972 1118.54 714.32 1117.99 714.884 1117.38L727.317 1103.88C727.428 1103.73 728.507 1102.62 729.354 1103.04C729.674 1103.19 729.95 1103.43 730.159 1103.72C730.368 1104 730.504 1104.34 730.555 1104.69C730.606 1105.04 730.571 1105.4 730.453 1105.74C730.335 1106.07 730.137 1106.38 729.876 1106.62L716.477 1119.14C716.408 1119.2 716.332 1119.26 716.252 1119.32C715.681 1119.67 715.042 1118.64 715.042 1118.64Z" fill="#C8C6CD"/>
<path d="M716.154 1119.23C715.176 1118.25 715.263 1117.91 716.072 1117.1L728.505 1103.6C728.739 1103.35 729.031 1103.15 729.355 1103.04C728.93 1102.83 728.449 1102.76 727.983 1102.84C727.518 1102.93 727.092 1103.16 726.77 1103.51L714.337 1117.01C714.09 1117.28 713.949 1117.63 713.94 1118C713.931 1118.36 714.055 1118.72 714.288 1119C714.522 1119.28 714.85 1119.47 715.21 1119.52C715.571 1119.58 715.941 1119.51 716.251 1119.31C716.217 1119.29 716.185 1119.26 716.154 1119.23Z" fill="#C8C6CD"/>
<path d="M727.255 1130.5C726.257 1133.63 724.524 1136.48 722.2 1138.81C720.293 1140.73 718.025 1142.26 715.526 1143.3C713.028 1144.34 710.348 1144.87 707.641 1144.87C704.935 1144.87 702.255 1144.34 699.756 1143.3C697.257 1142.26 694.989 1140.73 693.083 1138.81C690.759 1136.48 689.025 1133.63 688.027 1130.5L707.64 1126.48L727.255 1130.5Z" fill="#338238"/>
<path d="M727.255 1130.5C726.257 1133.63 724.524 1136.48 722.2 1138.81C720.297 1140.74 718.03 1142.26 715.53 1143.3C713.031 1144.34 710.35 1144.88 707.643 1144.87V1126.48L727.255 1130.5Z" fill="#338238"/>
<path d="M728.228 1122.98V1124.18C728.23 1126.33 727.903 1128.45 727.257 1130.5H688.029C687.383 1128.45 687.055 1126.33 687.058 1124.18V1122.98H728.228Z" fill="#449D49"/>
<path d="M724.826 219.687V239.513C724.825 240.961 724.25 242.35 723.227 243.374C722.203 244.398 720.814 244.974 719.366 244.975H699.533C698.084 244.974 696.696 244.398 695.672 243.373C694.649 242.348 694.074 240.959 694.074 239.511V219.686C694.074 218.747 694.315 217.825 694.776 217.007C695.236 216.189 695.9 215.503 696.703 215.017C697.336 214.617 697.855 214.061 698.211 213.402C698.567 212.743 698.747 212.004 698.734 211.255V208.987H720.168V211.256C720.156 212.005 720.337 212.744 720.692 213.403C721.048 214.062 721.567 214.618 722.2 215.018C723.002 215.505 723.665 216.19 724.125 217.008C724.585 217.826 724.826 218.749 724.826 219.687Z" fill="#A4105A"/>
<path d="M694.076 219.462H724.825V239.062H694.076V219.462Z" fill="#FF9C71"/>
<path d="M697.068 202.058H721.832C722.203 202.058 722.558 202.206 722.82 202.469C723.082 202.731 723.229 203.087 723.229 203.458V207.588C723.229 207.771 723.193 207.954 723.123 208.123C723.052 208.293 722.949 208.448 722.819 208.578C722.689 208.708 722.535 208.811 722.365 208.881C722.195 208.952 722.013 208.988 721.829 208.988H697.068C696.697 208.988 696.341 208.84 696.078 208.578C695.815 208.315 695.668 207.959 695.668 207.588V203.458C695.668 203.086 695.815 202.73 696.078 202.468C696.341 202.205 696.697 202.058 697.068 202.058Z" fill="#FFBA48"/>
<path d="M717.148 223.323H702.344C702.174 223.322 702.011 223.388 701.89 223.507C701.769 223.626 701.701 223.789 701.699 223.958V234.348C701.701 234.518 701.769 234.68 701.89 234.799C702.011 234.918 702.174 234.984 702.344 234.983H717.147C717.317 234.984 717.48 234.918 717.601 234.799C717.722 234.68 717.791 234.518 717.792 234.348V223.958C717.791 223.789 717.722 223.627 717.601 223.508C717.48 223.389 717.317 223.322 717.148 223.323Z" fill="#FFE3DE"/>
<path d="M776 57H88C76.9543 57 68 65.9543 68 77V1275C68 1286.05 76.9543 1295 88 1295H776C787.046 1295 796 1286.05 796 1275V77C796 65.9543 787.046 57 776 57Z" fill="url(#paint0_linear_939_1605)"/>
</g>
<defs>
<filter id="filter0_d_939_1605" x="0" y="0" width="864" height="1376" filterUnits="userSpaceOnUse" color-interpolation-filters="sRGB">
<feFlood flood-opacity="0" result="BackgroundImageFix"/>
<feColorMatrix in="SourceAlpha" type="matrix" values="0 0 0 0 0 0 0 0 0 0 0 0 0 0 0 0 0 0 127 0" result="hardAlpha"/>
<feOffset dy="11"/>
<feGaussianBlur stdDeviation="34"/>
<feComposite in2="hardAlpha" operator="out"/>
<feColorMatrix type="matrix" values="0 0 0 0 0 0 0 0 0 0 0 0 0 0 0 0 0 0 0.07 0"/>
<feBlend mode="normal" in2="BackgroundImageFix" result="effect1_dropShadow_939_1605"/>
<feBlend mode="normal" in="SourceGraphic" in2="effect1_dropShadow_939_1605" result="shape"/>
</filter>
<linearGradient id="paint0_linear_939_1605" x1="449" y1="1295" x2="443" y2="57.0001" gradientUnits="userSpaceOnUse">
<stop stop-color="white" stop-opacity="0.91"/>
<stop offset="0.206906" stop-color="white" stop-opacity="0.7"/>
<stop offset="0.420163" stop-color="white" stop-opacity="0"/>
<stop offset="1" stop-color="white" stop-opacity="0"/>
</linearGradient>
</defs>
</svg>
