<svg width="34" height="34" viewBox="0 0 34 34" fill="none" xmlns="http://www.w3.org/2000/svg">
<rect width="34" height="34" rx="5" fill="#026BE3"/>
<path d="M17 5C10.371 5 5 10.4293 5 17.1304C5 23.8315 10.371 29.2609 17 29.2609C23.629 29.2609 29 23.8315 29 17.1304C29 10.4293 23.629 5 17 5ZM17 27.6957C11.2371 27.6957 6.54839 22.956 6.54839 17.1304C6.54839 11.3049 11.2371 6.56522 17 6.56522C22.7629 6.56522 27.4516 11.3049 27.4516 17.1304C27.4516 22.956 22.7629 27.6957 17 27.6957ZM18.95 16.8712L15.4661 15.8832C14.8806 15.7168 14.4694 15.1788 14.4694 14.5772C14.4694 13.8288 15.0887 13.2174 15.8484 13.2174H18.0258C18.5677 13.2174 19.0855 13.3935 19.5065 13.7114C19.6613 13.8288 19.8742 13.8092 20.0097 13.6723L20.5565 13.1098C20.721 12.9435 20.7016 12.6696 20.5177 12.5228C19.8113 11.9554 18.9403 11.6473 18.021 11.6473H17.7742V9.69076C17.7742 9.47554 17.6 9.29946 17.3871 9.29946H16.6129C16.4 9.29946 16.2258 9.47554 16.2258 9.69076V11.6473H15.8484C14.2371 11.6473 12.921 12.9582 12.921 14.5723C12.921 15.8734 13.7968 17.0277 15.0452 17.3848L18.529 18.3728C19.1145 18.5391 19.5258 19.0772 19.5258 19.6788C19.5258 20.4272 18.9065 21.0386 18.1468 21.0386H15.9694C15.4274 21.0386 14.9097 20.8625 14.4887 20.5446C14.3339 20.4272 14.121 20.4467 13.9855 20.5837L13.4387 21.1462C13.2742 21.3125 13.2935 21.5864 13.4774 21.7332C14.1839 22.3005 15.0548 22.6087 15.9742 22.6087H16.2258V24.5652C16.2258 24.7804 16.4 24.9565 16.6129 24.9565H17.3871C17.6 24.9565 17.7742 24.7804 17.7742 24.5652V22.6087H18.1516C19.7629 22.6087 21.079 21.2978 21.079 19.6837C21.0742 18.3826 20.2032 17.2283 18.95 16.8712Z" fill="white"/>
</svg>
