<svg width="53" height="53" viewBox="0 0 53 53" fill="none" xmlns="http://www.w3.org/2000/svg">
<path d="M51.0582 5.82379L47.1753 1.94092C45.8824 0.646973 44.1868 0 42.4912 0C40.7957 0 39.1001 0.646973 37.8061 1.93988L1.3293 38.4167L0.0146541 50.2403C-0.150971 51.7288 1.02186 53 2.47833 53C2.57045 53 2.66258 52.9948 2.75678 52.9845L14.5721 51.6791L51.0592 15.192C53.6461 12.6051 53.6461 8.41064 51.0582 5.82379ZM13.0514 48.5157L3.42135 49.5829L4.49377 39.9384L31.8105 12.6217L40.3785 21.1896L13.0514 48.5157ZM48.7167 12.8504L42.72 18.8471L34.152 10.2791L40.1487 4.28244C40.7739 3.65721 41.6062 3.3125 42.4912 3.3125C43.3763 3.3125 44.2075 3.65721 44.8338 4.28244L48.7167 8.16531C50.0075 9.45719 50.0075 11.5586 48.7167 12.8504Z" fill="white"/>
</svg>
