<svg width="64" height="33" viewBox="0 0 64 33" fill="none" xmlns="http://www.w3.org/2000/svg">
<path d="M48.888 0.5625C40.631 0.5625 34.621 8.77529 32 13.1581C29.379 8.77529 23.369 0.5625 15.112 0.5625C6.778 0.5625 0 7.71246 0 16.5C0 25.2875 6.778 32.4375 15.112 32.4375C23.368 32.4375 29.379 24.2247 32 19.8409C34.621 24.2247 40.631 32.4375 48.888 32.4375C57.222 32.4375 64 25.2875 64 16.5C64 7.71246 57.222 0.5625 48.888 0.5625ZM15.112 29.25C8.544 29.25 3.2 23.5304 3.2 16.5C3.2 9.46957 8.544 3.75 15.112 3.75C22.915 3.75 28.759 13.7717 30.206 16.5C28.759 19.2283 22.916 29.25 15.112 29.25ZM48.888 29.25C41.085 29.25 35.241 19.2283 33.794 16.5C35.241 13.7717 41.085 3.75 48.888 3.75C55.456 3.75 60.8 9.46957 60.8 16.5C60.8 23.5304 55.456 29.25 48.888 29.25Z" fill="white"/>
</svg>
