<svg width="57" height="52" viewBox="0 0 57 52" fill="none" xmlns="http://www.w3.org/2000/svg">
<path d="M34.3438 40.5001H28.9063C28.6659 40.5001 28.4354 40.5956 28.2655 40.7655C28.0955 40.9355 28 41.166 28 41.4063V43.2188C28 43.4592 28.0955 43.6897 28.2655 43.8597C28.4354 44.0296 28.6659 44.1251 28.9063 44.1251H34.3438C34.5841 44.1251 34.8147 44.0296 34.9846 43.8597C35.1546 43.6897 35.25 43.4592 35.25 43.2188V41.4063C35.25 41.166 35.1546 40.9355 34.9846 40.7655C34.8147 40.5956 34.5841 40.5001 34.3438 40.5001ZM41.5938 29.6251H28.9063C28.6659 29.6251 28.4354 29.7206 28.2655 29.8905C28.0955 30.0605 28 30.291 28 30.5313V32.3438C28 32.5842 28.0955 32.8147 28.2655 32.9847C28.4354 33.1546 28.6659 33.2501 28.9063 33.2501H41.5938C41.8341 33.2501 42.0647 33.1546 42.2346 32.9847C42.4046 32.8147 42.5 32.5842 42.5 32.3438V30.5313C42.5 30.291 42.4046 30.0605 42.2346 29.8905C42.0647 29.7206 41.8341 29.6251 41.5938 29.6251ZM56.0938 7.87509H28.9063C28.6659 7.87509 28.4354 7.97057 28.2655 8.14053C28.0955 8.31048 28 8.54099 28 8.78134V10.5938C28 10.8342 28.0955 11.0647 28.2655 11.2347C28.4354 11.4046 28.6659 11.5001 28.9063 11.5001H56.0938C56.3341 11.5001 56.5647 11.4046 56.7346 11.2347C56.9046 11.0647 57 10.8342 57 10.5938V8.78134C57 8.54099 56.9046 8.31048 56.7346 8.14053C56.5647 7.97057 56.3341 7.87509 56.0938 7.87509ZM48.8438 18.7501H28.9063C28.6659 18.7501 28.4354 18.8456 28.2655 19.0155C28.0955 19.1855 28 19.416 28 19.6563V21.4688C28 21.7092 28.0955 21.9397 28.2655 22.1097C28.4354 22.2796 28.6659 22.3751 28.9063 22.3751H48.8438C49.0841 22.3751 49.3147 22.2796 49.4846 22.1097C49.6546 21.9397 49.75 21.7092 49.75 21.4688V19.6563C49.75 19.416 49.6546 19.1855 49.4846 19.0155C49.3147 18.8456 49.0841 18.7501 48.8438 18.7501ZM12.6436 1.02271C12.3901 0.769599 12.0464 0.627441 11.6881 0.627441C11.3298 0.627441 10.9862 0.769599 10.7326 1.02271L1.21696 10.348C1.08956 10.4736 0.988208 10.6232 0.918721 10.788C0.849234 10.9529 0.812978 11.1299 0.812031 11.3088C0.811084 11.4877 0.845464 11.6651 0.913201 11.8307C0.980938 11.9962 1.0807 12.1468 1.20676 12.2738L1.84227 12.9172C1.96717 13.0441 2.11589 13.145 2.2799 13.2141C2.4439 13.2833 2.61995 13.3194 2.79795 13.3204C2.97594 13.3213 3.15237 13.2871 3.3171 13.2197C3.48183 13.1522 3.63161 13.0529 3.75786 12.9274L9.87504 6.95299V50.4688C9.87504 50.7092 9.97052 50.9397 10.1405 51.1097C10.3104 51.2796 10.5409 51.3751 10.7813 51.3751H12.5938C12.8341 51.3751 13.0647 51.2796 13.2346 51.1097C13.4046 50.9397 13.5 50.7092 13.5 50.4688V6.97791L19.6104 12.9082C19.8651 13.1614 20.2097 13.3035 20.5688 13.3035C20.9279 13.3035 21.2725 13.1614 21.5272 12.9082L22.1661 12.267C22.2928 12.1407 22.3933 11.9907 22.462 11.8254C22.5306 11.6602 22.5659 11.483 22.5659 11.3041C22.5659 11.1252 22.5306 10.9481 22.462 10.7828C22.3933 10.6176 22.2928 10.4675 22.1661 10.3412L12.6436 1.02271Z" fill="white"/>
</svg>
