<svg width="62" height="62" viewBox="0 0 62 62" fill="none" xmlns="http://www.w3.org/2000/svg">
<path d="M31 0C13.875 0 0 13.875 0 31C0 48.125 13.875 62 31 62C48.125 62 62 48.125 62 31C62 13.875 48.125 0 31 0ZM31 58C16.1125 58 4 45.8875 4 31C4 16.1125 16.1125 4 31 4C45.8875 4 58 16.1125 58 31C58 45.8875 45.8875 58 31 58ZM36.0375 30.3375L27.0375 27.8125C25.525 27.3875 24.4625 26.0125 24.4625 24.475C24.4625 22.5625 26.0625 21 28.025 21H33.65C35.05 21 36.3875 21.45 37.475 22.2625C37.875 22.5625 38.425 22.5125 38.775 22.1625L40.1875 20.725C40.6125 20.3 40.5625 19.6 40.0875 19.225C38.2625 17.775 36.0125 16.9875 33.6375 16.9875H33V11.9875C33 11.4375 32.55 10.9875 32 10.9875H30C29.45 10.9875 29 11.4375 29 11.9875V16.9875H28.025C23.8625 16.9875 20.4625 20.3375 20.4625 24.4625C20.4625 27.7875 22.725 30.7375 25.95 31.65L34.95 34.175C36.4625 34.6 37.525 35.975 37.525 37.5125C37.525 39.425 35.925 40.9875 33.9625 40.9875H28.3375C26.9375 40.9875 25.6 40.5375 24.5125 39.725C24.1125 39.425 23.5625 39.475 23.2125 39.825L21.8 41.2625C21.375 41.6875 21.425 42.3875 21.9 42.7625C23.725 44.2125 25.975 45 28.35 45H29V50C29 50.55 29.45 51 30 51H32C32.55 51 33 50.55 33 50V45H33.975C38.1375 45 41.5375 41.65 41.5375 37.525C41.525 34.2 39.275 31.25 36.0375 30.3375Z" fill="white"/>
</svg>
