<svg width="24" height="24" viewBox="0 0 24 24" fill="none" xmlns="http://www.w3.org/2000/svg">
<path d="M7.42045 17.8352L7.7519 17.5038C7.97155 17.2841 7.97155 16.928 7.7519 16.7083L3.81777 12.7968H21.4375C21.7481 12.7968 22 12.545 22 12.2343V11.7656C22 11.455 21.7481 11.2031 21.4375 11.2031H3.81777L7.7519 7.29166C7.97155 7.07201 7.97155 6.71585 7.7519 6.49615L7.42045 6.16474C7.20079 5.94509 6.84463 5.94509 6.62498 6.16474L1.16474 11.6022C0.945086 11.8219 0.945086 12.178 1.16474 12.3978L6.62498 17.8352C6.84463 18.0549 7.20079 18.0549 7.42045 17.8352Z" fill="black"/>
</svg>
