<svg width="34" height="34" viewBox="0 0 34 34" fill="none" xmlns="http://www.w3.org/2000/svg">
<rect width="34" height="34" rx="5" fill="#026BE3"/>
<path d="M19.625 23H17.375C17.2755 23 17.1801 23.0395 17.1098 23.1098C17.0395 23.1802 17 23.2755 17 23.375V24.125C17 24.2245 17.0395 24.3198 17.1098 24.3902C17.1801 24.4605 17.2755 24.5 17.375 24.5H19.625C19.7244 24.5 19.8198 24.4605 19.8901 24.3902C19.9605 24.3198 20 24.2245 20 24.125V23.375C20 23.2755 19.9605 23.1802 19.8901 23.1098C19.8198 23.0395 19.7244 23 19.625 23ZM22.625 18.5H17.375C17.2755 18.5 17.1801 18.5395 17.1098 18.6098C17.0395 18.6802 17 18.7755 17 18.875V19.625C17 19.7245 17.0395 19.8198 17.1098 19.8902C17.1801 19.9605 17.2755 20 17.375 20H22.625C22.7244 20 22.8198 19.9605 22.8901 19.8902C22.9605 19.8198 23 19.7245 23 19.625V18.875C23 18.7755 22.9605 18.6802 22.8901 18.6098C22.8198 18.5395 22.7244 18.5 22.625 18.5ZM28.625 9.50001H17.375C17.2755 9.50001 17.1801 9.53951 17.1098 9.60984C17.0395 9.68017 17 9.77555 17 9.87501V10.625C17 10.7245 17.0395 10.8198 17.1098 10.8902C17.1801 10.9605 17.2755 11 17.375 11H28.625C28.7244 11 28.8198 10.9605 28.8901 10.8902C28.9605 10.8198 29 10.7245 29 10.625V9.87501C29 9.77555 28.9605 9.68017 28.8901 9.60984C28.8198 9.53951 28.7244 9.50001 28.625 9.50001ZM25.625 14H17.375C17.2755 14 17.1801 14.0395 17.1098 14.1098C17.0395 14.1802 17 14.2755 17 14.375V15.125C17 15.2245 17.0395 15.3198 17.1098 15.3902C17.1801 15.4605 17.2755 15.5 17.375 15.5H25.625C25.7244 15.5 25.8198 15.4605 25.8901 15.3902C25.9605 15.3198 26 15.2245 26 15.125V14.375C26 14.2755 25.9605 14.1802 25.8901 14.1098C25.8198 14.0395 25.7244 14 25.625 14ZM10.6456 6.66454C10.5407 6.5598 10.3985 6.50098 10.2502 6.50098C10.102 6.50098 9.95975 6.5598 9.85482 6.66454L5.91732 10.5233C5.8646 10.5753 5.82266 10.6371 5.79391 10.7054C5.76516 10.7736 5.75016 10.8468 5.74976 10.9208C5.74937 10.9949 5.7636 11.0683 5.79163 11.1368C5.81966 11.2053 5.86094 11.2676 5.9131 11.3202L6.17607 11.5864C6.22775 11.6389 6.28929 11.6806 6.35716 11.7093C6.42502 11.7379 6.49787 11.7528 6.57152 11.7532C6.64517 11.7536 6.71818 11.7394 6.78634 11.7115C6.85451 11.6836 6.91649 11.6426 6.96873 11.5906L9.49998 9.11844V27.125C9.49998 27.2245 9.53948 27.3198 9.60981 27.3902C9.68014 27.4605 9.77552 27.5 9.87498 27.5H10.625C10.7244 27.5 10.8198 27.4605 10.8901 27.3902C10.9605 27.3198 11 27.2245 11 27.125V9.12876L13.5284 11.5827C13.6338 11.6874 13.7764 11.7462 13.925 11.7462C14.0736 11.7462 14.2161 11.6874 14.3215 11.5827L14.5859 11.3173C14.6384 11.2651 14.68 11.203 14.7084 11.1346C14.7367 11.0662 14.7514 10.9929 14.7514 10.9189C14.7514 10.8449 14.7367 10.7716 14.7084 10.7032C14.68 10.6348 14.6384 10.5727 14.5859 10.5205L10.6456 6.66454Z" fill="white"/>
</svg>
