<svg width="276" height="288" viewBox="0 0 276 288" fill="none" xmlns="http://www.w3.org/2000/svg">
<path d="M121.301 233.304C124.884 252.589 134.783 270.717 149.054 284.1C150.755 285.743 152.88 287.385 155.249 287.02C157.496 286.655 159.075 284.404 159.378 282.093C159.682 279.842 159.014 277.53 158.407 275.34C152.395 254.779 146.382 234.217 140.37 213.655C139.277 210.005 138.062 206.112 134.965 203.922C130.775 200.941 124.459 202.523 121.18 206.538C117.9 210.553 117.414 216.21 118.507 221.259C119.661 226.309 122.273 230.871 124.277 236.346C123.669 236.468 123.062 236.589 121.301 233.304Z" fill="#B9E9B6"/>
<path d="M179.556 9.59325C185.204 2.23242 195.528 -1.05259 204.334 1.62408C213.14 4.30075 219.941 12.8174 220.549 22.0641C221.156 31.3108 215.569 40.6182 207.128 44.4507C212.593 40.9832 218.423 37.8807 224.8 36.5424C231.176 35.2041 238.16 35.8733 243.505 39.4624C251.035 44.5724 254.011 54.4882 253.646 63.6132C253.343 70.7307 251.278 77.9699 246.662 83.3232C242.047 88.7374 234.638 91.9616 227.654 90.4408C237.128 87.7641 247.027 85.0266 256.744 86.9124C266.4 88.7983 275.631 96.8283 275.388 106.683C275.205 114.835 268.525 121.709 260.995 124.812C253.404 127.853 245.023 127.853 236.885 127.853C236.642 127.002 236.399 126.089 236.156 125.237C245.023 129.192 252.675 136.674 255.043 146.103C257.412 155.532 253.707 166.604 245.266 171.349C238.768 174.999 230.448 174.512 223.828 171.167C217.209 167.821 212.107 161.859 208.706 155.228C214.597 166.239 207.613 181.995 195.528 184.915C183.382 187.896 169.961 177.128 170.143 164.657C173.301 167.091 172.997 172.383 170.204 175.242C167.41 178.041 162.916 178.588 159.03 177.676C155.143 176.763 151.742 174.512 148.402 172.322C142.815 168.672 137.228 164.962 131.641 161.312C125.689 157.418 119.373 152.977 117.308 146.164C115.183 139.047 118.462 131.503 121.742 124.872C124.778 118.85 127.997 112.706 133.098 108.265C138.199 103.824 121.847 93.8969 128.042 96.5127C116.746 95.2352 129.09 99.0791 120.891 91.1708C112.754 83.2624 108.685 70.4266 113.24 60.0241C116.337 52.9066 122.774 47.9182 129.151 43.4774C138.017 37.3941 148.402 31.6149 158.969 33.8049C161.094 21.6991 170.811 11.3574 179.556 9.59325Z" fill="url(#paint0_linear_664_2889)"/>
<path fill-rule="evenodd" clip-rule="evenodd" d="M123.732 121.009C123.049 122.29 122.391 123.584 121.742 124.872C118.462 131.503 115.183 139.047 117.308 146.164C119.373 152.977 125.689 157.418 131.641 161.312C134.434 163.136 137.227 164.977 140.021 166.817C142.815 168.657 145.608 170.497 148.402 172.322L148.527 172.405C151.827 174.569 155.192 176.775 159.03 177.676C162.916 178.588 167.41 178.041 170.204 175.242C170.937 174.492 171.499 173.573 171.872 172.583C175.86 181.233 186.08 187.234 195.528 184.915C207.473 182.029 214.434 166.603 208.906 155.614C212.306 162.09 217.337 167.886 223.828 171.167C230.448 174.512 238.768 174.999 245.266 171.349C253.707 166.604 257.412 155.532 255.043 146.103C253.121 138.451 247.72 132.081 241.013 127.839C247.824 127.767 254.682 127.341 260.995 124.812C268.525 121.709 275.205 114.835 275.388 106.683C275.631 96.8282 266.4 88.7982 256.744 86.9124C252.128 86.0167 247.472 86.164 242.84 86.8524C244.249 85.8305 245.538 84.6418 246.663 83.3232C251.278 77.9699 253.343 70.7307 253.646 63.6132C254.011 54.4882 251.035 44.5724 243.505 39.4624C242.248 38.6185 240.901 37.9361 239.492 37.4032C240.972 40.7667 242.238 44.232 243.262 47.7979C246.829 60.4047 246.663 74.4059 242.672 86.8775C242.659 86.9186 242.646 86.9597 242.633 87.0008C239.239 97.5322 233.114 106.964 224.204 113.532C210.906 123.381 193.712 125.73 177.212 127.131C159.188 128.535 139.62 128.581 123.732 121.009Z" fill="url(#paint1_linear_664_2889)"/>
<path d="M89.7821 167.908C98.5272 165.171 77.0289 174.478 76.4823 177.763C71.0774 209.883 75.7535 233.426 87.5351 262.991C90.936 271.629 95.7337 280.45 102.475 284.952C104.843 286.533 107.758 284.587 107.94 281.363C108.669 269.196 105.572 258.611 106.604 241.638C106.665 240.787 106.969 244.193 106.604 243.463C94.2761 220.833 90.5716 208.728 87.5351 182.022C87.4137 180.927 91.4826 168.578 90.7538 167.848C90.6931 167.908 89.7214 167.908 89.7821 167.908Z" fill="url(#paint2_linear_664_2889)"/>
<path d="M123.426 88.7643C105.147 108.718 90.9968 132.503 82.1303 158.114C75.8145 176.547 72.1707 196.5 76.5432 215.48C80.9157 234.46 94.4584 252.163 113.224 257.151C121.787 259.463 131.746 258.672 138.184 252.588C144.317 246.748 145.836 237.441 144.985 228.985C144.135 220.529 141.463 212.378 140.613 203.922C139.155 189.322 143.71 174.174 153.002 162.798C162.293 151.423 176.14 143.94 191.686 142.906C190.836 139.317 189.986 135.788 189.075 132.199C185.31 135.667 179.662 137.37 174.804 135.667C169.945 134.024 166.362 128.61 167.516 123.561C168.67 118.512 174.986 115.166 179.48 117.66C176.322 111.394 173.164 105.128 170.067 98.8626C166.727 103.547 163.204 108.353 157.982 110.725C152.759 113.037 145.471 111.759 143.164 106.467C141.645 102.938 142.799 98.8018 144.682 95.456C147.05 91.3193 150.512 87.7909 154.824 85.7834C151.058 84.5059 147.658 82.3159 145.653 78.7876C143.042 76.1109 140.491 73.3734 137.88 70.6968C129.742 78.9701 123.123 88.7035 123.426 88.7643Z" fill="url(#paint3_linear_664_2889)"/>
<path d="M9.52725 149.499L136.079 30.3786L165.224 61.4223L38.6117 180.539L9.52725 149.499Z" fill="#F8D66B"/>
<path fill-rule="evenodd" clip-rule="evenodd" d="M135.995 30.4657L154.754 50.444L28.2345 169.452L9.52455 149.488L135.995 30.4657Z" fill="#FFE184"/>
<path d="M9.08021 149.033L135.632 29.9125L141.782 37.5349L15.1693 156.652L9.08021 149.033Z" fill="#FFEAA9"/>
<path d="M153.063 14.4064L149.17 18.1139C143.401 23.5274 143.116 32.5912 148.523 38.37L158.029 48.501C163.435 54.2798 172.486 54.567 178.254 49.1536L182.147 45.4461C187.916 40.0326 188.201 30.9688 182.794 25.19L173.289 15.059C167.882 9.28021 158.771 8.989 153.063 14.4064Z" fill="#65A0D5"/>
<path d="M148.068 19.1418L126.808 39.0857L155.953 70.1293L177.217 50.1247L148.068 19.1418Z" fill="url(#paint4_linear_664_2889)"/>
<path d="M0.81295 186.187L38.4003 180.051L9.31585 149.011L0.81295 186.187Z" fill="#FFECA7"/>
<path fill-rule="evenodd" clip-rule="evenodd" d="M18.1922 183.347L0.813816 186.182L4.74354 168.997L18.1922 183.347Z" fill="#65A0D5"/>
<path d="M114.681 164.502C106.483 148.016 98.2234 131.591 90.0249 115.105C88.446 111.942 86.8063 108.596 86.867 105.067C86.9277 101.539 89.2354 97.7066 92.697 97.2808C95.1869 96.9766 97.5554 98.3149 99.4987 99.8358C104.904 104.033 108.79 109.873 112.313 115.713C120.693 129.705 127.738 144.548 132.718 160.122C134.297 164.988 131.442 170.889 126.645 172.653C124.884 173.322 122.819 173.444 121.24 172.41C117.9 170.22 117.961 168.821 114.681 164.502Z" fill="url(#paint5_linear_664_2889)"/>
<path d="M75.4564 88.1961C76.1623 77.5737 80.6938 67.0846 88.32 58.5699C92.1976 54.2559 97.5822 50.1643 103.714 50.3903C107.722 50.5356 111.418 52.6111 113.854 55.3342C116.913 58.7695 118.368 63.4391 116.93 67.6719C115.553 71.9088 110.992 75.5067 105.987 75.7216C100.921 75.9325 96.0492 72.3154 95.3661 67.9411C88.4265 74.3677 82.1818 81.3284 75.4564 88.1961Z" fill="url(#paint6_linear_664_2889)"/>
<path d="M127.708 111.803C125.675 114.803 122.672 116.319 121.018 115.166C119.354 114.035 119.673 110.7 121.706 107.7C123.739 104.7 126.741 103.184 128.395 104.337C130.069 105.447 129.74 108.803 127.708 111.803Z" fill="url(#paint7_radial_664_2889)"/>
<path d="M151.825 129.614C149.793 132.614 146.79 134.129 145.136 132.977C143.472 131.845 143.791 128.51 145.824 125.51C147.857 122.51 150.859 120.995 152.513 122.147C154.187 123.257 153.858 126.614 151.825 129.614Z" fill="url(#paint8_radial_664_2889)"/>
<path d="M134.273 122.401C134.301 122.567 134.483 122.675 134.636 122.616C134.925 122.541 135.214 122.466 135.491 122.361C135.716 122.257 135.885 122.052 136.131 121.958C136.572 121.772 137.024 121.847 137.209 122.288C137.336 122.575 137.261 123.028 137.127 123.326C136.982 123.593 136.646 123.774 136.373 123.984C135.107 124.873 133.572 124.823 132.792 123.884C132.012 122.946 132.153 121.091 133.114 120.142C133.345 119.913 133.807 119.736 134.102 119.818C134.598 119.964 134.566 120.436 134.448 120.869C134.216 121.788 134.18 121.925 134.273 122.401Z" fill="#188055"/>
<defs>
<linearGradient id="paint0_linear_664_2889" x1="193.367" y1="0.700195" x2="193.367" y2="185.416" gradientUnits="userSpaceOnUse">
<stop stop-color="#90B88D"/>
<stop offset="1" stop-color="#84B081"/>
</linearGradient>
<linearGradient id="paint1_linear_664_2889" x1="153.852" y1="170.729" x2="323.981" y2="99.7608" gradientUnits="userSpaceOnUse">
<stop stop-color="#6D996A"/>
<stop offset="1" stop-color="#6D996A" stop-opacity="0"/>
</linearGradient>
<linearGradient id="paint2_linear_664_2889" x1="108.466" y1="222.62" x2="58.4111" y2="240.959" gradientUnits="userSpaceOnUse">
<stop stop-color="#6EDB66"/>
<stop offset="0.3752" stop-color="#8BE085"/>
<stop offset="1" stop-color="#B9E9B6"/>
</linearGradient>
<linearGradient id="paint3_linear_664_2889" x1="103.75" y1="258.633" x2="179.263" y2="103.001" gradientUnits="userSpaceOnUse">
<stop stop-color="#B8EEB4"/>
<stop offset="0.651042" stop-color="#B3ECAF"/>
<stop offset="1" stop-color="#93DD8E"/>
</linearGradient>
<linearGradient id="paint4_linear_664_2889" x1="119.534" y1="25.336" x2="160.907" y2="71.2039" gradientUnits="userSpaceOnUse">
<stop offset="0.348533" stop-color="#FFD37A"/>
<stop offset="0.855969" stop-color="#F7B949"/>
</linearGradient>
<linearGradient id="paint5_linear_664_2889" x1="91.2245" y1="94.1872" x2="135.648" y2="184.28" gradientUnits="userSpaceOnUse">
<stop stop-color="#6EDB66"/>
<stop offset="1" stop-color="#B9E9B6"/>
</linearGradient>
<linearGradient id="paint6_linear_664_2889" x1="111.622" y1="59.7807" x2="48.7269" y2="94.1993" gradientUnits="userSpaceOnUse">
<stop stop-color="#6EDB66"/>
<stop offset="0.3752" stop-color="#8BE085"/>
<stop offset="1" stop-color="#B9E9B6"/>
</linearGradient>
<radialGradient id="paint7_radial_664_2889" cx="0" cy="0" r="1" gradientUnits="userSpaceOnUse" gradientTransform="translate(124.711 109.746) rotate(34.3706) scale(5.30007 5.30335)">
<stop offset="0.2083" stop-color="#077145"/>
<stop offset="1" stop-color="#05663E"/>
</radialGradient>
<radialGradient id="paint8_radial_664_2889" cx="0" cy="0" r="1" gradientUnits="userSpaceOnUse" gradientTransform="translate(148.828 127.557) rotate(34.3707) scale(5.30003 5.30333)">
<stop offset="0.2083" stop-color="#077145"/>
<stop offset="1" stop-color="#05663E"/>
</radialGradient>
</defs>
</svg>
